<?xml version="1.0" encoding="UTF-8" standalone="no"?>
<svg
   xmlns:dc="http://purl.org/dc/elements/1.1/"
   xmlns:cc="http://creativecommons.org/ns#"
   xmlns:rdf="http://www.w3.org/1999/02/22-rdf-syntax-ns#"
   xmlns:svg="http://www.w3.org/2000/svg"
   xmlns="http://www.w3.org/2000/svg"
   xmlns:sodipodi="http://sodipodi.sourceforge.net/DTD/sodipodi-0.dtd"
   xmlns:inkscape="http://www.inkscape.org/namespaces/inkscape"
   viewBox="0 0 16 16"
   fill="#0c63e4"
   version="1.1"
   id="svg4"
   sodipodi:docname="accordion-caret-btn.svg"
   inkscape:version="1.0.2-2 (e86c870879, 2021-01-15)">
  <metadata
     id="metadata10">
    <rdf:RDF>
      <cc:Work
         rdf:about="">
        <dc:format>image/svg+xml</dc:format>
        <dc:type
           rdf:resource="http://purl.org/dc/dcmitype/StillImage" />
      </cc:Work>
    </rdf:RDF>
  </metadata>
  <defs
     id="defs8" />
  <sodipodi:namedview
     pagecolor="#ffffff"
     bordercolor="#666666"
     borderopacity="1"
     objecttolerance="10"
     gridtolerance="10"
     guidetolerance="10"
     inkscape:pageopacity="0"
     inkscape:pageshadow="2"
     inkscape:window-width="1920"
     inkscape:window-height="1001"
     id="namedview6"
     showgrid="false"
     inkscape:zoom="51.875"
     inkscape:cx="8"
     inkscape:cy="7.9614458"
     inkscape:window-x="-9"
     inkscape:window-y="-9"
     inkscape:window-maximized="1"
     inkscape:current-layer="svg4" />
  <path
     fill-rule="evenodd"
     d="M1.646 4.646a.5.5 0 0 1 .708 0L8 10.293l5.646-5.647a.5.5 0 0 1 .708.708l-6 6a.5.5 0 0 1-.708 0l-6-6a.5.5 0 0 1 0-.708z"
     id="path2" />
  <path
     style="fill:#ffffff;fill-opacity:1;stroke-width:0"
     d="M 7.8435676,11.463744 C 7.8052407,11.449397 7.7488551,11.419456 7.7182664,11.397208 7.6876777,11.37496 6.2905561,9.9834142 4.6135516,8.3048844 1.6273483,5.3159648 1.5638253,5.2508523 1.5340336,5.1483084 1.4961988,5.0180797 1.496153,4.98634 1.533618,4.8601815 1.5712973,4.7333017 1.67555,4.6154001 1.8024096,4.5561995 1.916581,4.50292 2.036901,4.498298 2.17006,4.5420764 2.2575584,4.5708431 2.4914951,4.7995493 5.1325301,7.43831 L 8,10.30331 l 2.86747,-2.865 c 2.641035,-2.6387607 2.874972,-2.8674669 2.96247,-2.8962336 0.133159,-0.043778 0.253479,-0.039156 0.36765,0.014123 0.249946,0.1166404 0.353703,0.3882856 0.247744,0.6486198 -0.03426,0.084184 -6.0872233,6.1473088 -6.2099567,6.2203858 -0.1005025,0.05984 -0.2861289,0.0781 -0.3918097,0.03854 z"
     id="path835" />
</svg>
