<?xml version="1.0" standalone="no"?>
<svg viewBox="0 0 200 200" xmlns="http://www.w3.org/2000/svg">
  <path fill="#FFC6C2" d="M36.1,-53.1C50.5,-54.4,68.2,-52,68,-42.5C67.8,-33,49.7,-16.5,49,-0.5C48.2,15.6,64.7,31.2,63.8,38.8C62.9,46.4,44.6,46,31.1,42.6C17.5,39.3,8.8,33,-2.8,37.9C-14.4,42.7,-28.8,58.8,-40,60.8C-51.1,62.8,-59.1,50.7,-62,38.3C-65,25.8,-63,12.9,-64.8,-1C-66.6,-15,-72.2,-29.9,-69.6,-43C-66.9,-56,-56,-67.1,-43,-66.6C-30.1,-66.1,-15,-54,-2.1,-50.5C10.9,-46.9,21.8,-51.8,36.1,-53.1Z" transform="translate(100 100)" />
</svg>
