<?xml version="1.0" standalone="no"?>
<svg viewBox="0 0 200 200" xmlns="http://www.w3.org/2000/svg">
  <path fill="#FFECBF" d="M37,-56.4C50.1,-56.6,64.4,-51,65.3,-40.6C66.2,-30.3,53.6,-15.1,50,-2.1C46.3,10.9,51.6,21.9,46.4,24.8C41.3,27.7,25.7,22.7,16.2,23.1C6.8,23.5,3.4,29.3,-2.8,34.2C-9,39.1,-18.1,43.1,-32.3,45.4C-46.4,47.7,-65.7,48.4,-74.1,40.5C-82.5,32.7,-80.1,16.3,-78.8,0.7C-77.6,-14.9,-77.5,-29.8,-68.8,-37.2C-60.1,-44.6,-42.9,-44.5,-30,-44.4C-17.1,-44.4,-8.5,-44.4,1.7,-47.3C12,-50.3,23.9,-56.2,37,-56.4Z" transform="translate(100 100)" />
</svg>
