<svg id="PRINT" xmlns="http://www.w3.org/2000/svg" viewBox="0 0 841.89 297.64"><defs><style>.cls-1{fill:#fff;}.cls-2{fill:#eec13f;opacity:0.3;}.cls-3{fill:#efc4c0;}</style></defs><title>bottom</title><path class="cls-1" d="M258.62,292.8a1.76,1.76,0,1,1,1.52,2A1.77,1.77,0,0,1,258.62,292.8Z"/><path class="cls-1" d="M268.47,285.19a1.76,1.76,0,0,1,3.5.45,1.76,1.76,0,0,1-3.5-.45Z"/><path class="cls-1" d="M276.08,295a3.59,3.59,0,0,1,.08-.35,1.77,1.77,0,0,1,.88-1,1.76,1.76,0,0,1,2.48,1.1,1.5,1.5,0,0,1,.05.7,1.76,1.76,0,0,1-3.49-.45Z"/><path class="cls-1" d="M298.85,264.08c.81-.21,1.63-.42,2.45-.61a1.77,1.77,0,0,1-1.75.86A1.68,1.68,0,0,1,298.85,264.08Z"/><path class="cls-1" d="M288.18,270a1.76,1.76,0,0,1,3.49.45,1.77,1.77,0,0,1-2,1.52A1.75,1.75,0,0,1,288.18,270Z"/><path class="cls-1" d="M305.64,272.21a1.76,1.76,0,1,1,1.52,2A1.76,1.76,0,0,1,305.64,272.21Z"/><path class="cls-1" d="M316.66,266.49a1.76,1.76,0,0,1-1.12-1.19,1.82,1.82,0,0,1-.05-.7,1.76,1.76,0,0,1,2-1.52,1.68,1.68,0,0,1,.66.23,1.72,1.72,0,0,1,.81,1,1.83,1.83,0,0,1,.05.7,2,2,0,0,1-.08.35,1.82,1.82,0,0,1-.34.59,1.78,1.78,0,0,1-1.55.58A1.37,1.37,0,0,1,316.66,266.49Z"/><path class="cls-1" d="M293.54,297.28a1.77,1.77,0,0,1,2-1.52,1.76,1.76,0,1,1-2,1.52Z"/><path class="cls-1" d="M285.93,287.43a1.76,1.76,0,1,1,1.53,2A1.76,1.76,0,0,1,285.93,287.43Z"/><path class="cls-1" d="M303.39,289.67a1.76,1.76,0,1,1,1.53,2A1.77,1.77,0,0,1,303.39,289.67Z"/><path class="cls-1" d="M295.79,279.82h0a1.69,1.69,0,0,1,.42-.94,1.75,1.75,0,0,1,1.55-.58,1.71,1.71,0,0,1,1.16.67,1.75,1.75,0,0,1,.36,1.3,1.76,1.76,0,0,1-2,1.52A1.75,1.75,0,0,1,295.79,279.82Z"/><path class="cls-1" d="M279.85,279.55h0a1.74,1.74,0,0,1-1.53-1.61,1.45,1.45,0,0,1,0-.36,1.75,1.75,0,0,1,2-1.52,1.76,1.76,0,0,1,1.53,2,3.38,3.38,0,0,1-.08.34,1.79,1.79,0,0,1-.88,1A1.73,1.73,0,0,1,279.85,279.55Z"/><path class="cls-1" d="M333,266.85a1.76,1.76,0,1,1,1.52,2A1.76,1.76,0,0,1,333,266.85Z"/><path class="cls-1" d="M323.1,274.45a1.76,1.76,0,1,1,1.52,2A1.76,1.76,0,0,1,323.1,274.45Z"/><path class="cls-1" d="M340.56,276.7a1.76,1.76,0,1,1,1.52,2A1.76,1.76,0,0,1,340.56,276.7Z"/><path class="cls-1" d="M342.8,259.24a1.73,1.73,0,0,1,.7-1.19l1.91-.12a1.76,1.76,0,1,1-2.61,1.31Z"/><path class="cls-1" d="M351,270.63a1.71,1.71,0,0,1-.59-1.19,1.38,1.38,0,0,1,0-.35,1.75,1.75,0,0,1,2-1.52,1.84,1.84,0,0,1,.66.22,1.74,1.74,0,0,1,.81,1,1.82,1.82,0,0,1,0,.7,1.75,1.75,0,0,1-.67,1.17,1.79,1.79,0,0,1-1.3.35A1.77,1.77,0,0,1,351,270.63Z"/><path class="cls-1" d="M320.85,291.92a1.76,1.76,0,1,1,1.53,2A1.77,1.77,0,0,1,320.85,291.92Z"/><path class="cls-1" d="M338.31,294.16a1.76,1.76,0,1,1,1.53,2A1.76,1.76,0,0,1,338.31,294.16Z"/><path class="cls-1" d="M332.23,286.28a1.77,1.77,0,0,1-1.52-2,1.76,1.76,0,1,1,3.49.44,3.59,3.59,0,0,1-.08.35,1.71,1.71,0,0,1-.88,1A1.73,1.73,0,0,1,332.23,286.28Z"/><path class="cls-1" d="M314.77,284h0a1.37,1.37,0,0,1-.35-.08,1.74,1.74,0,0,1-.82-.59,1.68,1.68,0,0,1-.35-1.3h0a1.66,1.66,0,0,1,.22-.66,1.77,1.77,0,0,1,1.75-.86,1.68,1.68,0,0,1,.66.23,1.77,1.77,0,0,1,.87,1.39,2.08,2.08,0,0,1,0,.35h0a1.77,1.77,0,0,1-.67,1.17,1.71,1.71,0,0,1-.95.36A1.38,1.38,0,0,1,314.77,284Z"/><path class="cls-1" d="M349,288.29a1.66,1.66,0,0,1-.51-.44,1.69,1.69,0,0,1-.3-.6,1.64,1.64,0,0,1-.05-.7,1.78,1.78,0,0,1,.22-.66,1.73,1.73,0,0,1,.73-.69,1.76,1.76,0,0,1,1-.17h0a1.76,1.76,0,0,1,1.47,1.27,1.82,1.82,0,0,1,.05.7,3.38,3.38,0,0,1-.08.34,1.76,1.76,0,0,1-1.89,1.18A1.62,1.62,0,0,1,349,288.29Z"/><path class="cls-1" d="M367.87,271.33a1.76,1.76,0,1,1,1.52,2A1.76,1.76,0,0,1,367.87,271.33Z"/><path class="cls-1" d="M358,278.94a1.76,1.76,0,1,1,1.52,2A1.75,1.75,0,0,1,358,278.94Z"/><path class="cls-1" d="M375.48,281.18a1.76,1.76,0,1,1,1.52,2A1.76,1.76,0,0,1,375.48,281.18Z"/><path class="cls-1" d="M360.26,261.48a1.76,1.76,0,1,1,1.52,2A1.76,1.76,0,0,1,360.26,261.48Z"/><path class="cls-1" d="M379.24,265.69a1.76,1.76,0,1,1,2-1.52A1.76,1.76,0,0,1,379.24,265.69Z"/><path class="cls-1" d="M385.33,273.57a1.3,1.3,0,0,1,.08-.34,1.74,1.74,0,0,1,1.89-1.18,1.84,1.84,0,0,1,.94.42,1.75,1.75,0,0,1,.59,1.2,1.38,1.38,0,0,1,0,.35,1.73,1.73,0,0,1-.67,1.17,1.71,1.71,0,0,1-1.3.35A1.76,1.76,0,0,1,385.33,273.57Z"/><path class="cls-1" d="M355.77,296.4a1.76,1.76,0,1,1,1.53,2A1.76,1.76,0,0,1,355.77,296.4Z"/><path class="cls-1" d="M373.24,298.64a1.76,1.76,0,1,1,1.52,2A1.76,1.76,0,0,1,373.24,298.64Z"/><path class="cls-1" d="M366,290.09a1.71,1.71,0,0,1-.35-1.3,1.84,1.84,0,0,1,.22-.66,1.76,1.76,0,1,1,1.3,2.63A1.73,1.73,0,0,1,366,290.09Z"/><path class="cls-1" d="M416.4,252.72a1.76,1.76,0,1,1,2-1.53A1.77,1.77,0,0,1,416.4,252.72Z"/><path class="cls-1" d="M402.79,275.81a1.76,1.76,0,1,1,1.52,2A1.76,1.76,0,0,1,402.79,275.81Z"/><path class="cls-1" d="M392.94,283.42a1.76,1.76,0,1,1,1.52,2A1.76,1.76,0,0,1,392.94,283.42Z"/><path class="cls-1" d="M410.4,285.67a1.76,1.76,0,1,1,1.52,2A1.76,1.76,0,0,1,410.4,285.67Z"/><path class="cls-1" d="M396.7,267.93a1.76,1.76,0,1,1,2-1.52A1.76,1.76,0,0,1,396.7,267.93Z"/><path class="cls-1" d="M416.13,268.65a1.76,1.76,0,1,1-1.52-2A1.76,1.76,0,0,1,416.13,268.65Z"/><path class="cls-1" d="M421.11,279.8a1.7,1.7,0,0,1-.81-1.05,1.76,1.76,0,0,1,3.39-.94,1.82,1.82,0,0,1,.05.7,1.76,1.76,0,0,1-2,1.52A1.68,1.68,0,0,1,421.11,279.8Z"/><path class="cls-1" d="M406.55,260.33a1.77,1.77,0,0,1-1.52-2h0a1.71,1.71,0,0,1,.43-.93A1.64,1.64,0,0,1,406,257a1.73,1.73,0,0,1,1-.18,1.77,1.77,0,0,1,1.17.67,1.75,1.75,0,0,1,.18.29,1.62,1.62,0,0,1,.18.66,1.38,1.38,0,0,1,0,.35h0A1.76,1.76,0,0,1,406.55,260.33Z"/><path class="cls-1" d="M390.64,257.5a1.75,1.75,0,0,1-1.55.58,1.3,1.3,0,0,1-.34-.08,1.5,1.5,0,0,1-.59-.34,1.71,1.71,0,0,1-.54-.85,1.82,1.82,0,0,1-.05-.7,1.76,1.76,0,0,1,2-1.52,1.62,1.62,0,0,1,.66.23,1.72,1.72,0,0,1,.81,1,1.82,1.82,0,0,1,.05.7,1.37,1.37,0,0,1-.08.35A1.66,1.66,0,0,1,390.64,257.5Z"/><path class="cls-1" d="M400.55,293.28a1.83,1.83,0,0,1,.22-.67,1.76,1.76,0,0,1,3.27,1.11,2,2,0,0,1-.08.35,1.78,1.78,0,0,1-1.89,1.18A1.76,1.76,0,0,1,400.55,293.28Z"/><path class="cls-1" d="M384.61,293a1.76,1.76,0,1,1,.45-3.49h0a1.76,1.76,0,0,1,1.52,2,2,2,0,0,1-.08.35,1.76,1.76,0,0,1-1.89,1.17Z"/><path class="cls-1" d="M418.36,296.82a1.71,1.71,0,0,1-.35-1.3h0a1.75,1.75,0,0,1,.95-1.35,1.66,1.66,0,0,1,.66-.18,1.45,1.45,0,0,1,.36,0,1.84,1.84,0,0,1,.66.22,1.35,1.35,0,0,1,.27.2,1.71,1.71,0,0,1,.54.85,1.86,1.86,0,0,1,.06.34,2.17,2.17,0,0,1,0,.36h0a1.76,1.76,0,0,1-2,1.52A1.79,1.79,0,0,1,418.36,296.82Z"/><path class="cls-1" d="M455.81,222.28a1.76,1.76,0,1,1,2-1.52A1.75,1.75,0,0,1,455.81,222.28Z"/><path class="cls-1" d="M463.51,228.63a1.45,1.45,0,0,1,.36,0,1.77,1.77,0,0,1,.93.42,1.81,1.81,0,0,1,.6,1.19,2.17,2.17,0,0,1,0,.36h0a1.76,1.76,0,0,1-3.14.85,1.69,1.69,0,0,1-.35-1.3h0a1.76,1.76,0,0,1,1-1.35A1.85,1.85,0,0,1,463.51,228.63Z"/><path class="cls-1" d="M443.44,263.29a1.47,1.47,0,0,1-.08.35,1.79,1.79,0,0,1-.87,1,1.75,1.75,0,0,1-1,.17,1.76,1.76,0,0,1,.45-3.49A1.75,1.75,0,0,1,443.44,263.29Z"/><path class="cls-1" d="M425.12,259.3a1.42,1.42,0,0,1,.28.2,1.76,1.76,0,0,1,.53.85,1.64,1.64,0,0,1,.05.7h0a1.71,1.71,0,0,1-.67,1.16,1.73,1.73,0,0,1-.94.37,2.17,2.17,0,0,1-.36,0h0a1.87,1.87,0,0,1-.34-.08,1.65,1.65,0,0,1-.59-.35,2,2,0,0,1-.42-.53,1.79,1.79,0,0,1-.18-.66,2.08,2.08,0,0,1,0-.35h0a2,2,0,0,1,.08-.35,1.77,1.77,0,0,1,1.89-1.17A1.61,1.61,0,0,1,425.12,259.3Z"/><path class="cls-1" d="M445.69,245.83a1.76,1.76,0,1,1-1.53-2A1.77,1.77,0,0,1,445.69,245.83Z"/><path class="cls-1" d="M426.26,245.11l-.35-.08a1.79,1.79,0,0,1-1.13-1.19c.59-.29,1.17-.6,1.75-.91s.87-.45,1.3-.69a1.78,1.78,0,0,1,.35.65,1.8,1.8,0,0,1,.05.7A1.77,1.77,0,0,1,426.26,245.11Z"/><path class="cls-1" d="M435.83,253.44a1.76,1.76,0,1,1-1.52-2A1.76,1.76,0,0,1,435.83,253.44Z"/><path class="cls-1" d="M453.3,255.68a1.76,1.76,0,1,1-1.53-2A1.77,1.77,0,0,1,453.3,255.68Z"/><path class="cls-1" d="M436.11,237.5a1.9,1.9,0,0,1-.48-.14c.82-.59,1.64-1.2,2.44-1.82a1.61,1.61,0,0,1,0,.44A1.77,1.77,0,0,1,436.11,237.5Z"/><path class="cls-1" d="M455.54,238.22a1.76,1.76,0,0,1-2,1.52,1.76,1.76,0,0,1,.45-3.49A1.76,1.76,0,0,1,455.54,238.22Z"/><path class="cls-1" d="M459.38,263.56a1.8,1.8,0,0,1,.94.42,1.75,1.75,0,0,1,.59,1.19,1.45,1.45,0,0,1,0,.36,1.75,1.75,0,0,1-2,1.52h0a1.76,1.76,0,0,1-1.52-2h0c0-.12,0-.23.08-.35a1.85,1.85,0,0,1,.35-.59,1.76,1.76,0,0,1,.53-.41A1.73,1.73,0,0,1,459.38,263.56Z"/><path class="cls-1" d="M446,229.89a1.77,1.77,0,0,1-.95-.43c.44-.43.88-.86,1.3-1.3s.77-.81,1.15-1.21a1.73,1.73,0,0,1,.47,1.42,2.21,2.21,0,0,1-.08.35A1.77,1.77,0,0,1,446,229.89Z"/><path class="cls-1" d="M437.71,280.3a1.76,1.76,0,1,1,1.52,2A1.76,1.76,0,0,1,437.71,280.3Z"/><path class="cls-1" d="M427.86,287.91a1.76,1.76,0,1,1,1.52,2A1.76,1.76,0,0,1,427.86,287.91Z"/><path class="cls-1" d="M445.32,290.15a1.76,1.76,0,1,1,1.52,2A1.76,1.76,0,0,1,445.32,290.15Z"/><path class="cls-1" d="M433.59,270.9a1.76,1.76,0,1,1-1.52-2A1.76,1.76,0,0,1,433.59,270.9Z"/><path class="cls-1" d="M451.05,273.14a1.76,1.76,0,1,1-1.52-2A1.75,1.75,0,0,1,451.05,273.14Z"/><path class="cls-1" d="M455.17,282.54a1.75,1.75,0,0,1,.67-1.17,1.79,1.79,0,0,1,1.3-.35,1.76,1.76,0,0,1,.85,3.14,1.69,1.69,0,0,1-1.3.35A1.76,1.76,0,0,1,455.17,282.54Z"/><path class="cls-1" d="M437,299.73a1.84,1.84,0,0,1-.94-.42,1.78,1.78,0,0,1-.58-1.55,1.37,1.37,0,0,1,.08-.35,1.66,1.66,0,0,1,.34-.59,1.78,1.78,0,0,1,2.49-.16,1.78,1.78,0,0,1,.58,1.55,2,2,0,0,1-.08.35,1.77,1.77,0,0,1-.88,1A1.73,1.73,0,0,1,437,299.73Z"/><path class="cls-1" d="M487.33,197.93a1.37,1.37,0,0,1-.08.35,1.75,1.75,0,0,1-1.89,1.17,1.7,1.7,0,0,1-.93-.42,1.74,1.74,0,0,1-.59-1.55,1.76,1.76,0,1,1,3.49.45Z"/><path class="cls-1" d="M487.61,182a1.76,1.76,0,1,1,2-1.52A1.76,1.76,0,0,1,487.61,182Z"/><path class="cls-1" d="M477.75,189.6a1.76,1.76,0,1,1,2-1.52A1.76,1.76,0,0,1,477.75,189.6Z"/><path class="cls-1" d="M497.18,190.32a1.76,1.76,0,1,1-3.49-.45,1.76,1.76,0,0,1,3.49.45Z"/><path class="cls-1" d="M497.46,174.38a1.76,1.76,0,1,1,.45-3.49,1.76,1.76,0,1,1-.45,3.49Z"/><path class="cls-1" d="M503.27,198.2a1.62,1.62,0,0,1,.66.23,1.8,1.8,0,0,1,.51.44,1.71,1.71,0,0,1,.36.95,1.38,1.38,0,0,1,0,.35,1.71,1.71,0,0,1-.67,1.17,1.73,1.73,0,0,1-1.3.36h0a1.77,1.77,0,0,1-1.52-2h0a1.71,1.71,0,0,1,.43-.94,1.76,1.76,0,0,1,.53-.41A1.73,1.73,0,0,1,503.27,198.2Z"/><path class="cls-1" d="M481.33,230.88a1.71,1.71,0,0,1,.93.43,1.73,1.73,0,0,1,.59,1.54,2,2,0,0,1-.08.35,1.76,1.76,0,0,1-1.89,1.17,1.69,1.69,0,0,1-.94-.42,1.76,1.76,0,0,1-.58-1.55,1.3,1.3,0,0,1,.08-.34,1.66,1.66,0,0,1,.34-.59,1.76,1.76,0,0,1,.53-.41A1.78,1.78,0,0,1,481.33,230.88Z"/><path class="cls-1" d="M485.09,215.39a1.76,1.76,0,0,1-3.49-.45,1.76,1.76,0,1,1,3.49.45Z"/><path class="cls-1" d="M465.66,214.67a1.76,1.76,0,0,1-1.52-2,2,2,0,0,1,.08-.35,1.75,1.75,0,0,1,1.89-1.17,1.75,1.75,0,0,1,1.47,1.27,1.82,1.82,0,0,1,.05.7A1.75,1.75,0,0,1,465.66,214.67Z"/><path class="cls-1" d="M475.24,223a1.76,1.76,0,1,1-1.52-2A1.75,1.75,0,0,1,475.24,223Z"/><path class="cls-1" d="M492.7,225.24a1.76,1.76,0,1,1-1.52-2A1.77,1.77,0,0,1,492.7,225.24Z"/><path class="cls-1" d="M477.48,205.54a1.76,1.76,0,1,1-3.49-.45,1.76,1.76,0,0,1,3.49.45Z"/><path class="cls-1" d="M494.94,207.78a1.76,1.76,0,1,1-1.52-2A1.76,1.76,0,0,1,494.94,207.78Z"/><path class="cls-1" d="M478.36,267.77a1.74,1.74,0,0,1-1.61,1.53,1.45,1.45,0,0,1-.36,0,1.3,1.3,0,0,1-.34-.08,1.75,1.75,0,0,1-1.18-1.89,1.68,1.68,0,0,1,.23-.66,1.76,1.76,0,0,1,3.26,1.11Z"/><path class="cls-1" d="M480.61,250.31a1.76,1.76,0,1,1-1.53-2A1.76,1.76,0,0,1,480.61,250.31Z"/><path class="cls-1" d="M462.29,246.32a1.85,1.85,0,0,1,.81,1.05,1.82,1.82,0,0,1,0,.7,3.59,3.59,0,0,1-.08.35,1.81,1.81,0,0,1-.88,1,1.73,1.73,0,0,1-1,.17h0a1.7,1.7,0,0,1-.94-.42,1.78,1.78,0,0,1-.6-1.19c0-.12,0-.24,0-.36a1.77,1.77,0,0,1,2-1.52A1.83,1.83,0,0,1,462.29,246.32Z"/><path class="cls-1" d="M470.76,257.92a1.76,1.76,0,1,1-1.53-2A1.76,1.76,0,0,1,470.76,257.92Z"/><path class="cls-1" d="M488.22,260.16a1.76,1.76,0,1,1-1.53-2A1.77,1.77,0,0,1,488.22,260.16Z"/><path class="cls-1" d="M473,240.46a1.76,1.76,0,1,1-1.52-2A1.76,1.76,0,0,1,473,240.46Z"/><path class="cls-1" d="M490.46,242.7a1.76,1.76,0,1,1-1.52-2A1.77,1.77,0,0,1,490.46,242.7Z"/><path class="cls-1" d="M472.63,284.78a1.76,1.76,0,1,1,1.52,2A1.76,1.76,0,0,1,472.63,284.78Z"/><path class="cls-1" d="M462.78,292.39a1.76,1.76,0,1,1,1.52,2A1.76,1.76,0,0,1,462.78,292.39Z"/><path class="cls-1" d="M480.24,294.64a1.76,1.76,0,1,1,1.52,2A1.77,1.77,0,0,1,480.24,294.64Z"/><path class="cls-1" d="M465,274.93a1.76,1.76,0,1,1,3.49.45,1.76,1.76,0,1,1-3.49-.45Z"/><path class="cls-1" d="M482.48,277.18a1.76,1.76,0,1,1,1.52,2A1.77,1.77,0,0,1,482.48,277.18Z"/><path class="cls-1" d="M491.26,288.92a1.76,1.76,0,0,1-.21-3.24,1.81,1.81,0,0,1,.65-.19h.36a1.85,1.85,0,0,1,.66.23,1.74,1.74,0,0,1,.81,1,1.8,1.8,0,0,1,.05.7,1.76,1.76,0,0,1-2,1.52Z"/><path class="cls-1" d="M526.16,166a1.76,1.76,0,0,1,.58,1.55,1.87,1.87,0,0,1-.08.34,1.76,1.76,0,0,1-.88,1,1.81,1.81,0,0,1-1,.17,1.77,1.77,0,0,1-.94-.43,1.75,1.75,0,0,1-.58-1.54,1.37,1.37,0,0,1,.08-.35,1.66,1.66,0,0,1,.34-.59,1.78,1.78,0,0,1,2.49-.16Z"/><path class="cls-1" d="M527,151.56a1.78,1.78,0,0,1-1.48-1.31c1.15-.2,2.3-.38,3.46-.53a1.74,1.74,0,0,1,0,.32A1.76,1.76,0,0,1,527,151.56Z"/><path class="cls-1" d="M517.16,159.17a1.76,1.76,0,1,1,2-1.53A1.76,1.76,0,0,1,517.16,159.17Z"/><path class="cls-1" d="M534.62,161.41a1.76,1.76,0,1,1,2-1.52A1.76,1.76,0,0,1,534.62,161.41Z"/><path class="cls-1" d="M542.32,167.76a1.45,1.45,0,0,1,.36,0,1.84,1.84,0,0,1,.66.22,1.78,1.78,0,0,1,.81,1,1.82,1.82,0,0,1,.05.7,2.21,2.21,0,0,1-.08.35,1.77,1.77,0,0,1-.88,1,1.73,1.73,0,0,1-1,.17,1.84,1.84,0,0,1-.94-.42,1.78,1.78,0,0,1-.58-1.55,1.84,1.84,0,0,1,.22-.66,1.73,1.73,0,0,1,.73-.69A1.85,1.85,0,0,1,542.32,167.76Z"/><path class="cls-1" d="M522.25,202.42a1.75,1.75,0,0,1-1.61,1.53,2.17,2.17,0,0,1-.36,0,1.87,1.87,0,0,1-.34-.08,1.76,1.76,0,0,1-1.18-1.89,1.62,1.62,0,0,1,.23-.66,1.73,1.73,0,0,1,1.74-.86A1.75,1.75,0,0,1,522.25,202.42Z"/><path class="cls-1" d="M524.5,185a1.76,1.76,0,1,1-1.53-2A1.77,1.77,0,0,1,524.5,185Z"/><path class="cls-1" d="M506.18,181A1.82,1.82,0,0,1,507,182a1.77,1.77,0,0,1,.05.69,3.59,3.59,0,0,1-.08.35,1.85,1.85,0,0,1-.35.59,1.75,1.75,0,0,1-1.54.59l-.35-.08a1.81,1.81,0,0,1-1.13-1.2,1.76,1.76,0,0,1,1.92-2.22A1.67,1.67,0,0,1,506.18,181Z"/><path class="cls-1" d="M514.65,192.57a1.76,1.76,0,1,1-1.53-2A1.77,1.77,0,0,1,514.65,192.57Z"/><path class="cls-1" d="M532.11,194.81a1.76,1.76,0,1,1-1.53-2A1.77,1.77,0,0,1,532.11,194.81Z"/><path class="cls-1" d="M516.89,175.11a1.76,1.76,0,1,1-1.52-2A1.77,1.77,0,0,1,516.89,175.11Z"/><path class="cls-1" d="M534.35,177.35a1.77,1.77,0,0,1-2,1.52,1.76,1.76,0,1,1,2-1.52Z"/><path class="cls-1" d="M538.19,202.69h0a1.74,1.74,0,0,1,1.47,1.27,1.5,1.5,0,0,1,.05.7,1.37,1.37,0,0,1-.08.35,1.79,1.79,0,0,1-.87,1,1.75,1.75,0,0,1-1,.17,1.84,1.84,0,0,1-.66-.22,1.89,1.89,0,0,1-.27-.2,1.34,1.34,0,0,1-.23-.25,1.72,1.72,0,0,1-.31-.6,1.82,1.82,0,0,1,0-.7,1.77,1.77,0,0,1,1-1.35A1.73,1.73,0,0,1,538.19,202.69Z"/><path class="cls-1" d="M507.31,166.78a1.83,1.83,0,0,1-1.17-.67,1.75,1.75,0,0,1-.35-1.3h0a1.71,1.71,0,0,1,.67-1.17,1.74,1.74,0,0,1,1.3-.36h0a1.77,1.77,0,0,1,.94.43,1.82,1.82,0,0,1,.59,1.19,2.08,2.08,0,0,1,0,.35h0A1.77,1.77,0,0,1,507.31,166.78Z"/><path class="cls-1" d="M517.19,235.79a1.77,1.77,0,0,1,.59,1.19,1.45,1.45,0,0,1,0,.36,1.87,1.87,0,0,1-.08.34,1.76,1.76,0,0,1-.88,1,1.73,1.73,0,0,1-1,.17,1.75,1.75,0,0,1-1.17-.67,1.79,1.79,0,0,1-.35-1.3,1.77,1.77,0,0,1,2.91-1.1Z"/><path class="cls-1" d="M499.45,233.35a1.76,1.76,0,0,1,.86,1.74,1.8,1.8,0,0,1-.08.35,1.71,1.71,0,0,1-.88,1,1.73,1.73,0,0,1-1,.18l-.35-.08a1.85,1.85,0,0,1-.59-.35,1.76,1.76,0,0,1-.58-1.54A1.89,1.89,0,0,1,497,234a1.77,1.77,0,0,1,1.75-.86A1.85,1.85,0,0,1,499.45,233.35Z"/><path class="cls-1" d="M520,219.88a1.76,1.76,0,1,1-1.52-2A1.76,1.76,0,0,1,520,219.88Z"/><path class="cls-1" d="M502.55,217.63a1.83,1.83,0,0,1-.22.67,1.78,1.78,0,0,1-1.75.86,1.68,1.68,0,0,1-.66-.23,1.8,1.8,0,0,1-.51-.44,1.93,1.93,0,0,1-.3-.61,1.77,1.77,0,0,1-.05-.69,1.89,1.89,0,0,1,.22-.67,1.8,1.8,0,0,1,.45-.5,1.75,1.75,0,0,1,2.82,1.61Z"/><path class="cls-1" d="M510.16,227.49a1.76,1.76,0,1,1-1.52-2A1.76,1.76,0,0,1,510.16,227.49Z"/><path class="cls-1" d="M527.62,229.73a1.76,1.76,0,1,1-1.52-2A1.76,1.76,0,0,1,527.62,229.73Z"/><path class="cls-1" d="M512.4,210a1.76,1.76,0,1,1-1.52-2A1.76,1.76,0,0,1,512.4,210Z"/><path class="cls-1" d="M529.86,212.27a1.76,1.76,0,1,1-1.52-2A1.76,1.76,0,0,1,529.86,212.27Z"/><path class="cls-1" d="M533.71,237.61a1.84,1.84,0,0,1,.66.22,2.83,2.83,0,0,1,.28.2,1.77,1.77,0,0,1,.58,1.55,2,2,0,0,1-.08.35,1.76,1.76,0,0,1-1.89,1.17h0a1.74,1.74,0,0,1-1.53-1.61,1.45,1.45,0,0,1,0-.36,1.37,1.37,0,0,1,.08-.35,1.66,1.66,0,0,1,.34-.59,1.75,1.75,0,0,1,1.55-.58Z"/><path class="cls-1" d="M535.59,220.14a1.45,1.45,0,0,1,.36,0,1.76,1.76,0,1,1-1,.17A1.8,1.8,0,0,1,535.59,220.14Z"/><path class="cls-1" d="M494.3,268a1.76,1.76,0,0,1,1.52,2,1.93,1.93,0,0,1-.22.66,1.65,1.65,0,0,1-.45.5,1.34,1.34,0,0,1-.28.18,1.27,1.27,0,0,1-.32.13,1.8,1.8,0,0,1-.7.05,1.68,1.68,0,0,1-.66-.23,2,2,0,0,1-.5-.44,1.74,1.74,0,0,1-.36-1.3,1.62,1.62,0,0,1,.23-.66,1.66,1.66,0,0,1,.44-.51,1.75,1.75,0,0,1,1.3-.36Z"/><path class="cls-1" d="M515.53,254.8a1.77,1.77,0,0,1-2,1.52,1.76,1.76,0,1,1,2-1.52Z"/><path class="cls-1" d="M497.21,250.81a1.8,1.8,0,0,1,.87,1.39,2,2,0,0,1,0,.35,1.76,1.76,0,1,1-1.52-2A1.68,1.68,0,0,1,497.21,250.81Z"/><path class="cls-1" d="M505.68,262.41a1.76,1.76,0,1,1-1.53-2A1.77,1.77,0,0,1,505.68,262.41Z"/><path class="cls-1" d="M523.14,264.65a1.76,1.76,0,1,1-1.53-2A1.77,1.77,0,0,1,523.14,264.65Z"/><path class="cls-1" d="M507.92,245a1.76,1.76,0,1,1-3.49-.45,1.76,1.76,0,0,1,3.49.45Z"/><path class="cls-1" d="M525.38,247.19a1.77,1.77,0,0,1-2,1.52,1.76,1.76,0,1,1,2-1.52Z"/><path class="cls-1" d="M531.47,255.07a1.76,1.76,0,0,1,1.47,1.27,1.82,1.82,0,0,1,0,.7,1.76,1.76,0,0,1-2,1.52,1.75,1.75,0,0,1-1.52-2,1.37,1.37,0,0,1,.08-.35,1.79,1.79,0,0,1,.87-1A1.75,1.75,0,0,1,531.47,255.07Z"/><path class="cls-1" d="M507.55,289.27a1.76,1.76,0,1,1,1.52,2A1.76,1.76,0,0,1,507.55,289.27Z"/><path class="cls-1" d="M497.7,296.88a1.76,1.76,0,1,1,1.52,2A1.77,1.77,0,0,1,497.7,296.88Z"/><path class="cls-1" d="M515.16,299.12a1.76,1.76,0,1,1,1.52,2A1.76,1.76,0,0,1,515.16,299.12Z"/><path class="cls-1" d="M499.94,279.42a1.76,1.76,0,1,1,1.52,2A1.76,1.76,0,0,1,499.94,279.42Z"/><path class="cls-1" d="M517.4,281.66a1.76,1.76,0,1,1,1.52,2A1.76,1.76,0,0,1,517.4,281.66Z"/><path class="cls-1" d="M509.79,271.81h0a1.78,1.78,0,0,1,1-1.35,1.73,1.73,0,0,1,1-.17,1.71,1.71,0,0,1,1.17.67,1.74,1.74,0,0,1,.36,1.3,1.83,1.83,0,0,1-.67,1.17,1.8,1.8,0,0,1-1.31.35A1.76,1.76,0,0,1,509.79,271.81Z"/><path class="cls-1" d="M561.08,170.43a1.79,1.79,0,0,1,.59,1.19,2.17,2.17,0,0,1,0,.36,1.76,1.76,0,0,1-3.14.85,1.78,1.78,0,0,1-.35-1.3,1.76,1.76,0,0,1,2-1.52A1.84,1.84,0,0,1,561.08,170.43Z"/><path class="cls-1" d="M561.93,156a1.76,1.76,0,1,1,2-1.52A1.76,1.76,0,0,1,561.93,156Z"/><path class="cls-1" d="M544.47,153.8a1.73,1.73,0,0,1-1.17-.67,1.69,1.69,0,0,1-.3-.6,1.82,1.82,0,0,1,0-.7,1.84,1.84,0,0,1,.22-.66,1.76,1.76,0,0,1,3.22.41,1.82,1.82,0,0,1,.05.7A1.76,1.76,0,0,1,544.47,153.8Z"/><path class="cls-1" d="M552.08,163.65a1.76,1.76,0,1,1,2-1.52A1.75,1.75,0,0,1,552.08,163.65Z"/><path class="cls-1" d="M569.54,165.89a1.76,1.76,0,1,1,2-1.52A1.76,1.76,0,0,1,569.54,165.89Z"/><path class="cls-1" d="M577.6,172.25a1.68,1.68,0,0,1,.66.23,1.31,1.31,0,0,1,.28.2,1.76,1.76,0,0,1,.58,1.54,2,2,0,0,1-.08.35,1.74,1.74,0,0,1-.88,1,1.81,1.81,0,0,1-1,.18,2,2,0,0,1-.35-.09,1.66,1.66,0,0,1-.59-.34,1.76,1.76,0,0,1-.53-.85,1.8,1.8,0,0,1,0-.7,1.3,1.3,0,0,1,.08-.34,1.66,1.66,0,0,1,.34-.59,1.76,1.76,0,0,1,.53-.41A1.78,1.78,0,0,1,577.6,172.25Z"/><path class="cls-1" d="M555.65,204.93a1.73,1.73,0,0,1,1.17.67,1.71,1.71,0,0,1,.35,1.3,1.75,1.75,0,0,1-.67,1.17,1.68,1.68,0,0,1-1.3.35,1.76,1.76,0,0,1-1.52-2h0a1.77,1.77,0,0,1,.43-.94,2.15,2.15,0,0,1,.53-.41A1.73,1.73,0,0,1,555.65,204.93Z"/><path class="cls-1" d="M559.42,189.44a1.76,1.76,0,1,1-1.52-2A1.76,1.76,0,0,1,559.42,189.44Z"/><path class="cls-1" d="M541.1,185.45a1.77,1.77,0,0,1,.19,2.92,1.78,1.78,0,0,1-2.24-.07,1.75,1.75,0,0,1-.59-1.19,2.16,2.16,0,0,1,0-.36,1.76,1.76,0,0,1,2-1.52A1.83,1.83,0,0,1,541.1,185.45Z"/><path class="cls-1" d="M549.57,197.05a1.76,1.76,0,1,1-1.53-2A1.76,1.76,0,0,1,549.57,197.05Z"/><path class="cls-1" d="M567,199.29a1.76,1.76,0,1,1-1.53-2A1.76,1.76,0,0,1,567,199.29Z"/><path class="cls-1" d="M551.81,179.59a1.76,1.76,0,0,1-2,1.52,1.76,1.76,0,1,1,.45-3.49A1.76,1.76,0,0,1,551.81,179.59Z"/><path class="cls-1" d="M569.27,181.83a1.76,1.76,0,1,1-1.52-2A1.76,1.76,0,0,1,569.27,181.83Z"/><path class="cls-1" d="M575.36,189.71a1.71,1.71,0,0,1,.93.43,1.78,1.78,0,0,1,.6,1.19,2.08,2.08,0,0,1,0,.35,1.76,1.76,0,1,1-3.49-.45,1.3,1.3,0,0,1,.08-.34,1.77,1.77,0,0,1,1.89-1.18Z"/><path class="cls-1" d="M552.69,241.82a2,2,0,0,1-.08.35,1.76,1.76,0,0,1-1.89,1.17,1.76,1.76,0,1,1,2-1.52Z"/><path class="cls-1" d="M554.93,224.36a1.76,1.76,0,0,1-3.49-.45,1.76,1.76,0,0,1,3.49.45Z"/><path class="cls-1" d="M545.08,232a1.76,1.76,0,1,1-3.49-.45,1.76,1.76,0,1,1,3.49.45Z"/><path class="cls-1" d="M562.54,234.21a1.76,1.76,0,1,1-1.52-2A1.76,1.76,0,0,1,562.54,234.21Z"/><path class="cls-1" d="M547.32,214.51a1.76,1.76,0,1,1-3.49-.45,1.77,1.77,0,0,1,2-1.52A1.75,1.75,0,0,1,547.32,214.51Z"/><path class="cls-1" d="M564.78,216.75a1.76,1.76,0,1,1-3.49-.45,1.76,1.76,0,0,1,3.49.45Z"/><path class="cls-1" d="M568.63,242.09a1.68,1.68,0,0,1,.66.23,1.79,1.79,0,0,1,.28.2,1.73,1.73,0,0,1,.59,1.19,1.38,1.38,0,0,1,0,.35h0a1.71,1.71,0,0,1-.67,1.17,1.75,1.75,0,0,1-1.3.36h0a1.76,1.76,0,0,1-1.52-2h0a1.7,1.7,0,0,1,.42-.94,1.76,1.76,0,0,1,.53-.41A1.78,1.78,0,0,1,568.63,242.09Z"/><path class="cls-1" d="M550.45,259.28a1.76,1.76,0,1,1-1.52-2A1.76,1.76,0,0,1,550.45,259.28Z"/><path class="cls-1" d="M537.1,266.44a1.76,1.76,0,1,1,1.53,2A1.77,1.77,0,0,1,537.1,266.44Z"/><path class="cls-1" d="M554.57,268.68a1.76,1.76,0,1,1,1.52,2A1.76,1.76,0,0,1,554.57,268.68Z"/><path class="cls-1" d="M542.84,249.43a1.76,1.76,0,1,1-1.52-2A1.76,1.76,0,0,1,542.84,249.43Z"/><path class="cls-1" d="M560.3,251.67a1.76,1.76,0,1,1-1.52-2A1.77,1.77,0,0,1,560.3,251.67Z"/><path class="cls-1" d="M542.47,293.75a1.76,1.76,0,1,1,3.49.45,1.76,1.76,0,1,1-3.49-.45Z"/><path class="cls-1" d="M526.53,293.48h0a1.76,1.76,0,0,1-.94-.42,1.82,1.82,0,0,1-.59-1.19,2.17,2.17,0,0,1,0-.36,1.76,1.76,0,0,1,3.44-.25,1.82,1.82,0,0,1,0,.7,1.37,1.37,0,0,1-.08.35,1.75,1.75,0,0,1-1.89,1.17Z"/><path class="cls-1" d="M534.86,283.9a1.77,1.77,0,0,1,2-1.52,1.76,1.76,0,1,1-2,1.52Z"/><path class="cls-1" d="M552.32,286.14a1.76,1.76,0,1,1,1.52,2A1.77,1.77,0,0,1,552.32,286.14Z"/><path class="cls-1" d="M559.93,296a1.75,1.75,0,0,1,2.63-1.3,1.75,1.75,0,0,1,.87,1.39,1.37,1.37,0,0,1,0,.35,1.71,1.71,0,0,1-.67,1.17,1.73,1.73,0,0,1-1.3.36A1.77,1.77,0,0,1,559.93,296Z"/><path class="cls-1" d="M546.24,278.26a1.7,1.7,0,0,1-.94-.42,1.76,1.76,0,1,1,2.91-1.1,2,2,0,0,1-.09.35,1.76,1.76,0,0,1-.87,1A1.73,1.73,0,0,1,546.24,278.26Z"/><path class="cls-1" d="M528.77,276a1.71,1.71,0,0,1-1.16-.67,1.74,1.74,0,0,1-.36-1.3h0a1.68,1.68,0,0,1,.23-.66,1.74,1.74,0,0,1,1.39-.87,1.38,1.38,0,0,1,.35,0,1.75,1.75,0,0,1,1.52,2h0a1.75,1.75,0,0,1-1.61,1.53A1.46,1.46,0,0,1,528.77,276Z"/><path class="cls-1" d="M563.35,280.43a1.81,1.81,0,0,1-1.13-1.2,1.77,1.77,0,0,1-.05-.69,1.72,1.72,0,0,1,.23-.67,1.76,1.76,0,0,1,1.74-.86,1.67,1.67,0,0,1,.67.23,1.82,1.82,0,0,1,.81,1.05,1.77,1.77,0,0,1,0,.69,3,3,0,0,1-.08.35,1.77,1.77,0,0,1-1.9,1.18Z"/><path class="cls-1" d="M596.58,176.47a1.87,1.87,0,0,1-.08.34,1.71,1.71,0,0,1-.88,1,1.73,1.73,0,0,1-1,.18,1.77,1.77,0,0,1-.94-.43,1.76,1.76,0,0,1,1.39-3.07A1.77,1.77,0,0,1,596.58,176.47Z"/><path class="cls-1" d="M596.85,160.53a1.77,1.77,0,0,1-1.52-2,1.67,1.67,0,0,1,.23-.67l3.26.7a1.48,1.48,0,0,1,0,.42A1.76,1.76,0,0,1,596.85,160.53Z"/><path class="cls-1" d="M579.39,158.28a1.76,1.76,0,0,1-1.52-2,1.71,1.71,0,0,1,.67-1.16,1.76,1.76,0,1,1,.85,3.13Z"/><path class="cls-1" d="M587,168.14a1.76,1.76,0,1,1,2-1.53A1.76,1.76,0,0,1,587,168.14Z"/><path class="cls-1" d="M604.46,170.38a1.77,1.77,0,0,1-1.52-2,1.76,1.76,0,1,1,1.52,2Z"/><path class="cls-1" d="M592.1,211.39a1.89,1.89,0,0,1-.09.34,1.78,1.78,0,0,1-.87,1,1.83,1.83,0,0,1-1,.17,1.71,1.71,0,0,1-.93-.43,1.76,1.76,0,1,1,2.91-1.09Z"/><path class="cls-1" d="M573.11,207.17a1.77,1.77,0,0,1,1.53,2h0a1.78,1.78,0,0,1-1.62,1.54h-.36a1.89,1.89,0,0,1-.34-.09,1.75,1.75,0,0,1-1.18-1.88h0a1.67,1.67,0,0,1,.23-.67,1.62,1.62,0,0,1,.44-.5,1.75,1.75,0,0,1,1.3-.36Z"/><path class="cls-1" d="M594.34,193.93a1.76,1.76,0,0,1-3.49-.45,1.76,1.76,0,1,1,3.49.45Z"/><path class="cls-1" d="M584.49,201.53a1.76,1.76,0,1,1-1.53-2A1.77,1.77,0,0,1,584.49,201.53Z"/><path class="cls-1" d="M602,203.78a1.76,1.76,0,1,1-1.53-2A1.77,1.77,0,0,1,602,203.78Z"/><path class="cls-1" d="M586.73,184.07a1.76,1.76,0,1,1-1.52-2A1.77,1.77,0,0,1,586.73,184.07Z"/><path class="cls-1" d="M604.19,186.32a1.77,1.77,0,0,1-2,1.52,1.76,1.76,0,1,1,2-1.52Z"/><path class="cls-1" d="M607.68,211.65a1.38,1.38,0,0,1,.35,0,1.89,1.89,0,0,1,.67.22,1.76,1.76,0,0,1,.86,1.75,2.25,2.25,0,0,1-.09.35,1.76,1.76,0,0,1-3.41-.8,1.68,1.68,0,0,1,.23-.66,1.73,1.73,0,0,1,.73-.69A1.79,1.79,0,0,1,607.68,211.65Z"/><path class="cls-1" d="M589.85,228.85a1.76,1.76,0,1,1-1.52-2A1.76,1.76,0,0,1,589.85,228.85Z"/><path class="cls-1" d="M572.34,225.91a1.77,1.77,0,0,1,0,.69,1.37,1.37,0,0,1-.08.35,1.66,1.66,0,0,1-.34.59,1.77,1.77,0,0,1-1.55.59l-.35-.08a1.76,1.76,0,1,1,2.27-2.14Z"/><path class="cls-1" d="M580,236.46a1.76,1.76,0,1,1-1.52-2A1.76,1.76,0,0,1,580,236.46Z"/><path class="cls-1" d="M594,238.25a1.76,1.76,0,1,1,1.52,2A1.76,1.76,0,0,1,594,238.25Z"/><path class="cls-1" d="M582.24,219a1.76,1.76,0,1,1-1.52-2A1.76,1.76,0,0,1,582.24,219Z"/><path class="cls-1" d="M599.7,221.24a1.76,1.76,0,1,1-1.52-2A1.76,1.76,0,0,1,599.7,221.24Z"/><path class="cls-1" d="M604.4,232.19a1.84,1.84,0,0,1-.59-1.19,2.17,2.17,0,0,1,0-.36,1.76,1.76,0,0,1,2-1.52,1.78,1.78,0,0,1,.66.22,1.74,1.74,0,0,1,.81,1,1.82,1.82,0,0,1,0,.7,1.75,1.75,0,0,1-.67,1.17,1.78,1.78,0,0,1-1.3.35A1.84,1.84,0,0,1,604.4,232.19Z"/><path class="cls-1" d="M581.88,263.32a1.76,1.76,0,1,1,3.49.45,1.76,1.76,0,1,1-3.49-.45Z"/><path class="cls-1" d="M565.94,263.05a1.62,1.62,0,0,1-.66-.23,1.8,1.8,0,0,1-.51-.44,1.74,1.74,0,0,1-.3-.61,1.46,1.46,0,0,1-.05-.69,1.89,1.89,0,0,1,.22-.67,1.8,1.8,0,0,1,.45-.5,1.73,1.73,0,0,1,1.3-.36,1.77,1.77,0,0,1,1.52,2,1.67,1.67,0,0,1-.23.67,1.62,1.62,0,0,1-.44.5,1.68,1.68,0,0,1-.61.31A1.77,1.77,0,0,1,565.94,263.05Z"/><path class="cls-1" d="M572,270.93a1.74,1.74,0,0,1,2-1.52,1.76,1.76,0,1,1-2,1.52Z"/><path class="cls-1" d="M589.48,273.17a1.76,1.76,0,1,1,1.53,2A1.76,1.76,0,0,1,589.48,273.17Z"/><path class="cls-1" d="M574.27,253.47a1.76,1.76,0,0,1,3.49.45,1.76,1.76,0,1,1-3.49-.45Z"/><path class="cls-1" d="M591.73,255.71a1.76,1.76,0,1,1,1.52,2A1.75,1.75,0,0,1,591.73,255.71Z"/><path class="cls-1" d="M599.34,265.56a1.76,1.76,0,0,1,.95-1.35A1.85,1.85,0,0,1,601,264a1.45,1.45,0,0,1,.36,0,1.76,1.76,0,0,1-.45,3.49A1.75,1.75,0,0,1,599.34,265.56Z"/><path class="cls-1" d="M585.64,247.83a2,2,0,0,1-.35-.08,1.85,1.85,0,0,1-.59-.35,1.75,1.75,0,0,1-.58-1.54,1.37,1.37,0,0,1,.08-.35,1.66,1.66,0,0,1,.34-.59,1.76,1.76,0,1,1,1.46,2.92A2.17,2.17,0,0,1,585.64,247.83Z"/><path class="cls-1" d="M577.39,298.24a1.76,1.76,0,0,1,2-1.52,1.76,1.76,0,1,1-.45,3.49A1.76,1.76,0,0,1,577.39,298.24Z"/><path class="cls-1" d="M569.78,288.39a1.76,1.76,0,1,1,1.52,2A1.77,1.77,0,0,1,569.78,288.39Z"/><path class="cls-1" d="M587.24,290.63a1.76,1.76,0,0,1,2-1.52,1.76,1.76,0,0,1-.45,3.49A1.76,1.76,0,0,1,587.24,290.63Z"/><path class="cls-1" d="M581.16,282.75a1.71,1.71,0,0,1-1.17-.67,1.75,1.75,0,0,1-.36-1.3,1.79,1.79,0,0,1,.23-.66,1.73,1.73,0,0,1,1.74-.86,1.76,1.76,0,0,1,1.53,2,1.89,1.89,0,0,1-.09.34,1.78,1.78,0,0,1-.87,1A1.73,1.73,0,0,1,581.16,282.75Z"/><path class="cls-1" d="M630.92,179.4a1.76,1.76,0,0,1-1,3.08,1.45,1.45,0,0,1-.36,0,1.37,1.37,0,0,1-.35-.08,1.66,1.66,0,0,1-.59-.34,1.77,1.77,0,0,1-.58-1.55,1.47,1.47,0,0,1,.08-.35,1.82,1.82,0,0,1,.34-.59A1.75,1.75,0,0,1,630,179,1.84,1.84,0,0,1,630.92,179.4Z"/><path class="cls-1" d="M613.18,177a2.83,2.83,0,0,1,.28.2,1.81,1.81,0,0,1,.53.85,2,2,0,0,1,.06.34,1.45,1.45,0,0,1,0,.36h0a1.75,1.75,0,0,1-.67,1.17,1.79,1.79,0,0,1-1.3.35h0a1.77,1.77,0,0,1-1.35-1,1.8,1.8,0,0,1-.18-.65,1.45,1.45,0,0,1,0-.36h0a1.75,1.75,0,0,1,2-1.52A1.84,1.84,0,0,1,613.18,177Z"/><path class="cls-1" d="M631.77,165a1.76,1.76,0,0,1-1.53-1.69c1.17.06,2.34.09,3.5.12v.05A1.75,1.75,0,0,1,631.77,165Z"/><path class="cls-1" d="M614.31,162.77a1.87,1.87,0,0,1-.34-.08,1.75,1.75,0,0,1-1.13-1.19c0-.07,0-.14,0-.21l1.67.28,1.63.25A1.76,1.76,0,0,1,614.31,162.77Z"/><path class="cls-1" d="M621.92,172.62a1.76,1.76,0,1,1,2-1.52A1.76,1.76,0,0,1,621.92,172.62Z"/><path class="cls-1" d="M639.38,174.86a1.76,1.76,0,1,1,2-1.52A1.76,1.76,0,0,1,639.38,174.86Z"/><path class="cls-1" d="M629.26,198.41a1.76,1.76,0,1,1-1.52-2A1.76,1.76,0,0,1,629.26,198.41Z"/><path class="cls-1" d="M611.75,195.47a1.82,1.82,0,0,1,0,.7,1.77,1.77,0,0,1-2.63,1.3,1.84,1.84,0,0,1-.51-.45,1.69,1.69,0,0,1-.3-.6,1.5,1.5,0,0,1-.05-.7,1.84,1.84,0,0,1,.22-.66,1.76,1.76,0,0,1,3.22.41Z"/><path class="cls-1" d="M619.41,206a1.76,1.76,0,0,1-2,1.52,1.76,1.76,0,1,1,.45-3.49A1.76,1.76,0,0,1,619.41,206Z"/><path class="cls-1" d="M633.38,207.81a1.76,1.76,0,1,1,1.52,2A1.76,1.76,0,0,1,633.38,207.81Z"/><path class="cls-1" d="M621.65,188.56a1.76,1.76,0,1,1-1.52-2A1.76,1.76,0,0,1,621.65,188.56Z"/><path class="cls-1" d="M635.62,190.35a1.76,1.76,0,1,1,1.52,2A1.76,1.76,0,0,1,635.62,190.35Z"/><path class="cls-1" d="M643.23,200.2a1.71,1.71,0,0,1,.67-1.16,1.73,1.73,0,0,1,1.3-.36,1.76,1.76,0,1,1-.45,3.49A1.75,1.75,0,0,1,643.23,200.2Z"/><path class="cls-1" d="M621.28,232.88a1.77,1.77,0,0,1,2-1.52,1.76,1.76,0,1,1-2,1.52Z"/><path class="cls-1" d="M611.43,240.49a1.76,1.76,0,1,1,1.52,2A1.76,1.76,0,0,1,611.43,240.49Z"/><path class="cls-1" d="M628.89,242.73a1.76,1.76,0,1,1,3.49.45,1.76,1.76,0,0,1-3.49-.45Z"/><path class="cls-1" d="M613.67,223a1.77,1.77,0,0,1,2-1.52,1.76,1.76,0,1,1-2,1.52Z"/><path class="cls-1" d="M631.13,225.27a1.76,1.76,0,0,1,3.49.45,1.76,1.76,0,1,1-3.49-.45Z"/><path class="cls-1" d="M638.74,235.12a1.87,1.87,0,0,1,.08-.34,1.76,1.76,0,0,1,1.89-1.18,1.77,1.77,0,0,1,1.53,1.62,1.38,1.38,0,0,1,0,.35,1.71,1.71,0,0,1-.67,1.17,1.73,1.73,0,0,1-1.3.36A1.77,1.77,0,0,1,638.74,235.12Z"/><path class="cls-1" d="M623.88,216.72a1.74,1.74,0,0,1-.36-1.3,1.68,1.68,0,0,1,.23-.66,1.76,1.76,0,1,1,1.3,2.63A1.71,1.71,0,0,1,623.88,216.72Z"/><path class="cls-1" d="M616.8,267.8a1.76,1.76,0,1,1,1.52,2A1.76,1.76,0,0,1,616.8,267.8Z"/><path class="cls-1" d="M607,275.41a1.76,1.76,0,1,1,1.52,2A1.76,1.76,0,0,1,607,275.41Z"/><path class="cls-1" d="M624.41,277.65a1.76,1.76,0,1,1,1.52,2A1.76,1.76,0,0,1,624.41,277.65Z"/><path class="cls-1" d="M609.19,258a1.76,1.76,0,1,1,1.52,2A1.76,1.76,0,0,1,609.19,258Z"/><path class="cls-1" d="M626.65,260.19a1.76,1.76,0,1,1,1.52,2A1.76,1.76,0,0,1,626.65,260.19Z"/><path class="cls-1" d="M635.43,271.93a1.74,1.74,0,0,1-1.12-1.19,1.76,1.76,0,0,1,1.92-2.22,1.68,1.68,0,0,1,.66.23,1.76,1.76,0,0,1,.86,1.74,2,2,0,0,1-.08.35,2,2,0,0,1-.34.59,1.78,1.78,0,0,1-1.55.59A2,2,0,0,1,635.43,271.93Z"/><path class="cls-1" d="M619,250.34h0a1.77,1.77,0,0,1,.42-.93A1.87,1.87,0,0,1,620,249a1.73,1.73,0,0,1,1-.17,1.74,1.74,0,0,1,1.35,1,1.79,1.79,0,0,1,.18.66,1.38,1.38,0,0,1,0,.35h0a1.76,1.76,0,1,1-3.49-.45Z"/><path class="cls-1" d="M603.1,250.07a1.84,1.84,0,0,1-.66-.22,2.83,2.83,0,0,1-.28-.2,2.73,2.73,0,0,1-.23-.25,1.69,1.69,0,0,1-.3-.6,1.82,1.82,0,0,1,0-.7,1.75,1.75,0,0,1,2-1.52h0a1.75,1.75,0,0,1,1.47,1.27,1.82,1.82,0,0,1,.05.7,1.37,1.37,0,0,1-.08.35,1.75,1.75,0,0,1-1.89,1.17Z"/><path class="cls-1" d="M604.7,292.87a1.77,1.77,0,0,1,2-1.52,1.76,1.76,0,1,1-2,1.52Z"/><path class="cls-1" d="M622.16,295.11a1.76,1.76,0,1,1,1.52,2A1.77,1.77,0,0,1,622.16,295.11Z"/><path class="cls-1" d="M614.55,285.26a1.85,1.85,0,0,1,.23-.66,1.76,1.76,0,0,1,3.27,1.11,3.59,3.59,0,0,1-.08.35,1.77,1.77,0,0,1-3.42-.8Z"/><path class="cls-1" d="M598.62,285h0a1.77,1.77,0,0,1-.94-.42,1.81,1.81,0,0,1-.6-1.19c0-.12,0-.24,0-.36a1.76,1.76,0,0,1,2-1.52,1.89,1.89,0,0,1,.67.22,1.76,1.76,0,0,1,.86,1.75,3.59,3.59,0,0,1-.08.35,1.81,1.81,0,0,1-.88,1A1.73,1.73,0,0,1,598.62,285Z"/><path class="cls-1" d="M633.54,289.48a1.78,1.78,0,0,1-1.17-.67,1.75,1.75,0,0,1-.36-1.3h0a1.77,1.77,0,0,1,2-1.53,1.67,1.67,0,0,1,.67.23,1.35,1.35,0,0,1,.27.2,1.78,1.78,0,0,1,.6,1.19,2.08,2.08,0,0,1,0,.35h0a1.78,1.78,0,0,1-.67,1.17,1.75,1.75,0,0,1-1.3.36Z"/><path class="cls-1" d="M665.17,167.53a1.76,1.76,0,1,1,1.52,2A1.77,1.77,0,0,1,665.17,167.53Z"/><path class="cls-1" d="M650.25,167.08a1.77,1.77,0,0,1-1,.17h0a1.7,1.7,0,0,1-.93-.42,1.78,1.78,0,0,1-.6-1.19,2.17,2.17,0,0,1,0-.36,1.76,1.76,0,0,1,2-1.52,1.62,1.62,0,0,1,.66.23,1.71,1.71,0,0,1,.81,1,1.77,1.77,0,0,1,.05.69,1.37,1.37,0,0,1-.08.35A1.76,1.76,0,0,1,650.25,167.08Z"/><path class="cls-1" d="M655.32,175.14a1.76,1.76,0,1,1,1.52,2A1.77,1.77,0,0,1,655.32,175.14Z"/><path class="cls-1" d="M672.78,177.38a1.76,1.76,0,1,1,1.52,2A1.77,1.77,0,0,1,672.78,177.38Z"/><path class="cls-1" d="M675,159.92a1.76,1.76,0,1,1,1.52,2A1.77,1.77,0,0,1,675,159.92Z"/><path class="cls-1" d="M682.63,169.77a1.62,1.62,0,0,1,.23-.66,1.73,1.73,0,0,1,1.74-.86,1.78,1.78,0,0,1,.66.22,1.75,1.75,0,0,1,.87,1.39,1.45,1.45,0,0,1,0,.36,1.76,1.76,0,1,1-3.49-.45Z"/><path class="cls-1" d="M660.69,202.45a1.76,1.76,0,1,1,1.52,2A1.76,1.76,0,0,1,660.69,202.45Z"/><path class="cls-1" d="M650.84,210.06a1.76,1.76,0,1,1,1.52,2A1.76,1.76,0,0,1,650.84,210.06Z"/><path class="cls-1" d="M668.3,212.3a1.76,1.76,0,0,1,3.49.45,1.76,1.76,0,0,1-3.49-.45Z"/><path class="cls-1" d="M653.08,192.6a1.76,1.76,0,1,1,1.52,2A1.76,1.76,0,0,1,653.08,192.6Z"/><path class="cls-1" d="M670.54,194.84a1.76,1.76,0,0,1,3.49.45,1.76,1.76,0,1,1-3.49-.45Z"/><path class="cls-1" d="M679.32,206.58a1.76,1.76,0,0,1-1.12-1.19,1.82,1.82,0,0,1-.05-.7,1.75,1.75,0,0,1,2-1.52,1.84,1.84,0,0,1,.66.22,1.78,1.78,0,0,1,.81,1.05,1.82,1.82,0,0,1,0,.7,1.77,1.77,0,0,1-2,1.52A2,2,0,0,1,679.32,206.58Z"/><path class="cls-1" d="M662.93,185h0a1.8,1.8,0,0,1,.42-.94,1.76,1.76,0,0,1,.53-.41,1.78,1.78,0,0,1,1-.18,1.83,1.83,0,0,1,1.17.67,1.75,1.75,0,0,1,.18.29,1.85,1.85,0,0,1,.18.66,1.37,1.37,0,0,1,0,.35h0a1.76,1.76,0,1,1-3.49-.44Z"/><path class="cls-1" d="M647,184.71h0a1.69,1.69,0,0,1-.94-.42,1.76,1.76,0,0,1-.58-1.55,1.3,1.3,0,0,1,.08-.34,1.73,1.73,0,0,1,.87-1,1.74,1.74,0,0,1,2,.25,1.71,1.71,0,0,1,.59,1.19,1.38,1.38,0,0,1,0,.35,2,2,0,0,1-.08.35,1.75,1.75,0,0,1-1.89,1.17Z"/><path class="cls-1" d="M656.2,237.37a1.76,1.76,0,1,1,1.52,2A1.76,1.76,0,0,1,656.2,237.37Z"/><path class="cls-1" d="M646.35,245a1.76,1.76,0,1,1,1.52,2A1.77,1.77,0,0,1,646.35,245Z"/><path class="cls-1" d="M663.81,247.22a1.76,1.76,0,1,1,1.52,2A1.75,1.75,0,0,1,663.81,247.22Z"/><path class="cls-1" d="M648.59,227.52a1.76,1.76,0,1,1,1.52,2A1.77,1.77,0,0,1,648.59,227.52Z"/><path class="cls-1" d="M666.05,229.76a1.76,1.76,0,0,1,3.5.45,1.76,1.76,0,0,1-3.5-.45Z"/><path class="cls-1" d="M659,221.45a1.76,1.76,0,0,1-.41-.53,1.73,1.73,0,0,1-.18-1,1.79,1.79,0,0,1,.23-.66,1.75,1.75,0,0,1,1.74-.87,1.77,1.77,0,0,1,1.53,2,3.38,3.38,0,0,1-.08.34,1.76,1.76,0,0,1-1.89,1.18A1.71,1.71,0,0,1,659,221.45Z"/><path class="cls-1" d="M642.51,219.63a1.28,1.28,0,0,1-.35-.08,1.66,1.66,0,0,1-.59-.34,1.78,1.78,0,0,1-.54-.85,1.8,1.8,0,0,1,0-.7,1.77,1.77,0,0,1,2-1.52,1.67,1.67,0,0,1,.67.23,1.82,1.82,0,0,1,.81,1,1.77,1.77,0,0,1,.05.69,3.59,3.59,0,0,1-.08.35,1.85,1.85,0,0,1-.35.59,1.76,1.76,0,0,1-.53.41A1.73,1.73,0,0,1,642.51,219.63Z"/><path class="cls-1" d="M677.43,224.12a1.71,1.71,0,0,1-1.17-.67,1.75,1.75,0,0,1-.18-.29,1.81,1.81,0,0,1-.19-.65c0-.12,0-.24,0-.36h0a1.76,1.76,0,0,1,2-1.52,1.83,1.83,0,0,1,.67.22,1.89,1.89,0,0,1,.27.2,1.83,1.83,0,0,1,.54.85,2,2,0,0,1,.06.34c0,.12,0,.24,0,.36h0a1.83,1.83,0,0,1-.67,1.17,1.79,1.79,0,0,1-1.3.35Z"/><path class="cls-1" d="M649.9,288.81a1.76,1.76,0,0,1,.53-.41,1.73,1.73,0,0,1,1-.17,1.7,1.7,0,0,1,.94.42,1.78,1.78,0,0,1,.59,1.52l0,0-1.64,1.54H651a1.71,1.71,0,0,1-.94-.43,1.75,1.75,0,0,1-.59-1.54,2,2,0,0,1,.09-.35A1.66,1.66,0,0,1,649.9,288.81Z"/><path class="cls-1" d="M651.72,272.29a1.76,1.76,0,0,1,3.49.45,1.76,1.76,0,0,1-3.49-.45Z"/><path class="cls-1" d="M641.87,279.9a1.76,1.76,0,1,1,1.52,2A1.76,1.76,0,0,1,641.87,279.9Z"/><path class="cls-1" d="M661.3,280.62a1.76,1.76,0,0,1,1.46,1.25l-.89.68c-.56.44-1.11.9-1.66,1.35a1.76,1.76,0,0,1,1.09-3.28Z"/><path class="cls-1" d="M644.11,262.44a1.76,1.76,0,1,1,1.52,2A1.76,1.76,0,0,1,644.11,262.44Z"/><path class="cls-1" d="M661.57,264.68a1.76,1.76,0,1,1,1.52,2A1.76,1.76,0,0,1,661.57,264.68Z"/><path class="cls-1" d="M671.15,273a1.84,1.84,0,0,1,.66.22,1.78,1.78,0,0,1,.81,1,1.6,1.6,0,0,1,0,.54l-1.92,1.27-.45.31a2.08,2.08,0,0,1-.54-.32,1.75,1.75,0,0,1-.59-1.19,1.45,1.45,0,0,1,0-.36A1.75,1.75,0,0,1,671.15,273Z"/><path class="cls-1" d="M655.48,256.8a1.77,1.77,0,0,1-.94-.43,1.76,1.76,0,1,1,2.91-1.09,1.3,1.3,0,0,1-.08.34,1.73,1.73,0,0,1-.87,1A1.78,1.78,0,0,1,655.48,256.8Z"/><path class="cls-1" d="M638,254.56a2,2,0,0,1-.35-.09,1.66,1.66,0,0,1-.59-.34,1.76,1.76,0,0,1-.58-1.55h0a1.3,1.3,0,0,1,.08-.34,1.69,1.69,0,0,1,.59-.82,1.75,1.75,0,0,1,1.3-.36h0a1.77,1.77,0,0,1,.94.43A1.75,1.75,0,0,1,640,253h0a1.77,1.77,0,0,1-1.61,1.54Z"/><path class="cls-1" d="M671.42,257.07h0a1.84,1.84,0,0,1,.42-.94,1.68,1.68,0,0,1,.54-.41,1.8,1.8,0,0,1,.65-.18,1.45,1.45,0,0,1,.36,0,1.73,1.73,0,0,1,1.17.67,1.69,1.69,0,0,1,.3.6,1.82,1.82,0,0,1,0,.7,1.75,1.75,0,0,1-.67,1.17,1.76,1.76,0,0,1-2.82-1.62Z"/><path class="cls-1" d="M641.59,295.83a1.76,1.76,0,1,1-2,1.53A1.77,1.77,0,0,1,641.59,295.83Z"/><path class="cls-1" d="M712.19,146.94a1.76,1.76,0,1,1,1.52,2A1.76,1.76,0,0,1,712.19,146.94Z"/><path class="cls-1" d="M722,139.33a1.76,1.76,0,0,1,1-1.35,1.85,1.85,0,0,1,.66-.18,2.17,2.17,0,0,1,.36,0,1.76,1.76,0,0,1-.45,3.49A1.75,1.75,0,0,1,722,139.33Z"/><path class="cls-1" d="M700.09,172a1.76,1.76,0,1,1,1.52,2A1.76,1.76,0,0,1,700.09,172Z"/><path class="cls-1" d="M690.24,179.62a1.76,1.76,0,1,1,1.52,2A1.76,1.76,0,0,1,690.24,179.62Z"/><path class="cls-1" d="M707.7,181.86a1.76,1.76,0,1,1,3.49.45,1.76,1.76,0,1,1-3.49-.45Z"/><path class="cls-1" d="M692.48,162.16a1.76,1.76,0,0,1,2-1.52,1.76,1.76,0,1,1-.45,3.49A1.76,1.76,0,0,1,692.48,162.16Z"/><path class="cls-1" d="M709.94,164.4a1.77,1.77,0,0,1,2-1.52,1.76,1.76,0,1,1-2,1.52Z"/><path class="cls-1" d="M717.55,174.25a1.87,1.87,0,0,1,.08-.34,1.76,1.76,0,0,1,.88-1A1.76,1.76,0,0,1,721,174a1.51,1.51,0,0,1,0,.7,1.76,1.76,0,0,1-3.49-.45Z"/><path class="cls-1" d="M702.33,154.55a1.68,1.68,0,0,1,.23-.66,1.76,1.76,0,0,1,3.27,1.11,3.59,3.59,0,0,1-.08.35,1.77,1.77,0,0,1-3.42-.8Z"/><path class="cls-1" d="M686.4,154.28a1.8,1.8,0,0,1-.35-.08,2,2,0,0,1-.59-.34,2.39,2.39,0,0,1-.22-.23l1.31-.59c.3-.13.61-.26.9-.4l.9-.4a1.8,1.8,0,0,1,0,.52,3.38,3.38,0,0,1-.08.34,1.79,1.79,0,0,1-.35.6,2.15,2.15,0,0,1-.53.41A1.73,1.73,0,0,1,686.4,154.28Z"/><path class="cls-1" d="M721.32,158.76a1.7,1.7,0,0,1-.94-.42,1.37,1.37,0,0,1-.23-.25,1.73,1.73,0,0,1-.37-.94c0-.12,0-.24,0-.36h0a1.77,1.77,0,0,1,2-1.52,1.67,1.67,0,0,1,.67.23,1.31,1.31,0,0,1,.27.19,1.83,1.83,0,0,1,.54.85,2,2,0,0,1,.06.35c0,.11,0,.23,0,.35h0a1.76,1.76,0,0,1-2,1.52Z"/><path class="cls-1" d="M695.61,206.93a1.76,1.76,0,1,1,1.52,2A1.76,1.76,0,0,1,695.61,206.93Z"/><path class="cls-1" d="M685.76,214.54a1.76,1.76,0,1,1,3.49.45,1.77,1.77,0,0,1-2,1.52A1.75,1.75,0,0,1,685.76,214.54Z"/><path class="cls-1" d="M703.22,216.78a1.76,1.76,0,1,1,1.52,2A1.76,1.76,0,0,1,703.22,216.78Z"/><path class="cls-1" d="M688,197.08a1.76,1.76,0,1,1,1.52,2A1.75,1.75,0,0,1,688,197.08Z"/><path class="cls-1" d="M705.46,199.32a1.76,1.76,0,1,1,1.52,2A1.76,1.76,0,0,1,705.46,199.32Z"/><path class="cls-1" d="M714.59,211.14a1.76,1.76,0,0,1-.94-.42,1.73,1.73,0,0,1-.59-1.19,1.45,1.45,0,0,1,0-.36,1.76,1.76,0,0,1,2-1.52,1.68,1.68,0,0,1,.66.23,1.76,1.76,0,0,1,.86,1.74,2,2,0,0,1-.08.35,1.77,1.77,0,0,1-1.89,1.17Z"/><path class="cls-1" d="M699.37,191.44a1.76,1.76,0,1,1,2-1.52,1.37,1.37,0,0,1-.08.35,1.75,1.75,0,0,1-1.89,1.17Z"/><path class="cls-1" d="M682.27,189.21a2.17,2.17,0,0,1-.36,0,2,2,0,0,1-.35-.08,1.77,1.77,0,0,1-.31-.15,1.66,1.66,0,0,1-.51-.44,1.69,1.69,0,0,1-.3-.6,1.82,1.82,0,0,1-.05-.7h0a1.37,1.37,0,0,1,.08-.35,2.92,2.92,0,0,1,.14-.31,1.84,1.84,0,0,1,.45-.51,1.71,1.71,0,0,1,1.3-.35h0a1.75,1.75,0,0,1,1.52,2h0a1.73,1.73,0,0,1-.67,1.17,1.88,1.88,0,0,1-.6.3A2,2,0,0,1,682.27,189.21Z"/><path class="cls-1" d="M715.31,191.71h0a1.77,1.77,0,0,1,.42-.93,1.87,1.87,0,0,1,.54-.42,1.8,1.8,0,0,1,.65-.18,2.17,2.17,0,0,1,.36,0,1.75,1.75,0,0,1,1.17.67,1.79,1.79,0,0,1,.35,1.3,1.73,1.73,0,0,1-.67,1.17,1.69,1.69,0,0,1-1.3.35A1.76,1.76,0,0,1,715.31,191.71Z"/><path class="cls-1" d="M690.85,257.79a1.76,1.76,0,0,1-.09,3.5,1.45,1.45,0,0,1-.36,0,1.47,1.47,0,0,1-.35-.08,1.75,1.75,0,0,1-1.17-1.89,1.84,1.84,0,0,1,.22-.66A1.78,1.78,0,0,1,690.85,257.79Z"/><path class="cls-1" d="M691.12,241.85a1.77,1.77,0,0,1,2-1.52,1.76,1.76,0,1,1-2,1.52Z"/><path class="cls-1" d="M675.18,241.58a1.84,1.84,0,0,1-.66-.22,1.67,1.67,0,0,1-.5-.45,1.72,1.72,0,0,1-.31-.6,1.82,1.82,0,0,1-.05-.7,1.68,1.68,0,0,1,.23-.66,1.76,1.76,0,0,1,3.26,1.11,1.73,1.73,0,0,1-.67,1.17,1.78,1.78,0,0,1-.6.3A1.82,1.82,0,0,1,675.18,241.58Z"/><path class="cls-1" d="M681.27,249.46a1.76,1.76,0,1,1,1.52,2A1.76,1.76,0,0,1,681.27,249.46Z"/><path class="cls-1" d="M700.7,250.18a1.76,1.76,0,1,1-2,1.52A1.77,1.77,0,0,1,700.7,250.18Z"/><path class="cls-1" d="M683.51,232a1.76,1.76,0,1,1,1.52,2A1.76,1.76,0,0,1,683.51,232Z"/><path class="cls-1" d="M701,234.24a1.76,1.76,0,1,1,1.52,2A1.77,1.77,0,0,1,701,234.24Z"/><path class="cls-1" d="M710.55,242.57a1.77,1.77,0,1,1-1.3.36A1.76,1.76,0,0,1,710.55,242.57Z"/><path class="cls-1" d="M694.89,226.36a1.7,1.7,0,0,1-.94-.42,1.77,1.77,0,0,1-.59-1.55,2.25,2.25,0,0,1,.09-.35,1.66,1.66,0,0,1,.34-.59,1.76,1.76,0,0,1,.53-.41,1.73,1.73,0,0,1,1-.17,1.77,1.77,0,0,1,1.54,1.61c0,.12,0,.24,0,.36a3.59,3.59,0,0,1-.08.35,1.81,1.81,0,0,1-.88,1A1.73,1.73,0,0,1,694.89,226.36Z"/><path class="cls-1" d="M681,265.4a1.76,1.76,0,1,1-2,1.52A1.76,1.76,0,0,1,681,265.4Z"/><path class="cls-1" d="M762.08,48.64a1.78,1.78,0,0,1-1.17-.68c.67-.92,1.36-1.81,2.06-2.69a1.74,1.74,0,0,1,1.08,1.84A1.76,1.76,0,0,1,762.08,48.64Z"/><path class="cls-1" d="M770.14,55h0a1.77,1.77,0,0,1,.94.43,1.73,1.73,0,0,1,.59,1.19,1.37,1.37,0,0,1,0,.35,1.28,1.28,0,0,1-.08.35,1.71,1.71,0,0,1-.88,1,1.63,1.63,0,0,1-.65.19h-.36l-.35-.08a1.85,1.85,0,0,1-.59-.35,1.75,1.75,0,0,1-.58-1.54,1.37,1.37,0,0,1,.08-.35,1.76,1.76,0,0,1,.87-1A1.78,1.78,0,0,1,770.14,55Z"/><path class="cls-1" d="M749.72,89.64a3.59,3.59,0,0,1-.08.35,1.77,1.77,0,0,1-3.42-.8,1.68,1.68,0,0,1,.23-.66,1.76,1.76,0,0,1,3.27,1.11Z"/><path class="cls-1" d="M750,73.7a1.76,1.76,0,1,1,.45-3.49A1.76,1.76,0,1,1,750,73.7Z"/><path class="cls-1" d="M759.57,82a1.76,1.76,0,1,1-1.52-2A1.77,1.77,0,0,1,759.57,82Z"/><path class="cls-1" d="M761.81,64.57a1.76,1.76,0,1,1-1.52-2A1.77,1.77,0,0,1,761.81,64.57Z"/><path class="cls-1" d="M747.47,107.1a1.76,1.76,0,1,1-1.52-2A1.76,1.76,0,0,1,747.47,107.1Z"/><path class="cls-1" d="M737.62,114.71a1.76,1.76,0,1,1-3.49-.45,1.76,1.76,0,0,1,3.49.45Z"/><path class="cls-1" d="M755.08,117a1.76,1.76,0,1,1-1.52-2A1.76,1.76,0,0,1,755.08,117Z"/><path class="cls-1" d="M738.11,98.78c.4-1,.79-2,1.17-3.07a1.72,1.72,0,0,1,.58,1.54A1.75,1.75,0,0,1,738.11,98.78Z"/><path class="cls-1" d="M757.33,99.49a1.76,1.76,0,1,1-1.53-2A1.77,1.77,0,0,1,757.33,99.49Z"/><path class="cls-1" d="M763.41,107.37a1.77,1.77,0,0,1,1.53,1.62,1.46,1.46,0,0,1,0,.36,1.71,1.71,0,0,1-.67,1.16,1.73,1.73,0,0,1-1.3.36,1.77,1.77,0,0,1-1.52-2,2,2,0,0,1,.08-.35,1.74,1.74,0,0,1,.88-1A1.81,1.81,0,0,1,763.41,107.37Z"/><path class="cls-1" d="M739.5,141.58a1.76,1.76,0,1,1,1.52,2A1.76,1.76,0,0,1,739.5,141.58Z"/><path class="cls-1" d="M729.65,149.18a1.76,1.76,0,1,1,1.52,2A1.76,1.76,0,0,1,729.65,149.18Z"/><path class="cls-1" d="M747.11,151.43a1.76,1.76,0,1,1,1.52,2A1.76,1.76,0,0,1,747.11,151.43Z"/><path class="cls-1" d="M731.89,131.72a1.76,1.76,0,1,1,1.52,2A1.76,1.76,0,0,1,731.89,131.72Z"/><path class="cls-1" d="M749.35,134a1.76,1.76,0,1,1,1.52,2A1.76,1.76,0,0,1,749.35,134Z"/><path class="cls-1" d="M758.13,145.71a1.76,1.76,0,0,1,.8-3.41,1.66,1.66,0,0,1,.66.22,1.78,1.78,0,0,1,.81,1,1.82,1.82,0,0,1,.05.7,1.87,1.87,0,0,1-.08.34,2,2,0,0,1-.34.59,1.88,1.88,0,0,1-.25.24,1.79,1.79,0,0,1-1.3.35A2,2,0,0,1,758.13,145.71Z"/><path class="cls-1" d="M743.26,126.09a1.77,1.77,0,0,1-.94-.43,1.76,1.76,0,1,1,2.91-1.1,1.37,1.37,0,0,1-.08.35,1.76,1.76,0,0,1-.87,1A1.86,1.86,0,0,1,743.26,126.09Z"/><path class="cls-1" d="M726.16,123.85a1.45,1.45,0,0,1-.36,0,1.37,1.37,0,0,1-.35-.08,1.73,1.73,0,0,1-.31-.14,2.83,2.83,0,0,1-.28-.2h0c.33-.44.65-.89,1-1.34l.24-.32c.28-.39.57-.77.85-1.17l.27.19a1.77,1.77,0,0,1,.58,1.55h0A1.76,1.76,0,0,1,726.16,123.85Z"/><path class="cls-1" d="M759.2,126.36h0a1.7,1.7,0,0,1,.67-1.17,1.41,1.41,0,0,1,.29-.18,1.73,1.73,0,0,1,1-.17h0a1.76,1.76,0,0,1,1.52,2A1.71,1.71,0,0,1,762,128a1.75,1.75,0,0,1-2.82-1.61Z"/><path class="cls-1" d="M735,176.5a1.76,1.76,0,1,1,1.52,2A1.77,1.77,0,0,1,735,176.5Z"/><path class="cls-1" d="M725.16,184.1a1.76,1.76,0,1,1,1.52,2A1.76,1.76,0,0,1,725.16,184.1Z"/><path class="cls-1" d="M742.62,186.35a1.76,1.76,0,1,1,1.52,2A1.77,1.77,0,0,1,742.62,186.35Z"/><path class="cls-1" d="M727.4,166.64a1.76,1.76,0,1,1,1.52,2A1.77,1.77,0,0,1,727.4,166.64Z"/><path class="cls-1" d="M744.86,168.89a1.76,1.76,0,1,1,1.53,2A1.77,1.77,0,0,1,744.86,168.89Z"/><path class="cls-1" d="M738.78,161a1.71,1.71,0,0,1-.94-.43,1.75,1.75,0,0,1-.59-1.54,1.79,1.79,0,0,1,.09-.35,1.66,1.66,0,0,1,.34-.59,1.76,1.76,0,0,1,.53-.41,1.73,1.73,0,0,1,1-.18,1.71,1.71,0,0,1,.94.43,1.75,1.75,0,0,1,.59,1.54,3.59,3.59,0,0,1-.08.35,1.81,1.81,0,0,1-.88,1A1.73,1.73,0,0,1,738.78,161Z"/><path class="cls-1" d="M730.53,211.42a1.76,1.76,0,1,1,1.52,2A1.76,1.76,0,0,1,730.53,211.42Z"/><path class="cls-1" d="M720.68,219a1.76,1.76,0,1,1,1.52,2A1.76,1.76,0,0,1,720.68,219Z"/><path class="cls-1" d="M738.14,221.27a1.76,1.76,0,0,1,3.49.45,1.76,1.76,0,1,1-3.49-.45Z"/><path class="cls-1" d="M722.92,201.56a1.76,1.76,0,1,1,1.52,2A1.76,1.76,0,0,1,722.92,201.56Z"/><path class="cls-1" d="M740.38,203.81a1.76,1.76,0,1,1,1.52,2A1.77,1.77,0,0,1,740.38,203.81Z"/><path class="cls-1" d="M748,213.66a1.75,1.75,0,0,1,2-1.52,1.84,1.84,0,0,1,.66.22,1.77,1.77,0,0,1,.87,1.39,1.45,1.45,0,0,1,0,.36,1.75,1.75,0,0,1-.67,1.17,1.79,1.79,0,0,1-1.3.35A1.76,1.76,0,0,1,748,213.66Z"/><path class="cls-1" d="M734.29,195.93l-.35-.08a1.77,1.77,0,0,1-1.17-1.89,1.89,1.89,0,0,1,.22-.67,1.78,1.78,0,0,1,1.75-.86,1.77,1.77,0,0,1-.09,3.51Z"/><path class="cls-1" d="M728,244.81a1.76,1.76,0,1,1-2,1.53A1.76,1.76,0,0,1,728,244.81Z"/><path class="cls-1" d="M718.16,252.42a1.77,1.77,0,0,1,1.48,1.32c-1.12.33-2.24.67-3.35,1a1.75,1.75,0,0,1,1.87-2.35Z"/><path class="cls-1" d="M718.43,236.49a1.76,1.76,0,1,1,1.53,2A1.77,1.77,0,0,1,718.43,236.49Z"/><path class="cls-1" d="M737.86,237.21a1.76,1.76,0,1,1-2,1.52A1.76,1.76,0,0,1,737.86,237.21Z"/><path class="cls-1" d="M745.47,247.06a1.68,1.68,0,0,1,.63.21l-.67.13-1.56.32A1.76,1.76,0,0,1,745.47,247.06Z"/><path class="cls-1" d="M728.64,230.18a1.71,1.71,0,0,1-.35-1.3,1.76,1.76,0,0,1,2-1.53,1.71,1.71,0,0,1,.93.43,1.78,1.78,0,0,1,.6,1.19,2,2,0,0,1,0,.35,1.76,1.76,0,0,1-3.14.86Z"/><path class="cls-1" d="M712.35,228.6h0a1.66,1.66,0,0,1-.94-.42,1.73,1.73,0,0,1-.58-1.55,1.93,1.93,0,0,1,.22-.66,1.77,1.77,0,0,1,.73-.68,1.73,1.73,0,0,1,1-.18,1.71,1.71,0,0,1,.94.43,1.76,1.76,0,0,1,.6,1.19,2.08,2.08,0,0,1,0,.35,3.59,3.59,0,0,1-.08.35,1.77,1.77,0,0,1-.88,1A1.73,1.73,0,0,1,712.35,228.6Z"/><path class="cls-1" d="M746.33,232.67a1.79,1.79,0,0,1-.23-.25,1.69,1.69,0,0,1-.3-.6,1.5,1.5,0,0,1,0-.7,1.37,1.37,0,0,1,.08-.35,1.23,1.23,0,0,1,.14-.31,1.79,1.79,0,0,1,.2-.28,1.84,1.84,0,0,1,.25-.23,1.34,1.34,0,0,1,.28-.18,1.75,1.75,0,0,1,1-.17h0a1.7,1.7,0,0,1,.93.42,1.77,1.77,0,0,1,.59,1.55,3.38,3.38,0,0,1-.08.34,1.77,1.77,0,0,1-1.89,1.18,1.62,1.62,0,0,1-.66-.23A1.38,1.38,0,0,1,746.33,232.67Z"/><path class="cls-1" d="M801.49,18.2a1.76,1.76,0,0,1-1.41-1.1c1.07-.48,2.14-.94,3.23-1.38a1.82,1.82,0,0,1,.15,1A1.77,1.77,0,0,1,801.49,18.2Z"/><path class="cls-1" d="M788.77,57.91a1.78,1.78,0,0,1,.35,1.3,1.3,1.3,0,0,1-.08.34,1.74,1.74,0,0,1-1.89,1.18,1.84,1.84,0,0,1-.94-.42,1.78,1.78,0,0,1-.58-1.55h0a1.78,1.78,0,0,1,.22-.66,1.77,1.77,0,0,1,2.92-.19Z"/><path class="cls-1" d="M791.36,41.75a1.76,1.76,0,1,1-1.52-2A1.76,1.76,0,0,1,791.36,41.75Z"/><path class="cls-1" d="M773,40.85a1.78,1.78,0,0,1-1,.18,1.71,1.71,0,0,1-.93-.43,1.78,1.78,0,0,1-.6-1.19,2.08,2.08,0,0,1,0-.35,1.77,1.77,0,0,1,2-1.53,1.62,1.62,0,0,1,.66.23,1.74,1.74,0,0,1,.81,1.05,1.77,1.77,0,0,1,0,.69,1.28,1.28,0,0,1-.08.35A1.76,1.76,0,0,1,773,40.85Z"/><path class="cls-1" d="M781.51,49.36a1.76,1.76,0,1,1-1.52-2A1.76,1.76,0,0,1,781.51,49.36Z"/><path class="cls-1" d="M799,51.6a1.76,1.76,0,1,1-1.52-2A1.76,1.76,0,0,1,799,51.6Z"/><path class="cls-1" d="M781.78,33.42a1.76,1.76,0,1,1,2-1.52A1.77,1.77,0,0,1,781.78,33.42Z"/><path class="cls-1" d="M801.21,34.14a1.76,1.76,0,1,1-1.52-2A1.76,1.76,0,0,1,801.21,34.14Z"/><path class="cls-1" d="M791.64,25.81a1.71,1.71,0,0,1-1.17-.67,1.75,1.75,0,0,1-.36-1.3,1.78,1.78,0,0,1,1-1.35,1.73,1.73,0,0,1,1-.17,1.7,1.7,0,0,1,.94.42,1.78,1.78,0,0,1,.6,1.19c0,.12,0,.24,0,.36A1.77,1.77,0,0,1,791.64,25.81Z"/><path class="cls-1" d="M783.11,92.16a1.7,1.7,0,0,1,.94.42,1.77,1.77,0,0,1,.59,1.55,3.38,3.38,0,0,1-.08.34,1.83,1.83,0,0,1-.88,1,1.73,1.73,0,0,1-1,.17,1.76,1.76,0,0,1-1.53-2,2,2,0,0,1,.09-.35,1.66,1.66,0,0,1,.34-.59,1.76,1.76,0,0,1,.53-.41A1.73,1.73,0,0,1,783.11,92.16Z"/><path class="cls-1" d="M766.32,90.14a1.35,1.35,0,0,1,.27.2,1.78,1.78,0,0,1,.54.85,1.86,1.86,0,0,1,.06.34c0,.12,0,.23,0,.36h0a3.38,3.38,0,0,1-.08.34,1.85,1.85,0,0,1-.35.59,1.75,1.75,0,0,1-1.54.59l-.35-.08a1.83,1.83,0,0,1-.82-.59,2,2,0,0,1-.31-.61,1.77,1.77,0,0,1-.05-.69h0a1.77,1.77,0,0,1,2-1.53A1.84,1.84,0,0,1,766.32,90.14Z"/><path class="cls-1" d="M786.88,76.67a1.77,1.77,0,0,1-2,1.52,1.76,1.76,0,1,1,2-1.52Z"/><path class="cls-1" d="M767.9,72.45a1.76,1.76,0,1,1-2,1.53,1.71,1.71,0,0,1,.67-1.17,1.73,1.73,0,0,1,1.3-.36Z"/><path class="cls-1" d="M777,84.28a1.76,1.76,0,0,1-3.49-.45,1.76,1.76,0,1,1,3.49.45Z"/><path class="cls-1" d="M794.49,86.52a1.77,1.77,0,0,1-2,1.52,1.76,1.76,0,0,1,.45-3.49A1.76,1.76,0,0,1,794.49,86.52Z"/><path class="cls-1" d="M779.27,66.82a1.76,1.76,0,1,1-3.49-.45,1.76,1.76,0,0,1,3.49.45Z"/><path class="cls-1" d="M796.73,69.06a1.76,1.76,0,1,1-1.52-2A1.76,1.76,0,0,1,796.73,69.06Z"/><path class="cls-1" d="M782.39,111.59a1.76,1.76,0,1,1-1.52-2A1.76,1.76,0,0,1,782.39,111.59Z"/><path class="cls-1" d="M769.05,118.75a1.76,1.76,0,1,1,1.52,2A1.75,1.75,0,0,1,769.05,118.75Z"/><path class="cls-1" d="M786.51,121a1.76,1.76,0,1,1,1.52,2A1.76,1.76,0,0,1,786.51,121Z"/><path class="cls-1" d="M774.78,101.74a1.76,1.76,0,1,1-1.52-2A1.76,1.76,0,0,1,774.78,101.74Z"/><path class="cls-1" d="M792.25,104a1.76,1.76,0,1,1-1.53-2A1.77,1.77,0,0,1,792.25,104Z"/><path class="cls-1" d="M774.42,146.06a1.76,1.76,0,1,1,1.52,2A1.75,1.75,0,0,1,774.42,146.06Z"/><path class="cls-1" d="M764.57,153.67a1.76,1.76,0,0,1,3.49.45,1.77,1.77,0,0,1-2,1.52A1.75,1.75,0,0,1,764.57,153.67Z"/><path class="cls-1" d="M782,155.91a1.76,1.76,0,1,1,1.52,2A1.76,1.76,0,0,1,782,155.91Z"/><path class="cls-1" d="M766.81,136.21a1.76,1.76,0,1,1,1.52,2A1.76,1.76,0,0,1,766.81,136.21Z"/><path class="cls-1" d="M784.27,138.45a1.76,1.76,0,1,1,1.52,2A1.76,1.76,0,0,1,784.27,138.45Z"/><path class="cls-1" d="M792.46,149.85a1.73,1.73,0,0,1-.59-1.19,1.45,1.45,0,0,1,0-.36,1.76,1.76,0,0,1,2-1.52,1.84,1.84,0,0,1,.66.22,1.77,1.77,0,0,1,.81,1.05,1.82,1.82,0,0,1,0,.7,1.77,1.77,0,0,1-2.91,1.1Z"/><path class="cls-1" d="M778.18,130.57a2,2,0,0,1-.35-.08,1.77,1.77,0,0,1-1.17-1.89,1.84,1.84,0,0,1,.22-.66,1.76,1.76,0,1,1,1.66,2.64A1.45,1.45,0,0,1,778.18,130.57Z"/><path class="cls-1" d="M769.93,181a1.76,1.76,0,1,1,1.52,2A1.76,1.76,0,0,1,769.93,181Z"/><path class="cls-1" d="M754,180.71a1.68,1.68,0,0,1-.66-.23,1.62,1.62,0,0,1-.5-.44,1.72,1.72,0,0,1-.31-.6,1.82,1.82,0,0,1,0-.7,1.62,1.62,0,0,1,.23-.66,1.66,1.66,0,0,1,.44-.51,1.71,1.71,0,0,1,1.3-.35,1.75,1.75,0,0,1,1.52,2,1.66,1.66,0,0,1-.22.66,1.84,1.84,0,0,1-.45.51,1.78,1.78,0,0,1-.6.3A1.82,1.82,0,0,1,754,180.71Z"/><path class="cls-1" d="M760.08,188.59a1.76,1.76,0,0,1,2-1.52,1.76,1.76,0,0,1-.45,3.49A1.76,1.76,0,0,1,760.08,188.59Z"/><path class="cls-1" d="M777.54,190.83a1.77,1.77,0,0,1,2-1.52,1.76,1.76,0,1,1-2,1.52Z"/><path class="cls-1" d="M762.32,171.13a1.76,1.76,0,1,1,1.53,2A1.76,1.76,0,0,1,762.32,171.13Z"/><path class="cls-1" d="M779.78,173.37a1.76,1.76,0,1,1,1.53,2A1.77,1.77,0,0,1,779.78,173.37Z"/><path class="cls-1" d="M787.39,183.22a1.77,1.77,0,0,1,1-1.35,1.79,1.79,0,0,1,.66-.18,1.38,1.38,0,0,1,.35,0,1.76,1.76,0,1,1-2,1.52Z"/><path class="cls-1" d="M772.53,164.82a1.71,1.71,0,0,1-.35-1.3,1.75,1.75,0,0,1,2-1.52,1.7,1.7,0,0,1,.94.42,1.81,1.81,0,0,1,.6,1.19,2.17,2.17,0,0,1,0,.36,1.77,1.77,0,0,1-2,1.52A1.71,1.71,0,0,1,772.53,164.82Z"/><path class="cls-1" d="M756.24,163.25h0a1.78,1.78,0,0,1-1.53-2,1.79,1.79,0,0,1,.23-.66,1.73,1.73,0,0,1,1.74-.86,1.66,1.66,0,0,1,.67.22,1.8,1.8,0,0,1,.87,1.39,2.17,2.17,0,0,1,0,.36,3.38,3.38,0,0,1-.08.34,1.86,1.86,0,0,1-.59.83l-.29.18A1.81,1.81,0,0,1,756.24,163.25Z"/><path class="cls-1" d="M765.18,231.84a1.76,1.76,0,0,1,1.52,2,3.59,3.59,0,0,1-.08.35,1.77,1.77,0,0,1-2.83.75,1.76,1.76,0,0,1,1.39-3.07Z"/><path class="cls-1" d="M765.45,215.9a1.76,1.76,0,1,1,1.52,2A1.75,1.75,0,0,1,765.45,215.9Z"/><path class="cls-1" d="M755.6,223.51a1.76,1.76,0,1,1,3.49.45,1.77,1.77,0,0,1-2,1.52A1.75,1.75,0,0,1,755.6,223.51Z"/><path class="cls-1" d="M773.06,225.75a1.76,1.76,0,1,1,1.52,2A1.76,1.76,0,0,1,773.06,225.75Z"/><path class="cls-1" d="M757.84,206.05a1.76,1.76,0,1,1,1.52,2A1.76,1.76,0,0,1,757.84,206.05Z"/><path class="cls-1" d="M775.3,208.29a1.76,1.76,0,1,1,1.52,2A1.76,1.76,0,0,1,775.3,208.29Z"/><path class="cls-1" d="M781.62,234.25a1.85,1.85,0,0,1,.66-.18,2.17,2.17,0,0,1,.36,0,1.71,1.71,0,0,1,.93.43,1.36,1.36,0,0,1,.24.24l.18.29a1.79,1.79,0,0,1,.18.66,2.08,2.08,0,0,1,0,.35h0a1.76,1.76,0,0,1-3.49-.45h0a1.7,1.7,0,0,1,.42-.93A2,2,0,0,1,781.62,234.25Z"/><path class="cls-1" d="M782.91,218.14a1.3,1.3,0,0,1,.08-.34,1.76,1.76,0,0,1,3.24-.22,1.66,1.66,0,0,1,.12.31,1.82,1.82,0,0,1,0,.7,1.76,1.76,0,0,1-3.49-.45Z"/><path class="cls-1" d="M767.69,198.44h0a1.84,1.84,0,0,1,.42-.94,1.68,1.68,0,0,1,.54-.41,1.73,1.73,0,0,1,1-.17,1.75,1.75,0,0,1,1.17.67,1.79,1.79,0,0,1,.35,1.3,1.37,1.37,0,0,1-.08.35,1.76,1.76,0,0,1-3.41-.8Z"/><path class="cls-1" d="M751.75,198.17a2,2,0,0,1-.35-.08,2,2,0,0,1-.59-.34,1.77,1.77,0,0,1-.58-1.55,1.75,1.75,0,0,1,2-1.52,1.84,1.84,0,0,1,.66.22,1.74,1.74,0,0,1,.81,1,1.82,1.82,0,0,1,.05.7,1.3,1.3,0,0,1-.08.34,1.5,1.5,0,0,1-.34.59,2,2,0,0,1-.53.42A1.77,1.77,0,0,1,751.75,198.17Z"/><path class="cls-1" d="M755.32,239.45a1.76,1.76,0,1,1-2,1.52A1.77,1.77,0,0,1,755.32,239.45Z"/><path class="cls-1" d="M772.78,241.69a1.74,1.74,0,0,1,1.37,1l-3.32.46A1.75,1.75,0,0,1,772.78,241.69Z"/><path class="cls-1" d="M828.53,28.77a3.59,3.59,0,0,1-.08.35,1.81,1.81,0,0,1-.88,1,1.73,1.73,0,0,1-1,.17,1.7,1.7,0,0,1-.94-.42,1.76,1.76,0,1,1,2.91-1.1Z"/><path class="cls-1" d="M828.8,12.83a1.76,1.76,0,0,1,.45-3.49,1.76,1.76,0,1,1-.45,3.49Z"/><path class="cls-1" d="M819,20.44A1.76,1.76,0,0,1,819.4,17a1.76,1.76,0,0,1-.45,3.49Z"/><path class="cls-1" d="M836.41,22.68a1.76,1.76,0,0,1,.45-3.49,1.76,1.76,0,1,1-.45,3.49Z"/><path class="cls-1" d="M824,63.69a1.76,1.76,0,0,1-1.61,1.53,1.45,1.45,0,0,1-.36,0,1.37,1.37,0,0,1-.35-.08A1.76,1.76,0,1,1,824,63.69Z"/><path class="cls-1" d="M805.06,59.48a1.76,1.76,0,0,1,1.52,2,1.73,1.73,0,0,1-.67,1.17,1.69,1.69,0,0,1-.6.3,1.82,1.82,0,0,1-.7,0,1.73,1.73,0,0,1-1.17-.67,1.69,1.69,0,0,1-.3-.6,1.82,1.82,0,0,1,0-.7h0a1.73,1.73,0,0,1,.67-1.17,1.79,1.79,0,0,1,1.3-.35Z"/><path class="cls-1" d="M826.28,46.23a1.76,1.76,0,0,1-3.49-.45,1.77,1.77,0,0,1,2-1.52A1.75,1.75,0,0,1,826.28,46.23Z"/><path class="cls-1" d="M808,42.24a1.75,1.75,0,0,1,.87,1.39,1.45,1.45,0,0,1,0,.36,1.76,1.76,0,1,1-1.52-2A1.78,1.78,0,0,1,808,42.24Z"/><path class="cls-1" d="M816.43,53.84a1.76,1.76,0,0,1-3.49-.45,1.76,1.76,0,1,1,3.49.45Z"/><path class="cls-1" d="M833.89,56.08a1.76,1.76,0,0,1-3.49-.45,1.76,1.76,0,1,1,3.49.45Z"/><path class="cls-1" d="M818.67,36.38a1.76,1.76,0,0,1-3.49-.45,1.77,1.77,0,0,1,2-1.52A1.75,1.75,0,0,1,818.67,36.38Z"/><path class="cls-1" d="M836.14,38.62a1.76,1.76,0,1,1-1.53-2A1.76,1.76,0,0,1,836.14,38.62Z"/><path class="cls-1" d="M839.62,64a2.17,2.17,0,0,1,.36,0,1.76,1.76,0,0,1,1.52,2,1.37,1.37,0,0,1-.08.35,1.76,1.76,0,0,1-.87,1,1.74,1.74,0,0,1-2-.25,1.76,1.76,0,0,1,.38-2.89A1.63,1.63,0,0,1,839.62,64Z"/><path class="cls-1" d="M842.22,46.5a1.76,1.76,0,0,1,1.47,1.28,1.6,1.6,0,0,1,0,.69,1.76,1.76,0,1,1-3.49-.44,3,3,0,0,1,.08-.35,1.79,1.79,0,0,1,1.89-1.18Z"/><path class="cls-1" d="M810.64,27.47a1.75,1.75,0,0,1-1.54.58,1.37,1.37,0,0,1-.35-.08,1.75,1.75,0,0,1-1.18-1.89,3.59,3.59,0,0,1,.08-.35,1.85,1.85,0,0,1,.35-.59,1.76,1.76,0,0,1,.53-.41,1.73,1.73,0,0,1,1-.17,1.83,1.83,0,0,1,.67.22,1.89,1.89,0,0,1,.27.2,1.75,1.75,0,0,1,.59,1.55,3.59,3.59,0,0,1-.08.35A1.85,1.85,0,0,1,810.64,27.47Z"/><path class="cls-1" d="M819,97.07a1.76,1.76,0,0,1,.6,1.19,2.08,2.08,0,0,1,0,.35,1.76,1.76,0,0,1-2,1.52,1.71,1.71,0,0,1-1.17-.67,1.68,1.68,0,0,1-.35-1.3,1.76,1.76,0,0,1,2-1.52A1.71,1.71,0,0,1,819,97.07Z"/><path class="cls-1" d="M801.24,94.62a1.76,1.76,0,0,1,.86,1.75,3.59,3.59,0,0,1-.08.35,1.89,1.89,0,0,1-.59.82,1.75,1.75,0,0,1-.29.18,1.73,1.73,0,0,1-1,.17h0a1.7,1.7,0,0,1-.94-.42,1.78,1.78,0,0,1-.59-1.55,1.85,1.85,0,0,1,.23-.66,1.77,1.77,0,0,1,1.74-.86A1.83,1.83,0,0,1,801.24,94.62Z"/><path class="cls-1" d="M821.8,81.15a1.76,1.76,0,1,1-1.52-2A1.77,1.77,0,0,1,821.8,81.15Z"/><path class="cls-1" d="M803.48,77.16a1.78,1.78,0,0,1,.81,1,1.82,1.82,0,0,1,.05.7,1.75,1.75,0,0,1-.67,1.17,1.79,1.79,0,0,1-1.3.35,1.37,1.37,0,0,1-.35-.08,1.76,1.76,0,0,1-1.12-1.19,1.82,1.82,0,0,1,0-.7,1.76,1.76,0,0,1,2-1.52A1.84,1.84,0,0,1,803.48,77.16Z"/><path class="cls-1" d="M812,88.76a1.76,1.76,0,1,1-1.52-2A1.76,1.76,0,0,1,812,88.76Z"/><path class="cls-1" d="M829.41,91a1.76,1.76,0,1,1-1.52-2A1.77,1.77,0,0,1,829.41,91Z"/><path class="cls-1" d="M814.19,71.3a1.76,1.76,0,1,1-1.52-2A1.75,1.75,0,0,1,814.19,71.3Z"/><path class="cls-1" d="M831.65,73.54a1.76,1.76,0,1,1-1.52-2A1.76,1.76,0,0,1,831.65,73.54Z"/><path class="cls-1" d="M835.5,98.88h0a1.71,1.71,0,0,1,.93.43,1.74,1.74,0,0,1,.59,1.54,3,3,0,0,1-.08.35,1.76,1.76,0,0,1-3.41-.79,1.37,1.37,0,0,1,.08-.35,1.66,1.66,0,0,1,.34-.59,1.78,1.78,0,0,1,1.55-.59Z"/><path class="cls-1" d="M813.82,115.62a1.76,1.76,0,1,1,3.49.45,1.76,1.76,0,0,1-3.49-.45Z"/><path class="cls-1" d="M797.88,115.35a1.84,1.84,0,0,1-.66-.22,1.67,1.67,0,0,1-.5-.45,1.72,1.72,0,0,1-.31-.6,1.82,1.82,0,0,1,0-.7,1.68,1.68,0,0,1,.23-.66,1.76,1.76,0,0,1,3.26,1.11,1.66,1.66,0,0,1-.22.66,1.84,1.84,0,0,1-.45.51,1.61,1.61,0,0,1-.6.3A1.82,1.82,0,0,1,797.88,115.35Z"/><path class="cls-1" d="M804,123.23a1.77,1.77,0,0,1,2-1.52,1.76,1.76,0,1,1-2,1.52Z"/><path class="cls-1" d="M821.43,125.48a1.76,1.76,0,1,1,1.52,2A1.77,1.77,0,0,1,821.43,125.48Z"/><path class="cls-1" d="M809.71,106.22a1.76,1.76,0,1,1-1.53-2A1.76,1.76,0,0,1,809.71,106.22Z"/><path class="cls-1" d="M823.67,108a1.76,1.76,0,1,1,1.53,2A1.77,1.77,0,0,1,823.67,108Z"/><path class="cls-1" d="M831.28,117.87a1.77,1.77,0,0,1,2-1.53h0a1.76,1.76,0,1,1-2,1.53Z"/><path class="cls-1" d="M809.34,150.54a1.76,1.76,0,1,1,1.52,2A1.76,1.76,0,0,1,809.34,150.54Z"/><path class="cls-1" d="M799.49,158.15a1.76,1.76,0,1,1,1.52,2A1.76,1.76,0,0,1,799.49,158.15Z"/><path class="cls-1" d="M817,160.4a1.76,1.76,0,1,1,1.52,2A1.76,1.76,0,0,1,817,160.4Z"/><path class="cls-1" d="M801.73,140.69a1.76,1.76,0,0,1,3.49.45,1.76,1.76,0,1,1-3.49-.45Z"/><path class="cls-1" d="M819.19,142.94a1.76,1.76,0,1,1,1.52,2A1.77,1.77,0,0,1,819.19,142.94Z"/><path class="cls-1" d="M826.8,152.79a1.37,1.37,0,0,1,.08-.35,1.76,1.76,0,0,1,.87-1,1.86,1.86,0,0,1,1-.18,1.77,1.77,0,0,1,1.53,1.62,1.46,1.46,0,0,1,0,.36,1.71,1.71,0,0,1-.67,1.16,1.75,1.75,0,0,1-2.82-1.61Z"/><path class="cls-1" d="M811.58,133.08h0a1.77,1.77,0,0,1,.42-.93,1.68,1.68,0,0,1,.54-.41,1.73,1.73,0,0,1,1-.18,1.76,1.76,0,0,1,1.52,2,1.76,1.76,0,0,1-2,1.52A1.76,1.76,0,0,1,811.58,133.08Z"/><path class="cls-1" d="M795.64,132.81a1.76,1.76,0,0,1-.56-3.32,1.8,1.8,0,0,1,.65-.18,1.45,1.45,0,0,1,.36,0,1.84,1.84,0,0,1,.66.22,1.77,1.77,0,0,1,.81,1.05,1.82,1.82,0,0,1,.05.7,1.37,1.37,0,0,1-.08.35,1.75,1.75,0,0,1-1.89,1.17Z"/><path class="cls-1" d="M804.85,185.46a1.76,1.76,0,1,1,1.52,2A1.77,1.77,0,0,1,804.85,185.46Z"/><path class="cls-1" d="M795,193.07a1.76,1.76,0,1,1,3.49.45,1.76,1.76,0,0,1-3.49-.45Z"/><path class="cls-1" d="M812.46,195.32a1.76,1.76,0,1,1,1.52,2A1.77,1.77,0,0,1,812.46,195.32Z"/><path class="cls-1" d="M797.24,175.61a1.76,1.76,0,1,1,1.53,2A1.77,1.77,0,0,1,797.24,175.61Z"/><path class="cls-1" d="M814.7,177.86a1.76,1.76,0,1,1,1.53,2A1.77,1.77,0,0,1,814.7,177.86Z"/><path class="cls-1" d="M823.49,189.6a1.76,1.76,0,0,1,.79-3.41,1.71,1.71,0,0,1,.67.22,1.76,1.76,0,0,1,.86,1.75,1.89,1.89,0,0,1-.09.34,1.66,1.66,0,0,1-.34.59,1.74,1.74,0,0,1-1.55.59A1.87,1.87,0,0,1,823.49,189.6Z"/><path class="cls-1" d="M808.62,170a1.77,1.77,0,0,1-1.52-2,1.76,1.76,0,0,1,3.49.45,3.59,3.59,0,0,1-.08.35,1.74,1.74,0,0,1-.88,1A1.81,1.81,0,0,1,808.62,170Z"/><path class="cls-1" d="M791.16,167.73a1.78,1.78,0,0,1-.66-.22,2,2,0,0,1-.28-.2,1.79,1.79,0,0,1-.23-.25,1.69,1.69,0,0,1-.3-.6,1.5,1.5,0,0,1-.05-.7,1.3,1.3,0,0,1,.08-.34,1.62,1.62,0,0,1,.34-.6,2.15,2.15,0,0,1,.53-.41,1.75,1.75,0,0,1,1-.17h0a1.77,1.77,0,0,1,.93.42,1.75,1.75,0,0,1,.54.85,1.82,1.82,0,0,1,0,.7,3.59,3.59,0,0,1-.08.35,1.76,1.76,0,0,1-1.89,1.17Z"/><path class="cls-1" d="M824.56,170.25h0a1.73,1.73,0,0,1,.42-.94,1.37,1.37,0,0,1,.25-.23,1.67,1.67,0,0,1,.28-.18,1.83,1.83,0,0,1,1-.18h0a1.71,1.71,0,0,1,.93.43,1.09,1.09,0,0,1,.23.25,1.34,1.34,0,0,1,.18.28,1.68,1.68,0,0,1,.19.66,2.2,2.2,0,0,1,0,.36h0a1.76,1.76,0,0,1-3.49-.45Z"/><path class="cls-1" d="M798.55,236.91a1.78,1.78,0,0,1,1.55-.59,1.71,1.71,0,0,1,.93.43,1.74,1.74,0,0,1-.26,2.82l-1.48.16a1.62,1.62,0,0,1-.58-.34,1.75,1.75,0,0,1-.58-1.54,1.37,1.37,0,0,1,.08-.35A1.66,1.66,0,0,1,798.55,236.91Z"/><path class="cls-1" d="M800.37,220.39a1.76,1.76,0,1,1,1.52,2A1.77,1.77,0,0,1,800.37,220.39Z"/><path class="cls-1" d="M792.49,226.47a1.77,1.77,0,0,1,1.52,2,1.76,1.76,0,1,1-1.52-2Z"/><path class="cls-1" d="M810,228.71a1.76,1.76,0,1,1-2,1.53A1.77,1.77,0,0,1,810,228.71Z"/><path class="cls-1" d="M792.76,210.53a1.76,1.76,0,0,1,3.49.45,1.76,1.76,0,1,1-3.49-.45Z"/><path class="cls-1" d="M810.22,212.78a1.76,1.76,0,1,1,1.52,2A1.77,1.77,0,0,1,810.22,212.78Z"/><path class="cls-1" d="M818.5,221.46a1.71,1.71,0,0,1,1.3-.35,1.76,1.76,0,0,1,1.52,2,1.73,1.73,0,0,1-.67,1.17,1.88,1.88,0,0,1-.6.3,1.82,1.82,0,0,1-.7,0,1.68,1.68,0,0,1-.66-.23,1.66,1.66,0,0,1-.51-.44,1.69,1.69,0,0,1-.3-.6,1.82,1.82,0,0,1,0-.7,1.78,1.78,0,0,1,.22-.66A1.84,1.84,0,0,1,818.5,221.46Z"/><path class="cls-1" d="M804.13,204.9a1.77,1.77,0,0,1-.94-.43,1.75,1.75,0,0,1-.58-1.54,1.76,1.76,0,1,1,3.49.44,1.37,1.37,0,0,1-.08.35,1.76,1.76,0,0,1-.87,1A1.78,1.78,0,0,1,804.13,204.9Z"/><path class="cls-1" d="M786.67,202.65h0a1.76,1.76,0,0,1-.94-.42,1.84,1.84,0,0,1-.23-.25,1.8,1.8,0,0,1-.36-.94,2.17,2.17,0,0,1,0-.36h0a1.68,1.68,0,0,1,.23-.66,1.76,1.76,0,0,1,1.74-.86,1.62,1.62,0,0,1,.66.23,1.72,1.72,0,0,1,.81,1,1.82,1.82,0,0,1,0,.7h0a1.75,1.75,0,0,1-1.61,1.53A1.45,1.45,0,0,1,786.67,202.65Z"/><path class="cls-1" d="M821.59,207.14a1.77,1.77,0,0,1-1.52-2,1.62,1.62,0,0,1,.23-.66,1.73,1.73,0,0,1,1.74-.86,1.61,1.61,0,0,1,.66.22,1.75,1.75,0,0,1,.87,1.39,1.45,1.45,0,0,1,0,.36,1.3,1.3,0,0,1-.08.34,1.72,1.72,0,0,1-.59.83,1.78,1.78,0,0,1-1.3.35Z"/><path class="cls-1" d="M838.4,81.65a1.74,1.74,0,0,1,.81,1,1.77,1.77,0,0,1,0,.69,1.8,1.8,0,0,1-.08.35,1.79,1.79,0,0,1-1.89,1.18,1.77,1.77,0,0,1-.94-.43,1.73,1.73,0,0,1-.59-1.19,1.38,1.38,0,0,1,0-.35,1.76,1.76,0,0,1,2-1.53A1.68,1.68,0,0,1,838.4,81.65Z"/><path class="cls-1" d="M838.89,127.72a1.76,1.76,0,1,1,1.52,2A1.76,1.76,0,0,1,838.89,127.72Z"/><path class="cls-1" d="M841.13,110.26a1.76,1.76,0,1,1,1.53,2A1.76,1.76,0,0,1,841.13,110.26Z"/><path class="cls-1" d="M834.41,162.64a1.76,1.76,0,1,1,3.49.45,1.76,1.76,0,0,1-3.49-.45Z"/><path class="cls-1" d="M836.65,145.18a1.76,1.76,0,1,1,1.52,2A1.77,1.77,0,0,1,836.65,145.18Z"/><path class="cls-1" d="M830.56,137.3l-.35-.08a1.89,1.89,0,0,1-.82-.59,1.93,1.93,0,0,1-.3-.61,1.77,1.77,0,0,1-.05-.69h0a1.89,1.89,0,0,1,.22-.67,1.75,1.75,0,0,1,2.41-.63,1.74,1.74,0,0,1,.81,1.05,1.77,1.77,0,0,1,0,.69h0a1.3,1.3,0,0,1-.08.34,1.66,1.66,0,0,1-.34.59,1.78,1.78,0,0,1-1.19.6A2.17,2.17,0,0,1,830.56,137.3Z"/><path class="cls-1" d="M839.77,190a1.76,1.76,0,1,1,1.53,2A1.76,1.76,0,0,1,839.77,190Z"/><path class="cls-1" d="M829.92,197.56a1.76,1.76,0,0,1,2-1.52,1.76,1.76,0,1,1-.45,3.49A1.76,1.76,0,0,1,829.92,197.56Z"/><path class="cls-1" d="M832.16,180.1a1.76,1.76,0,1,1,1.53,2A1.76,1.76,0,0,1,832.16,180.1Z"/><path class="cls-1" d="M837.26,223.35a1.76,1.76,0,1,1-2,1.52A1.76,1.76,0,0,1,837.26,223.35Z"/><path class="cls-1" d="M827.41,231a1.76,1.76,0,1,1-2,1.52A1.76,1.76,0,0,1,827.41,231Z"/><path class="cls-1" d="M827.68,215a1.76,1.76,0,1,1,1.52,2A1.76,1.76,0,0,1,827.68,215Z"/><path class="cls-1" d="M837.88,208.71a1.79,1.79,0,0,1-.35-1.3,1.68,1.68,0,0,1,.23-.66,1.75,1.75,0,1,1,.12,2Z"/><path class="cls-2" d="M-67.65,308.82c3.29,0,24.08-3.35,52.46-34.1S32.88,236.26,72.29,234s66.05-8.41,98.43-41.36c37.66-38.34,81.84-63.77,140-40.38,65.23,26.22,128.53,142,165.8,155Z"/><path class="cls-3" d="M274.92,169.22c90.51-.11,108,70,192.33,60.55s83.8-59.86,162.55-31.84c55.92,19.89,117.63,17.59,147.31-41.77S818.37,49.3,859,50.5V320.41L88,320.13S156,169.36,274.92,169.22Z"/></svg>