<?xml version="1.0" encoding="UTF-8" standalone="no"?>
<svg
   xmlns:dc="http://purl.org/dc/elements/1.1/"
   xmlns:cc="http://creativecommons.org/ns#"
   xmlns:rdf="http://www.w3.org/1999/02/22-rdf-syntax-ns#"
   xmlns:svg="http://www.w3.org/2000/svg"
   xmlns="http://www.w3.org/2000/svg"
   xmlns:sodipodi="http://sodipodi.sourceforge.net/DTD/sodipodi-0.dtd"
   xmlns:inkscape="http://www.inkscape.org/namespaces/inkscape"
   id="PRINT"
   viewBox="0 0 841.89 297.64"
   version="1.1"
   sodipodi:docname="bottom_Mesa de trabajo 2.svg"
   inkscape:version="1.0.2-2 (e86c870879, 2021-01-15)">
  <metadata
     id="metadata917">
    <rdf:RDF>
      <cc:Work
         rdf:about="">
        <dc:format>image/svg+xml</dc:format>
        <dc:type
           rdf:resource="http://purl.org/dc/dcmitype/StillImage" />
        <dc:title>bottom</dc:title>
      </cc:Work>
    </rdf:RDF>
  </metadata>
  <sodipodi:namedview
     pagecolor="#ffffff"
     bordercolor="#666666"
     borderopacity="1"
     objecttolerance="10"
     gridtolerance="10"
     guidetolerance="10"
     inkscape:pageopacity="0"
     inkscape:pageshadow="2"
     inkscape:window-width="1202"
     inkscape:window-height="780"
     id="namedview915"
     showgrid="false"
     inkscape:zoom="1.4431814"
     inkscape:cx="522.18461"
     inkscape:cy="192.01162"
     inkscape:window-x="50"
     inkscape:window-y="40"
     inkscape:window-maximized="0"
     inkscape:current-layer="PRINT" />
  <defs
     id="defs4">
    <style
       id="style2">.cls-1{fill:#fff;}.cls-2{fill:#eec13f;opacity:0.3;}.cls-3{fill:#efc4c0;}</style>
  </defs>
  <title
     id="title6">bottom</title>
  <path
     class="cls-1"
     d="m 258.62,326.91025 a 1.76,1.76 0 1 1 1.52,2 1.77,1.77 0 0 1 -1.52,-2 z"
     id="path8" />
  <path
     class="cls-1"
     d="m 268.47,319.30025 a 1.764405,1.764405 0 0 1 3.5,0.45 1.764405,1.764405 0 0 1 -3.5,-0.45 z"
     id="path10" />
  <path
     class="cls-1"
     d="m 276.08,329.11025 a 3.59,3.59 0 0 1 0.08,-0.35 1.77,1.77 0 0 1 0.88,-1 1.76,1.76 0 0 1 2.48,1.1 1.5,1.5 0 0 1 0.05,0.7 1.76,1.76 0 0 1 -3.49,-0.45 z"
     id="path12" />
  <path
     class="cls-1"
     d="m 298.85,298.19025 c 0.81,-0.21 1.63,-0.42 2.45,-0.61 a 1.77,1.77 0 0 1 -1.75,0.86 1.68,1.68 0 0 1 -0.7,-0.25 z"
     id="path14" />
  <path
     class="cls-1"
     d="m 288.18,304.11025 a 1.76,1.76 0 0 1 3.49,0.45 1.77,1.77 0 0 1 -2,1.52 1.75,1.75 0 0 1 -1.49,-1.97 z"
     id="path16" />
  <path
     class="cls-1"
     d="m 305.64,306.32025 a 1.76,1.76 0 1 1 1.52,2 1.76,1.76 0 0 1 -1.52,-2 z"
     id="path18" />
  <path
     class="cls-1"
     d="m 316.66,300.60025 a 1.76,1.76 0 0 1 -1.12,-1.19 1.82,1.82 0 0 1 -0.05,-0.7 1.76,1.76 0 0 1 2,-1.52 1.68,1.68 0 0 1 0.66,0.23 1.72,1.72 0 0 1 0.81,1 1.83,1.83 0 0 1 0.05,0.7 2,2 0 0 1 -0.08,0.35 1.82,1.82 0 0 1 -0.34,0.59 1.78,1.78 0 0 1 -1.55,0.58 1.37,1.37 0 0 1 -0.38,-0.04 z"
     id="path20" />
  <path
     class="cls-1"
     d="m 293.54,331.39025 a 1.77,1.77 0 0 1 2,-1.52 1.76,1.76 0 1 1 -2,1.52 z"
     id="path22" />
  <path
     class="cls-1"
     d="m 285.93,321.54025 a 1.76,1.76 0 1 1 1.53,2 1.76,1.76 0 0 1 -1.53,-2 z"
     id="path24" />
  <path
     class="cls-1"
     d="m 303.39,323.78025 a 1.76,1.76 0 1 1 1.53,2 1.77,1.77 0 0 1 -1.53,-2 z"
     id="path26" />
  <path
     class="cls-1"
     d="m 295.79,313.93025 v 0 a 1.69,1.69 0 0 1 0.42,-0.94 1.75,1.75 0 0 1 1.55,-0.58 1.71,1.71 0 0 1 1.16,0.67 1.75,1.75 0 0 1 0.36,1.3 1.76,1.76 0 0 1 -2,1.52 1.75,1.75 0 0 1 -1.49,-1.97 z"
     id="path28" />
  <path
     class="cls-1"
     d="m 279.85,313.66025 v 0 a 1.74,1.74 0 0 1 -1.53,-1.61 1.45,1.45 0 0 1 0,-0.36 1.75,1.75 0 0 1 2,-1.52 1.76,1.76 0 0 1 1.53,2 3.38,3.38 0 0 1 -0.08,0.34 1.79,1.79 0 0 1 -0.88,1 1.73,1.73 0 0 1 -1.04,0.15 z"
     id="path30" />
  <path
     class="cls-1"
     d="m 333,300.96025 a 1.76,1.76 0 1 1 1.52,2 1.76,1.76 0 0 1 -1.52,-2 z"
     id="path32" />
  <path
     class="cls-1"
     d="m 323.1,308.56025 a 1.76,1.76 0 1 1 1.52,2 1.76,1.76 0 0 1 -1.52,-2 z"
     id="path34" />
  <path
     class="cls-1"
     d="m 340.56,310.81025 a 1.76,1.76 0 1 1 1.52,2 1.76,1.76 0 0 1 -1.52,-2 z"
     id="path36" />
  <path
     class="cls-1"
     d="m 342.8,293.35025 a 1.73,1.73 0 0 1 0.7,-1.19 l 1.91,-0.12 a 1.76,1.76 0 1 1 -2.61,1.31 z"
     id="path38" />
  <path
     class="cls-1"
     d="m 351,304.74025 a 1.71,1.71 0 0 1 -0.59,-1.19 1.38,1.38 0 0 1 0,-0.35 1.75,1.75 0 0 1 2,-1.52 1.84,1.84 0 0 1 0.66,0.22 1.74,1.74 0 0 1 0.81,1 1.82,1.82 0 0 1 0,0.7 1.75,1.75 0 0 1 -0.67,1.17 1.79,1.79 0 0 1 -1.3,0.35 1.77,1.77 0 0 1 -0.91,-0.38 z"
     id="path40" />
  <path
     class="cls-1"
     d="m 320.85,326.03025 a 1.76,1.76 0 1 1 1.53,2 1.77,1.77 0 0 1 -1.53,-2 z"
     id="path42" />
  <path
     class="cls-1"
     d="m 338.31,328.27025 a 1.76,1.76 0 1 1 1.53,2 1.76,1.76 0 0 1 -1.53,-2 z"
     id="path44" />
  <path
     class="cls-1"
     d="m 332.23,320.39025 a 1.77,1.77 0 0 1 -1.52,-2 1.76,1.76 0 1 1 3.49,0.44 3.59,3.59 0 0 1 -0.08,0.35 1.71,1.71 0 0 1 -0.88,1 1.73,1.73 0 0 1 -1.01,0.21 z"
     id="path46" />
  <path
     class="cls-1"
     d="m 314.77,318.11025 v 0 a 1.37,1.37 0 0 1 -0.35,-0.08 1.74,1.74 0 0 1 -0.82,-0.59 1.68,1.68 0 0 1 -0.35,-1.3 v 0 a 1.66,1.66 0 0 1 0.22,-0.66 1.77,1.77 0 0 1 1.75,-0.86 1.68,1.68 0 0 1 0.66,0.23 1.77,1.77 0 0 1 0.87,1.39 2.08,2.08 0 0 1 0,0.35 v 0 a 1.77,1.77 0 0 1 -0.67,1.17 1.71,1.71 0 0 1 -0.95,0.36 1.38,1.38 0 0 1 -0.36,-0.01 z"
     id="path48" />
  <path
     class="cls-1"
     d="m 349,322.40025 a 1.66,1.66 0 0 1 -0.51,-0.44 1.69,1.69 0 0 1 -0.3,-0.6 1.64,1.64 0 0 1 -0.05,-0.7 1.78,1.78 0 0 1 0.22,-0.66 1.73,1.73 0 0 1 0.73,-0.69 1.76,1.76 0 0 1 1,-0.17 v 0 a 1.76,1.76 0 0 1 1.47,1.27 1.82,1.82 0 0 1 0.05,0.7 3.38,3.38 0 0 1 -0.08,0.34 1.76,1.76 0 0 1 -1.89,1.18 1.62,1.62 0 0 1 -0.64,-0.23 z"
     id="path50" />
  <path
     class="cls-1"
     d="m 367.87,305.44025 a 1.76,1.76 0 1 1 1.52,2 1.76,1.76 0 0 1 -1.52,-2 z"
     id="path52" />
  <path
     class="cls-1"
     d="m 358,313.05025 a 1.76,1.76 0 1 1 1.52,2 1.75,1.75 0 0 1 -1.52,-2 z"
     id="path54" />
  <path
     class="cls-1"
     d="m 375.48,315.29025 a 1.76,1.76 0 1 1 1.52,2 1.76,1.76 0 0 1 -1.52,-2 z"
     id="path56" />
  <path
     class="cls-1"
     d="m 360.26,295.59025 a 1.76,1.76 0 1 1 1.52,2 1.76,1.76 0 0 1 -1.52,-2 z"
     id="path58" />
  <path
     class="cls-1"
     d="m 379.24,299.80025 a 1.76,1.76 0 1 1 2,-1.52 1.76,1.76 0 0 1 -2,1.52 z"
     id="path60" />
  <path
     class="cls-1"
     d="m 385.33,307.68025 a 1.3,1.3 0 0 1 0.08,-0.34 1.74,1.74 0 0 1 1.89,-1.18 1.84,1.84 0 0 1 0.94,0.42 1.75,1.75 0 0 1 0.59,1.2 1.38,1.38 0 0 1 0,0.35 1.73,1.73 0 0 1 -0.67,1.17 1.71,1.71 0 0 1 -1.3,0.35 1.76,1.76 0 0 1 -1.53,-1.97 z"
     id="path62" />
  <path
     class="cls-1"
     d="m 355.77,330.51025 a 1.76,1.76 0 1 1 1.53,2 1.76,1.76 0 0 1 -1.53,-2 z"
     id="path64" />
  <path
     class="cls-1"
     d="m 373.24,332.75025 a 1.76,1.76 0 1 1 1.52,2 1.76,1.76 0 0 1 -1.52,-2 z"
     id="path66" />
  <path
     class="cls-1"
     d="m 366,324.20025 a 1.71,1.71 0 0 1 -0.35,-1.3 1.84,1.84 0 0 1 0.22,-0.66 1.76,1.76 0 1 1 1.3,2.63 1.73,1.73 0 0 1 -1.17,-0.67 z"
     id="path68" />
  <path
     class="cls-1"
     d="m 416.4,286.83025 a 1.76,1.76 0 1 1 2,-1.53 1.77,1.77 0 0 1 -2,1.53 z"
     id="path70" />
  <path
     class="cls-1"
     d="m 402.79,309.92025 a 1.76,1.76 0 1 1 1.52,2 1.76,1.76 0 0 1 -1.52,-2 z"
     id="path72" />
  <path
     class="cls-1"
     d="m 392.94,317.53025 a 1.76,1.76 0 1 1 1.52,2 1.76,1.76 0 0 1 -1.52,-2 z"
     id="path74" />
  <path
     class="cls-1"
     d="m 410.4,319.78025 a 1.76,1.76 0 1 1 1.52,2 1.76,1.76 0 0 1 -1.52,-2 z"
     id="path76" />
  <path
     class="cls-1"
     d="m 396.7,302.04025 a 1.76,1.76 0 1 1 2,-1.52 1.76,1.76 0 0 1 -2,1.52 z"
     id="path78" />
  <path
     class="cls-1"
     d="m 416.13,302.76025 a 1.76,1.76 0 1 1 -1.52,-2 1.76,1.76 0 0 1 1.52,2 z"
     id="path80" />
  <path
     class="cls-1"
     d="m 421.11,313.91025 a 1.7,1.7 0 0 1 -0.81,-1.05 1.76,1.76 0 0 1 3.39,-0.94 1.82,1.82 0 0 1 0.05,0.7 1.76,1.76 0 0 1 -2,1.52 1.68,1.68 0 0 1 -0.63,-0.23 z"
     id="path82" />
  <path
     class="cls-1"
     d="m 406.55,294.44025 a 1.77,1.77 0 0 1 -1.52,-2 v 0 a 1.71,1.71 0 0 1 0.43,-0.93 1.64,1.64 0 0 1 0.54,-0.4 1.73,1.73 0 0 1 1,-0.18 1.77,1.77 0 0 1 1.17,0.67 1.75,1.75 0 0 1 0.18,0.29 1.62,1.62 0 0 1 0.18,0.66 1.38,1.38 0 0 1 0,0.35 v 0 a 1.76,1.76 0 0 1 -1.98,1.54 z"
     id="path84" />
  <path
     class="cls-1"
     d="m 390.64,291.61025 a 1.75,1.75 0 0 1 -1.55,0.58 1.3,1.3 0 0 1 -0.34,-0.08 1.5,1.5 0 0 1 -0.59,-0.34 1.71,1.71 0 0 1 -0.54,-0.85 1.82,1.82 0 0 1 -0.05,-0.7 1.76,1.76 0 0 1 2,-1.52 1.62,1.62 0 0 1 0.66,0.23 1.72,1.72 0 0 1 0.81,1 1.82,1.82 0 0 1 0.05,0.7 1.37,1.37 0 0 1 -0.08,0.35 1.66,1.66 0 0 1 -0.37,0.63 z"
     id="path86" />
  <path
     class="cls-1"
     d="m 400.55,327.39025 a 1.83,1.83 0 0 1 0.22,-0.67 1.76,1.76 0 0 1 3.27,1.11 2,2 0 0 1 -0.08,0.35 1.78,1.78 0 0 1 -1.89,1.18 1.76,1.76 0 0 1 -1.52,-1.97 z"
     id="path88" />
  <path
     class="cls-1"
     d="m 384.61,327.11025 a 1.76,1.76 0 1 1 0.45,-3.49 v 0 a 1.76,1.76 0 0 1 1.52,2 2,2 0 0 1 -0.08,0.35 1.76,1.76 0 0 1 -1.89,1.17 z"
     id="path90" />
  <path
     class="cls-1"
     d="m 418.36,330.93025 a 1.71,1.71 0 0 1 -0.35,-1.3 v 0 a 1.75,1.75 0 0 1 0.95,-1.35 1.66,1.66 0 0 1 0.66,-0.18 1.45,1.45 0 0 1 0.36,0 1.84,1.84 0 0 1 0.66,0.22 1.35,1.35 0 0 1 0.27,0.2 1.71,1.71 0 0 1 0.54,0.85 1.86,1.86 0 0 1 0.06,0.34 2.17,2.17 0 0 1 0,0.36 v 0 a 1.76,1.76 0 0 1 -2,1.52 1.79,1.79 0 0 1 -1.15,-0.66 z"
     id="path92" />
  <path
     class="cls-1"
     d="m 455.81,262.39025 a 1.76,1.76 0 1 1 2,-1.52 1.75,1.75 0 0 1 -2,1.52 z"
     id="path94" />
  <path
     class="cls-1"
     d="m 463.51,268.74025 a 1.45,1.45 0 0 1 0.36,0 1.77,1.77 0 0 1 0.93,0.42 1.81,1.81 0 0 1 0.6,1.19 2.17,2.17 0 0 1 0,0.36 v 0 a 1.76,1.76 0 0 1 -3.14,0.85 1.69,1.69 0 0 1 -0.35,-1.3 v 0 a 1.76,1.76 0 0 1 1,-1.35 1.85,1.85 0 0 1 0.6,-0.17 z"
     id="path96" />
  <path
     class="cls-1"
     d="m 443.44,297.40025 a 1.47,1.47 0 0 1 -0.08,0.35 1.79,1.79 0 0 1 -0.87,1 1.75,1.75 0 0 1 -1,0.17 1.76,1.76 0 0 1 0.45,-3.49 1.75,1.75 0 0 1 1.5,1.97 z"
     id="path98" />
  <path
     class="cls-1"
     d="m 425.12,293.41025 a 1.42,1.42 0 0 1 0.28,0.2 1.76,1.76 0 0 1 0.53,0.85 1.64,1.64 0 0 1 0.05,0.7 v 0 a 1.71,1.71 0 0 1 -0.67,1.16 1.73,1.73 0 0 1 -0.94,0.37 2.17,2.17 0 0 1 -0.36,0 v 0 a 1.87,1.87 0 0 1 -0.34,-0.08 1.65,1.65 0 0 1 -0.59,-0.35 2,2 0 0 1 -0.42,-0.53 1.79,1.79 0 0 1 -0.18,-0.66 2.08,2.08 0 0 1 0,-0.35 v 0 a 2,2 0 0 1 0.08,-0.35 1.77,1.77 0 0 1 1.89,-1.17 1.61,1.61 0 0 1 0.67,0.21 z"
     id="path100" />
  <path
     class="cls-1"
     d="m 445.69,279.94025 a 1.76,1.76 0 1 1 -1.53,-2 1.77,1.77 0 0 1 1.53,2 z"
     id="path102" />
  <path
     class="cls-1"
     d="m 426.26,285.22025 -0.35,-0.08 a 1.79,1.79 0 0 1 -1.13,-1.19 c 0.59,-0.29 1.17,-0.6 1.75,-0.91 0.58,-0.31 0.87,-0.45 1.3,-0.69 a 1.78,1.78 0 0 1 0.35,0.65 1.8,1.8 0 0 1 0.05,0.7 1.77,1.77 0 0 1 -1.97,1.52 z"
     id="path104" />
  <path
     class="cls-1"
     d="m 435.83,287.55025 a 1.76,1.76 0 1 1 -1.52,-2 1.76,1.76 0 0 1 1.52,2 z"
     id="path106" />
  <path
     class="cls-1"
     d="m 453.3,289.79025 a 1.76,1.76 0 1 1 -1.53,-2 1.77,1.77 0 0 1 1.53,2 z"
     id="path108" />
  <path
     class="cls-1"
     d="m 436.11,277.61025 a 1.9,1.9 0 0 1 -0.48,-0.14 c 0.82,-0.59 1.64,-1.2 2.44,-1.82 a 1.61,1.61 0 0 1 0,0.44 1.77,1.77 0 0 1 -1.96,1.52 z"
     id="path110" />
  <path
     class="cls-1"
     d="m 455.54,278.33025 a 1.76,1.76 0 0 1 -2,1.52 1.76,1.76 0 0 1 0.45,-3.49 1.76,1.76 0 0 1 1.55,1.97 z"
     id="path112" />
  <path
     class="cls-1"
     d="m 459.38,297.67025 a 1.8,1.8 0 0 1 0.94,0.42 1.75,1.75 0 0 1 0.59,1.19 1.45,1.45 0 0 1 0,0.36 1.75,1.75 0 0 1 -2,1.52 v 0 a 1.76,1.76 0 0 1 -1.52,-2 v 0 c 0,-0.12 0,-0.23 0.08,-0.35 a 1.85,1.85 0 0 1 0.35,-0.59 1.76,1.76 0 0 1 0.53,-0.41 1.73,1.73 0 0 1 1.03,-0.14 z"
     id="path114" />
  <path
     class="cls-1"
     d="m 446,270.00025 a 1.77,1.77 0 0 1 -0.95,-0.43 c 0.44,-0.43 0.88,-0.86 1.3,-1.3 0.42,-0.44 0.77,-0.81 1.15,-1.21 a 1.73,1.73 0 0 1 0.47,1.42 2.21,2.21 0 0 1 -0.08,0.35 1.77,1.77 0 0 1 -1.89,1.17 z"
     id="path116" />
  <path
     class="cls-1"
     d="m 437.71,314.41025 a 1.76,1.76 0 1 1 1.52,2 1.76,1.76 0 0 1 -1.52,-2 z"
     id="path118" />
  <path
     class="cls-1"
     d="m 427.86,322.02025 a 1.76,1.76 0 1 1 1.52,2 1.76,1.76 0 0 1 -1.52,-2 z"
     id="path120" />
  <path
     class="cls-1"
     d="m 445.32,324.26025 a 1.76,1.76 0 1 1 1.52,2 1.76,1.76 0 0 1 -1.52,-2 z"
     id="path122" />
  <path
     class="cls-1"
     d="m 433.59,305.01025 a 1.76,1.76 0 1 1 -1.52,-2 1.76,1.76 0 0 1 1.52,2 z"
     id="path124" />
  <path
     class="cls-1"
     d="m 451.05,307.25025 a 1.76,1.76 0 1 1 -1.52,-2 1.75,1.75 0 0 1 1.52,2 z"
     id="path126" />
  <path
     class="cls-1"
     d="m 455.17,316.65025 a 1.75,1.75 0 0 1 0.67,-1.17 1.79,1.79 0 0 1 1.3,-0.35 1.76,1.76 0 0 1 0.85,3.14 1.69,1.69 0 0 1 -1.3,0.35 1.76,1.76 0 0 1 -1.52,-1.97 z"
     id="path128" />
  <path
     class="cls-1"
     d="m 437,333.84025 a 1.84,1.84 0 0 1 -0.94,-0.42 1.78,1.78 0 0 1 -0.58,-1.55 1.37,1.37 0 0 1 0.08,-0.35 1.66,1.66 0 0 1 0.34,-0.59 1.78,1.78 0 0 1 2.49,-0.16 1.78,1.78 0 0 1 0.58,1.55 2,2 0 0 1 -0.08,0.35 1.77,1.77 0 0 1 -0.88,1 1.73,1.73 0 0 1 -1.01,0.17 z"
     id="path130" />
  <path
     class="cls-1"
     d="m 487.33,238.04025 a 1.37,1.37 0 0 1 -0.08,0.35 1.75,1.75 0 0 1 -1.89,1.17 1.7,1.7 0 0 1 -0.93,-0.42 1.74,1.74 0 0 1 -0.59,-1.55 1.76,1.76 0 1 1 3.49,0.45 z"
     id="path132" />
  <path
     class="cls-1"
     d="m 487.61,222.11025 a 1.76,1.76 0 1 1 2,-1.52 1.76,1.76 0 0 1 -2,1.52 z"
     id="path134" />
  <path
     class="cls-1"
     d="m 477.75,229.71025 a 1.76,1.76 0 1 1 2,-1.52 1.76,1.76 0 0 1 -2,1.52 z"
     id="path136" />
  <path
     class="cls-1"
     d="m 497.18,230.43025 a 1.76,1.76 0 1 1 -3.49,-0.45 1.76,1.76 0 0 1 3.49,0.45 z"
     id="path138" />
  <path
     class="cls-1"
     d="m 497.46,214.49025 a 1.76,1.76 0 1 1 0.45,-3.49 1.76,1.76 0 1 1 -0.45,3.49 z"
     id="path140" />
  <path
     class="cls-1"
     d="m 503.27,238.31025 a 1.62,1.62 0 0 1 0.66,0.23 1.8,1.8 0 0 1 0.51,0.44 1.71,1.71 0 0 1 0.36,0.95 1.38,1.38 0 0 1 0,0.35 1.71,1.71 0 0 1 -0.67,1.17 1.73,1.73 0 0 1 -1.3,0.36 v 0 a 1.77,1.77 0 0 1 -1.52,-2 v 0 a 1.71,1.71 0 0 1 0.43,-0.94 1.76,1.76 0 0 1 0.53,-0.41 1.73,1.73 0 0 1 1,-0.15 z"
     id="path142" />
  <path
     class="cls-1"
     d="m 481.33,270.99025 a 1.71,1.71 0 0 1 0.93,0.43 1.73,1.73 0 0 1 0.59,1.54 2,2 0 0 1 -0.08,0.35 1.76,1.76 0 0 1 -1.89,1.17 1.69,1.69 0 0 1 -0.94,-0.42 1.76,1.76 0 0 1 -0.58,-1.55 1.3,1.3 0 0 1 0.08,-0.34 1.66,1.66 0 0 1 0.34,-0.59 1.76,1.76 0 0 1 0.53,-0.41 1.78,1.78 0 0 1 1.02,-0.18 z"
     id="path144" />
  <path
     class="cls-1"
     d="m 485.09,255.50025 a 1.76,1.76 0 0 1 -3.49,-0.45 1.76,1.76 0 1 1 3.49,0.45 z"
     id="path146" />
  <path
     class="cls-1"
     d="m 465.66,254.78025 a 1.76,1.76 0 0 1 -1.52,-2 2,2 0 0 1 0.08,-0.35 1.75,1.75 0 0 1 1.89,-1.17 1.75,1.75 0 0 1 1.47,1.27 1.82,1.82 0 0 1 0.05,0.7 1.75,1.75 0 0 1 -1.97,1.55 z"
     id="path148" />
  <path
     class="cls-1"
     d="m 475.24,263.11025 a 1.76,1.76 0 1 1 -1.52,-2 1.75,1.75 0 0 1 1.52,2 z"
     id="path150" />
  <path
     class="cls-1"
     d="m 492.7,265.35025 a 1.76,1.76 0 1 1 -1.52,-2 1.77,1.77 0 0 1 1.52,2 z"
     id="path152" />
  <path
     class="cls-1"
     d="m 477.48,245.65025 a 1.76,1.76 0 1 1 -3.49,-0.45 1.76,1.76 0 0 1 3.49,0.45 z"
     id="path154" />
  <path
     class="cls-1"
     d="m 494.94,247.89025 a 1.76,1.76 0 1 1 -1.52,-2 1.76,1.76 0 0 1 1.52,2 z"
     id="path156" />
  <path
     class="cls-1"
     d="m 478.36,301.88025 a 1.74,1.74 0 0 1 -1.61,1.53 1.45,1.45 0 0 1 -0.36,0 1.3,1.3 0 0 1 -0.34,-0.08 1.75,1.75 0 0 1 -1.18,-1.89 1.68,1.68 0 0 1 0.23,-0.66 1.76,1.76 0 0 1 3.26,1.11 z"
     id="path158" />
  <path
     class="cls-1"
     d="m 480.61,284.42025 a 1.76,1.76 0 1 1 -1.53,-2 1.76,1.76 0 0 1 1.53,2 z"
     id="path160" />
  <path
     class="cls-1"
     d="m 462.29,280.43025 a 1.85,1.85 0 0 1 0.81,1.05 1.82,1.82 0 0 1 0,0.7 3.59,3.59 0 0 1 -0.08,0.35 1.81,1.81 0 0 1 -0.88,1 1.73,1.73 0 0 1 -1,0.17 v 0 a 1.7,1.7 0 0 1 -0.94,-0.42 1.78,1.78 0 0 1 -0.6,-1.19 c 0,-0.12 0,-0.24 0,-0.36 a 1.77,1.77 0 0 1 2,-1.52 1.83,1.83 0 0 1 0.69,0.22 z"
     id="path162" />
  <path
     class="cls-1"
     d="m 470.76,292.03025 a 1.76,1.76 0 1 1 -1.53,-2 1.76,1.76 0 0 1 1.53,2 z"
     id="path164" />
  <path
     class="cls-1"
     d="m 488.22,294.27025 a 1.76,1.76 0 1 1 -1.53,-2 1.77,1.77 0 0 1 1.53,2 z"
     id="path166" />
  <path
     class="cls-1"
     d="m 473,280.57025 a 1.76,1.76 0 1 1 -1.52,-2 1.76,1.76 0 0 1 1.52,2 z"
     id="path168" />
  <path
     class="cls-1"
     d="m 490.46,282.81025 a 1.76,1.76 0 1 1 -1.52,-2 1.77,1.77 0 0 1 1.52,2 z"
     id="path170" />
  <path
     class="cls-1"
     d="m 472.63,318.89025 a 1.76,1.76 0 1 1 1.52,2 1.76,1.76 0 0 1 -1.52,-2 z"
     id="path172" />
  <path
     class="cls-1"
     d="m 462.78,326.50025 a 1.76,1.76 0 1 1 1.52,2 1.76,1.76 0 0 1 -1.52,-2 z"
     id="path174" />
  <path
     class="cls-1"
     d="m 480.24,328.75025 a 1.76,1.76 0 1 1 1.52,2 1.77,1.77 0 0 1 -1.52,-2 z"
     id="path176" />
  <path
     class="cls-1"
     d="m 465,309.04025 a 1.76,1.76 0 1 1 3.49,0.45 1.76,1.76 0 1 1 -3.49,-0.45 z"
     id="path178" />
  <path
     class="cls-1"
     d="m 482.48,311.29025 a 1.76,1.76 0 1 1 1.52,2 1.77,1.77 0 0 1 -1.52,-2 z"
     id="path180" />
  <path
     class="cls-1"
     d="m 491.26,323.03025 a 1.76,1.76 0 0 1 -0.21,-3.24 1.81,1.81 0 0 1 0.65,-0.19 h 0.36 a 1.85,1.85 0 0 1 0.66,0.23 1.74,1.74 0 0 1 0.81,1 1.8,1.8 0 0 1 0.05,0.7 1.76,1.76 0 0 1 -2,1.52 z"
     id="path182" />
  <path
     class="cls-1"
     d="m 526.16,206.11025 a 1.76,1.76 0 0 1 0.58,1.55 1.87,1.87 0 0 1 -0.08,0.34 1.76,1.76 0 0 1 -0.88,1 1.81,1.81 0 0 1 -1,0.17 1.77,1.77 0 0 1 -0.94,-0.43 1.75,1.75 0 0 1 -0.58,-1.54 1.37,1.37 0 0 1 0.08,-0.35 1.66,1.66 0 0 1 0.34,-0.59 1.78,1.78 0 0 1 2.49,-0.16 z"
     id="path184" />
  <path
     class="cls-1"
     d="m 527,191.67025 a 1.78,1.78 0 0 1 -1.48,-1.31 c 1.15,-0.2 2.3,-0.38 3.46,-0.53 a 1.74,1.74 0 0 1 0,0.32 1.76,1.76 0 0 1 -1.98,1.52 z"
     id="path186" />
  <path
     class="cls-1"
     d="m 517.16,199.28025 a 1.76,1.76 0 1 1 2,-1.53 1.76,1.76 0 0 1 -2,1.53 z"
     id="path188" />
  <path
     class="cls-1"
     d="m 534.62,201.52025 a 1.76,1.76 0 1 1 2,-1.52 1.76,1.76 0 0 1 -2,1.52 z"
     id="path190" />
  <path
     class="cls-1"
     d="m 542.32,207.87025 a 1.45,1.45 0 0 1 0.36,0 1.84,1.84 0 0 1 0.66,0.22 1.78,1.78 0 0 1 0.81,1 1.82,1.82 0 0 1 0.05,0.7 2.21,2.21 0 0 1 -0.08,0.35 1.77,1.77 0 0 1 -0.88,1 1.73,1.73 0 0 1 -1,0.17 1.84,1.84 0 0 1 -0.94,-0.42 1.78,1.78 0 0 1 -0.58,-1.55 1.84,1.84 0 0 1 0.22,-0.66 1.73,1.73 0 0 1 0.73,-0.69 1.85,1.85 0 0 1 0.65,-0.12 z"
     id="path192" />
  <path
     class="cls-1"
     d="m 522.25,242.53025 a 1.75,1.75 0 0 1 -1.61,1.53 2.17,2.17 0 0 1 -0.36,0 1.87,1.87 0 0 1 -0.34,-0.08 1.76,1.76 0 0 1 -1.18,-1.89 1.62,1.62 0 0 1 0.23,-0.66 1.73,1.73 0 0 1 1.74,-0.86 1.75,1.75 0 0 1 1.52,1.96 z"
     id="path194" />
  <path
     class="cls-1"
     d="m 524.5,225.11025 a 1.76,1.76 0 1 1 -1.53,-2 1.77,1.77 0 0 1 1.53,2 z"
     id="path196" />
  <path
     class="cls-1"
     d="m 506.18,221.11025 a 1.82,1.82 0 0 1 0.82,1 1.77,1.77 0 0 1 0.05,0.69 3.59,3.59 0 0 1 -0.08,0.35 1.85,1.85 0 0 1 -0.35,0.59 1.75,1.75 0 0 1 -1.54,0.59 l -0.35,-0.08 a 1.81,1.81 0 0 1 -1.13,-1.2 1.76,1.76 0 0 1 1.92,-2.22 1.67,1.67 0 0 1 0.66,0.28 z"
     id="path198" />
  <path
     class="cls-1"
     d="m 514.65,232.68025 a 1.76,1.76 0 1 1 -1.53,-2 1.77,1.77 0 0 1 1.53,2 z"
     id="path200" />
  <path
     class="cls-1"
     d="m 532.11,234.92025 a 1.76,1.76 0 1 1 -1.53,-2 1.77,1.77 0 0 1 1.53,2 z"
     id="path202" />
  <path
     class="cls-1"
     d="m 516.89,215.22025 a 1.76,1.76 0 1 1 -1.52,-2 1.77,1.77 0 0 1 1.52,2 z"
     id="path204" />
  <path
     class="cls-1"
     d="m 534.35,217.46025 a 1.77,1.77 0 0 1 -2,1.52 1.76,1.76 0 1 1 2,-1.52 z"
     id="path206" />
  <path
     class="cls-1"
     d="m 538.19,242.80025 v 0 a 1.74,1.74 0 0 1 1.47,1.27 1.5,1.5 0 0 1 0.05,0.7 1.37,1.37 0 0 1 -0.08,0.35 1.79,1.79 0 0 1 -0.87,1 1.75,1.75 0 0 1 -1,0.17 1.84,1.84 0 0 1 -0.66,-0.22 1.89,1.89 0 0 1 -0.27,-0.2 1.34,1.34 0 0 1 -0.23,-0.25 1.72,1.72 0 0 1 -0.31,-0.6 1.82,1.82 0 0 1 0,-0.7 1.77,1.77 0 0 1 1,-1.35 1.73,1.73 0 0 1 0.9,-0.17 z"
     id="path208" />
  <path
     class="cls-1"
     d="m 507.31,206.89025 a 1.83,1.83 0 0 1 -1.17,-0.67 1.75,1.75 0 0 1 -0.35,-1.3 v 0 a 1.71,1.71 0 0 1 0.67,-1.17 1.74,1.74 0 0 1 1.3,-0.36 v 0 a 1.77,1.77 0 0 1 0.94,0.43 1.82,1.82 0 0 1 0.59,1.19 2.08,2.08 0 0 1 0,0.35 v 0 a 1.77,1.77 0 0 1 -1.98,1.53 z"
     id="path210" />
  <path
     class="cls-1"
     d="m 517.19,275.90025 a 1.77,1.77 0 0 1 0.59,1.19 1.45,1.45 0 0 1 0,0.36 1.87,1.87 0 0 1 -0.08,0.34 1.76,1.76 0 0 1 -0.88,1 1.73,1.73 0 0 1 -1,0.17 1.75,1.75 0 0 1 -1.17,-0.67 1.79,1.79 0 0 1 -0.35,-1.3 1.77,1.77 0 0 1 2.91,-1.1 z"
     id="path212" />
  <path
     class="cls-1"
     d="m 499.45,273.46025 a 1.76,1.76 0 0 1 0.86,1.74 1.8,1.8 0 0 1 -0.08,0.35 1.71,1.71 0 0 1 -0.88,1 1.73,1.73 0 0 1 -1,0.18 l -0.35,-0.08 a 1.85,1.85 0 0 1 -0.59,-0.35 1.76,1.76 0 0 1 -0.58,-1.54 1.89,1.89 0 0 1 0.17,-0.65 1.77,1.77 0 0 1 1.75,-0.86 1.85,1.85 0 0 1 0.7,0.21 z"
     id="path214" />
  <path
     class="cls-1"
     d="m 520,259.99025 a 1.76,1.76 0 1 1 -1.52,-2 1.76,1.76 0 0 1 1.52,2 z"
     id="path216" />
  <path
     class="cls-1"
     d="m 502.55,257.74025 a 1.83,1.83 0 0 1 -0.22,0.67 1.78,1.78 0 0 1 -1.75,0.86 1.68,1.68 0 0 1 -0.66,-0.23 1.8,1.8 0 0 1 -0.51,-0.44 1.93,1.93 0 0 1 -0.3,-0.61 1.77,1.77 0 0 1 -0.05,-0.69 1.89,1.89 0 0 1 0.22,-0.67 1.8,1.8 0 0 1 0.45,-0.5 1.75,1.75 0 0 1 2.82,1.61 z"
     id="path218" />
  <path
     class="cls-1"
     d="m 510.16,267.60025 a 1.76,1.76 0 1 1 -1.52,-2 1.76,1.76 0 0 1 1.52,2 z"
     id="path220" />
  <path
     class="cls-1"
     d="m 527.62,269.84025 a 1.76,1.76 0 1 1 -1.52,-2 1.76,1.76 0 0 1 1.52,2 z"
     id="path222" />
  <path
     class="cls-1"
     d="m 512.4,250.11025 a 1.76,1.76 0 1 1 -1.52,-2 1.76,1.76 0 0 1 1.52,2 z"
     id="path224" />
  <path
     class="cls-1"
     d="m 529.86,252.38025 a 1.76,1.76 0 1 1 -1.52,-2 1.76,1.76 0 0 1 1.52,2 z"
     id="path226" />
  <path
     class="cls-1"
     d="m 533.71,277.72025 a 1.84,1.84 0 0 1 0.66,0.22 2.83,2.83 0 0 1 0.28,0.2 1.77,1.77 0 0 1 0.58,1.55 2,2 0 0 1 -0.08,0.35 1.76,1.76 0 0 1 -1.89,1.17 v 0 a 1.74,1.74 0 0 1 -1.53,-1.61 1.45,1.45 0 0 1 0,-0.36 1.37,1.37 0 0 1 0.08,-0.35 1.66,1.66 0 0 1 0.34,-0.59 1.75,1.75 0 0 1 1.55,-0.58 z"
     id="path228" />
  <path
     class="cls-1"
     d="m 535.59,260.25025 a 1.45,1.45 0 0 1 0.36,0 1.76,1.76 0 1 1 -1,0.17 1.8,1.8 0 0 1 0.64,-0.17 z"
     id="path230" />
  <path
     class="cls-1"
     d="m 494.3,302.11025 a 1.76,1.76 0 0 1 1.52,2 1.93,1.93 0 0 1 -0.22,0.66 1.65,1.65 0 0 1 -0.45,0.5 1.34,1.34 0 0 1 -0.28,0.18 1.27,1.27 0 0 1 -0.32,0.13 1.8,1.8 0 0 1 -0.7,0.05 1.68,1.68 0 0 1 -0.66,-0.23 2,2 0 0 1 -0.5,-0.44 1.74,1.74 0 0 1 -0.36,-1.3 1.62,1.62 0 0 1 0.23,-0.66 1.66,1.66 0 0 1 0.44,-0.51 1.75,1.75 0 0 1 1.3,-0.36 z"
     id="path232" />
  <path
     class="cls-1"
     d="m 515.53,288.91025 a 1.77,1.77 0 0 1 -2,1.52 1.76,1.76 0 1 1 2,-1.52 z"
     id="path234" />
  <path
     class="cls-1"
     d="m 497.21,284.92025 a 1.8,1.8 0 0 1 0.87,1.39 2,2 0 0 1 0,0.35 1.76,1.76 0 1 1 -1.52,-2 1.68,1.68 0 0 1 0.65,0.26 z"
     id="path236" />
  <path
     class="cls-1"
     d="m 505.68,296.52025 a 1.76,1.76 0 1 1 -1.53,-2 1.77,1.77 0 0 1 1.53,2 z"
     id="path238" />
  <path
     class="cls-1"
     d="m 523.14,298.76025 a 1.76,1.76 0 1 1 -1.53,-2 1.77,1.77 0 0 1 1.53,2 z"
     id="path240" />
  <path
     class="cls-1"
     d="m 507.92,279.11025 a 1.76,1.76 0 1 1 -3.49,-0.45 1.76,1.76 0 0 1 3.49,0.45 z"
     id="path242" />
  <path
     class="cls-1"
     d="m 525.38,281.30025 a 1.77,1.77 0 0 1 -2,1.52 1.76,1.76 0 1 1 2,-1.52 z"
     id="path244" />
  <path
     class="cls-1"
     d="m 531.47,289.18025 a 1.76,1.76 0 0 1 1.47,1.27 1.82,1.82 0 0 1 0,0.7 1.76,1.76 0 0 1 -2,1.52 1.75,1.75 0 0 1 -1.52,-2 1.37,1.37 0 0 1 0.08,-0.35 1.79,1.79 0 0 1 0.87,-1 1.75,1.75 0 0 1 1.1,-0.14 z"
     id="path246" />
  <path
     class="cls-1"
     d="m 507.55,323.38025 a 1.76,1.76 0 1 1 1.52,2 1.76,1.76 0 0 1 -1.52,-2 z"
     id="path248" />
  <path
     class="cls-1"
     d="m 497.7,330.99025 a 1.76,1.76 0 1 1 1.52,2 1.77,1.77 0 0 1 -1.52,-2 z"
     id="path250" />
  <path
     class="cls-1"
     d="m 515.16,333.23025 a 1.76,1.76 0 1 1 1.52,2 1.76,1.76 0 0 1 -1.52,-2 z"
     id="path252" />
  <path
     class="cls-1"
     d="m 499.94,313.53025 a 1.76,1.76 0 1 1 1.52,2 1.76,1.76 0 0 1 -1.52,-2 z"
     id="path254" />
  <path
     class="cls-1"
     d="m 517.4,315.77025 a 1.76,1.76 0 1 1 1.52,2 1.76,1.76 0 0 1 -1.52,-2 z"
     id="path256" />
  <path
     class="cls-1"
     d="m 509.79,305.92025 v 0 a 1.78,1.78 0 0 1 1,-1.35 1.73,1.73 0 0 1 1,-0.17 1.71,1.71 0 0 1 1.17,0.67 1.74,1.74 0 0 1 0.36,1.3 1.83,1.83 0 0 1 -0.67,1.17 1.8,1.8 0 0 1 -1.31,0.35 1.76,1.76 0 0 1 -1.55,-1.97 z"
     id="path258" />
  <path
     class="cls-1"
     d="m 561.08,210.54025 a 1.79,1.79 0 0 1 0.59,1.19 2.17,2.17 0 0 1 0,0.36 1.76,1.76 0 0 1 -3.14,0.85 1.78,1.78 0 0 1 -0.35,-1.3 1.76,1.76 0 0 1 2,-1.52 1.84,1.84 0 0 1 0.9,0.42 z"
     id="path260" />
  <path
     class="cls-1"
     d="m 561.93,196.11025 a 1.76,1.76 0 1 1 2,-1.52 1.76,1.76 0 0 1 -2,1.52 z"
     id="path262" />
  <path
     class="cls-1"
     d="m 544.47,193.91025 a 1.73,1.73 0 0 1 -1.17,-0.67 1.69,1.69 0 0 1 -0.3,-0.6 1.82,1.82 0 0 1 0,-0.7 1.84,1.84 0 0 1 0.22,-0.66 1.76,1.76 0 0 1 3.22,0.41 1.82,1.82 0 0 1 0.05,0.7 1.76,1.76 0 0 1 -2.02,1.52 z"
     id="path264" />
  <path
     class="cls-1"
     d="m 552.08,203.76025 a 1.76,1.76 0 1 1 2,-1.52 1.75,1.75 0 0 1 -2,1.52 z"
     id="path266" />
  <path
     class="cls-1"
     d="m 569.54,206.00025 a 1.76,1.76 0 1 1 2,-1.52 1.76,1.76 0 0 1 -2,1.52 z"
     id="path268" />
  <path
     class="cls-1"
     d="m 577.6,212.36025 a 1.68,1.68 0 0 1 0.66,0.23 1.31,1.31 0 0 1 0.28,0.2 1.76,1.76 0 0 1 0.58,1.54 2,2 0 0 1 -0.08,0.35 1.74,1.74 0 0 1 -0.88,1 1.81,1.81 0 0 1 -1,0.18 2,2 0 0 1 -0.35,-0.09 1.66,1.66 0 0 1 -0.59,-0.34 1.76,1.76 0 0 1 -0.53,-0.85 1.8,1.8 0 0 1 0,-0.7 1.3,1.3 0 0 1 0.08,-0.34 1.66,1.66 0 0 1 0.34,-0.59 1.76,1.76 0 0 1 0.53,-0.41 1.78,1.78 0 0 1 0.96,-0.18 z"
     id="path270" />
  <path
     class="cls-1"
     d="m 555.65,245.04025 a 1.73,1.73 0 0 1 1.17,0.67 1.71,1.71 0 0 1 0.35,1.3 1.75,1.75 0 0 1 -0.67,1.17 1.68,1.68 0 0 1 -1.3,0.35 1.76,1.76 0 0 1 -1.52,-2 v 0 a 1.77,1.77 0 0 1 0.43,-0.94 2.15,2.15 0 0 1 0.53,-0.41 1.73,1.73 0 0 1 1.01,-0.14 z"
     id="path272" />
  <path
     class="cls-1"
     d="m 559.42,229.55025 a 1.76,1.76 0 1 1 -1.52,-2 1.76,1.76 0 0 1 1.52,2 z"
     id="path274" />
  <path
     class="cls-1"
     d="m 541.1,225.56025 a 1.77,1.77 0 0 1 0.19,2.92 1.78,1.78 0 0 1 -2.24,-0.07 1.75,1.75 0 0 1 -0.59,-1.19 2.16,2.16 0 0 1 0,-0.36 1.76,1.76 0 0 1 2,-1.52 1.83,1.83 0 0 1 0.64,0.22 z"
     id="path276" />
  <path
     class="cls-1"
     d="m 549.57,237.16025 a 1.76,1.76 0 1 1 -1.53,-2 1.76,1.76 0 0 1 1.53,2 z"
     id="path278" />
  <path
     class="cls-1"
     d="m 567,239.40025 a 1.76,1.76 0 1 1 -1.53,-2 1.76,1.76 0 0 1 1.53,2 z"
     id="path280" />
  <path
     class="cls-1"
     d="m 551.81,219.70025 a 1.76,1.76 0 0 1 -2,1.52 1.76,1.76 0 1 1 0.45,-3.49 1.76,1.76 0 0 1 1.55,1.97 z"
     id="path282" />
  <path
     class="cls-1"
     d="m 569.27,221.94025 a 1.76,1.76 0 1 1 -1.52,-2 1.76,1.76 0 0 1 1.52,2 z"
     id="path284" />
  <path
     class="cls-1"
     d="m 575.36,229.82025 a 1.71,1.71 0 0 1 0.93,0.43 1.78,1.78 0 0 1 0.6,1.19 2.08,2.08 0 0 1 0,0.35 1.76,1.76 0 1 1 -3.49,-0.45 1.3,1.3 0 0 1 0.08,-0.34 1.77,1.77 0 0 1 1.89,-1.18 z"
     id="path286" />
  <path
     class="cls-1"
     d="m 552.69,281.93025 a 2,2 0 0 1 -0.08,0.35 1.76,1.76 0 0 1 -1.89,1.17 1.76,1.76 0 1 1 2,-1.52 z"
     id="path288" />
  <path
     class="cls-1"
     d="m 554.93,264.47025 a 1.76,1.76 0 0 1 -3.49,-0.45 1.76,1.76 0 0 1 3.49,0.45 z"
     id="path290" />
  <path
     class="cls-1"
     d="m 545.08,272.11025 a 1.76,1.76 0 1 1 -3.49,-0.45 1.76,1.76 0 1 1 3.49,0.45 z"
     id="path292" />
  <path
     class="cls-1"
     d="m 562.54,274.32025 a 1.76,1.76 0 1 1 -1.52,-2 1.76,1.76 0 0 1 1.52,2 z"
     id="path294" />
  <path
     class="cls-1"
     d="m 547.32,254.62025 a 1.76,1.76 0 1 1 -3.49,-0.45 1.77,1.77 0 0 1 2,-1.52 1.75,1.75 0 0 1 1.49,1.97 z"
     id="path296" />
  <path
     class="cls-1"
     d="m 564.78,256.86025 a 1.76,1.76 0 1 1 -3.49,-0.45 1.76,1.76 0 0 1 3.49,0.45 z"
     id="path298" />
  <path
     class="cls-1"
     d="m 568.63,276.20025 a 1.68,1.68 0 0 1 0.66,0.23 1.79,1.79 0 0 1 0.28,0.2 1.73,1.73 0 0 1 0.59,1.19 1.38,1.38 0 0 1 0,0.35 v 0 a 1.71,1.71 0 0 1 -0.67,1.17 1.75,1.75 0 0 1 -1.3,0.36 v 0 a 1.76,1.76 0 0 1 -1.52,-2 v 0 a 1.7,1.7 0 0 1 0.42,-0.94 1.76,1.76 0 0 1 0.53,-0.41 1.78,1.78 0 0 1 1.01,-0.15 z"
     id="path300" />
  <path
     class="cls-1"
     d="m 550.45,293.39025 a 1.76,1.76 0 1 1 -1.52,-2 1.76,1.76 0 0 1 1.52,2 z"
     id="path302" />
  <path
     class="cls-1"
     d="m 537.1,300.55025 a 1.76,1.76 0 1 1 1.53,2 1.77,1.77 0 0 1 -1.53,-2 z"
     id="path304" />
  <path
     class="cls-1"
     d="m 554.57,302.79025 a 1.76,1.76 0 1 1 1.52,2 1.76,1.76 0 0 1 -1.52,-2 z"
     id="path306" />
  <path
     class="cls-1"
     d="m 542.84,283.54025 a 1.76,1.76 0 1 1 -1.52,-2 1.76,1.76 0 0 1 1.52,2 z"
     id="path308" />
  <path
     class="cls-1"
     d="m 560.3,285.78025 a 1.76,1.76 0 1 1 -1.52,-2 1.77,1.77 0 0 1 1.52,2 z"
     id="path310" />
  <path
     class="cls-1"
     d="m 542.47,327.86025 a 1.76,1.76 0 1 1 3.49,0.45 1.76,1.76 0 1 1 -3.49,-0.45 z"
     id="path312" />
  <path
     class="cls-1"
     d="m 526.53,327.59025 v 0 a 1.76,1.76 0 0 1 -0.94,-0.42 1.82,1.82 0 0 1 -0.59,-1.19 2.17,2.17 0 0 1 0,-0.36 1.76,1.76 0 0 1 3.44,-0.25 1.82,1.82 0 0 1 0,0.7 1.37,1.37 0 0 1 -0.08,0.35 1.75,1.75 0 0 1 -1.89,1.17 z"
     id="path314" />
  <path
     class="cls-1"
     d="m 534.86,318.01025 a 1.77,1.77 0 0 1 2,-1.52 1.76,1.76 0 1 1 -2,1.52 z"
     id="path316" />
  <path
     class="cls-1"
     d="m 552.32,320.25025 a 1.76,1.76 0 1 1 1.52,2 1.77,1.77 0 0 1 -1.52,-2 z"
     id="path318" />
  <path
     class="cls-1"
     d="m 559.93,330.11025 a 1.75,1.75 0 0 1 2.63,-1.3 1.75,1.75 0 0 1 0.87,1.39 1.37,1.37 0 0 1 0,0.35 1.71,1.71 0 0 1 -0.67,1.17 1.73,1.73 0 0 1 -1.3,0.36 1.77,1.77 0 0 1 -1.53,-1.97 z"
     id="path320" />
  <path
     class="cls-1"
     d="m 546.24,312.37025 a 1.7,1.7 0 0 1 -0.94,-0.42 1.76,1.76 0 1 1 2.91,-1.1 2,2 0 0 1 -0.09,0.35 1.76,1.76 0 0 1 -0.87,1 1.73,1.73 0 0 1 -1.01,0.17 z"
     id="path322" />
  <path
     class="cls-1"
     d="m 528.77,310.11025 a 1.71,1.71 0 0 1 -1.16,-0.67 1.74,1.74 0 0 1 -0.36,-1.3 v 0 a 1.68,1.68 0 0 1 0.23,-0.66 1.74,1.74 0 0 1 1.39,-0.87 1.38,1.38 0 0 1 0.35,0 1.75,1.75 0 0 1 1.52,2 v 0 a 1.75,1.75 0 0 1 -1.61,1.53 1.46,1.46 0 0 1 -0.36,-0.03 z"
     id="path324" />
  <path
     class="cls-1"
     d="m 563.35,314.54025 a 1.81,1.81 0 0 1 -1.13,-1.2 1.77,1.77 0 0 1 -0.05,-0.69 1.72,1.72 0 0 1 0.23,-0.67 1.76,1.76 0 0 1 1.74,-0.86 1.67,1.67 0 0 1 0.67,0.23 1.82,1.82 0 0 1 0.81,1.05 1.77,1.77 0 0 1 0,0.69 3,3 0 0 1 -0.08,0.35 1.77,1.77 0 0 1 -1.9,1.18 z"
     id="path326" />
  <path
     class="cls-1"
     d="m 596.58,216.58025 a 1.87,1.87 0 0 1 -0.08,0.34 1.71,1.71 0 0 1 -0.88,1 1.73,1.73 0 0 1 -1,0.18 1.77,1.77 0 0 1 -0.94,-0.43 1.76,1.76 0 0 1 1.39,-3.07 1.77,1.77 0 0 1 1.51,1.98 z"
     id="path328" />
  <path
     class="cls-1"
     d="m 596.85,200.64025 a 1.77,1.77 0 0 1 -1.52,-2 1.67,1.67 0 0 1 0.23,-0.67 l 3.26,0.7 a 1.48,1.48 0 0 1 0,0.42 1.76,1.76 0 0 1 -1.97,1.55 z"
     id="path330" />
  <path
     class="cls-1"
     d="m 579.39,198.39025 a 1.76,1.76 0 0 1 -1.52,-2 1.71,1.71 0 0 1 0.67,-1.16 1.76,1.76 0 1 1 0.85,3.13 z"
     id="path332" />
  <path
     class="cls-1"
     d="m 587,208.25025 a 1.76,1.76 0 1 1 2,-1.53 1.76,1.76 0 0 1 -2,1.53 z"
     id="path334" />
  <path
     class="cls-1"
     d="m 604.46,210.49025 a 1.77,1.77 0 0 1 -1.52,-2 1.76,1.76 0 1 1 1.52,2 z"
     id="path336" />
  <path
     class="cls-1"
     d="m 592.1,251.50025 a 1.89,1.89 0 0 1 -0.09,0.34 1.78,1.78 0 0 1 -0.87,1 1.83,1.83 0 0 1 -1,0.17 1.71,1.71 0 0 1 -0.93,-0.43 1.76,1.76 0 1 1 2.91,-1.09 z"
     id="path338" />
  <path
     class="cls-1"
     d="m 573.11,247.28025 a 1.77,1.77 0 0 1 1.53,2 v 0 a 1.78,1.78 0 0 1 -1.62,1.54 h -0.36 a 1.89,1.89 0 0 1 -0.34,-0.09 1.75,1.75 0 0 1 -1.18,-1.88 v 0 a 1.67,1.67 0 0 1 0.23,-0.67 1.62,1.62 0 0 1 0.44,-0.5 1.75,1.75 0 0 1 1.3,-0.36 z"
     id="path340" />
  <path
     class="cls-1"
     d="m 594.34,234.04025 a 1.76,1.76 0 0 1 -3.49,-0.45 1.76,1.76 0 1 1 3.49,0.45 z"
     id="path342" />
  <path
     class="cls-1"
     d="m 584.49,241.64025 a 1.76,1.76 0 1 1 -1.53,-2 1.77,1.77 0 0 1 1.53,2 z"
     id="path344" />
  <path
     class="cls-1"
     d="m 602,243.89025 a 1.76,1.76 0 1 1 -1.53,-2 1.77,1.77 0 0 1 1.53,2 z"
     id="path346" />
  <path
     class="cls-1"
     d="m 586.73,224.18025 a 1.76,1.76 0 1 1 -1.52,-2 1.77,1.77 0 0 1 1.52,2 z"
     id="path348" />
  <path
     class="cls-1"
     d="m 604.19,226.43025 a 1.77,1.77 0 0 1 -2,1.52 1.76,1.76 0 1 1 2,-1.52 z"
     id="path350" />
  <path
     class="cls-1"
     d="m 607.68,251.76025 a 1.38,1.38 0 0 1 0.35,0 1.89,1.89 0 0 1 0.67,0.22 1.76,1.76 0 0 1 0.86,1.75 2.25,2.25 0 0 1 -0.09,0.35 1.76,1.76 0 0 1 -3.41,-0.8 1.68,1.68 0 0 1 0.23,-0.66 1.73,1.73 0 0 1 0.73,-0.69 1.79,1.79 0 0 1 0.66,-0.17 z"
     id="path352" />
  <path
     class="cls-1"
     d="m 589.85,268.96025 a 1.76,1.76 0 1 1 -1.52,-2 1.76,1.76 0 0 1 1.52,2 z"
     id="path354" />
  <path
     class="cls-1"
     d="m 572.34,266.02025 a 1.77,1.77 0 0 1 0,0.69 1.37,1.37 0 0 1 -0.08,0.35 1.66,1.66 0 0 1 -0.34,0.59 1.77,1.77 0 0 1 -1.55,0.59 l -0.35,-0.08 a 1.76,1.76 0 1 1 2.27,-2.14 z"
     id="path356" />
  <path
     class="cls-1"
     d="m 580,276.57025 a 1.76,1.76 0 1 1 -1.52,-2 1.76,1.76 0 0 1 1.52,2 z"
     id="path358" />
  <path
     class="cls-1"
     d="m 594,278.36025 a 1.76,1.76 0 1 1 1.52,2 1.76,1.76 0 0 1 -1.52,-2 z"
     id="path360" />
  <path
     class="cls-1"
     d="m 582.24,259.11025 a 1.76,1.76 0 1 1 -1.52,-2 1.76,1.76 0 0 1 1.52,2 z"
     id="path362" />
  <path
     class="cls-1"
     d="m 599.7,261.35025 a 1.76,1.76 0 1 1 -1.52,-2 1.76,1.76 0 0 1 1.52,2 z"
     id="path364" />
  <path
     class="cls-1"
     d="m 604.4,272.30025 a 1.84,1.84 0 0 1 -0.59,-1.19 2.17,2.17 0 0 1 0,-0.36 1.76,1.76 0 0 1 2,-1.52 1.78,1.78 0 0 1 0.66,0.22 1.74,1.74 0 0 1 0.81,1 1.82,1.82 0 0 1 0,0.7 1.75,1.75 0 0 1 -0.67,1.17 1.78,1.78 0 0 1 -1.3,0.35 1.84,1.84 0 0 1 -0.91,-0.37 z"
     id="path366" />
  <path
     class="cls-1"
     d="m 581.88,297.43025 a 1.76,1.76 0 1 1 3.49,0.45 1.76,1.76 0 1 1 -3.49,-0.45 z"
     id="path368" />
  <path
     class="cls-1"
     d="m 565.94,297.16025 a 1.62,1.62 0 0 1 -0.66,-0.23 1.8,1.8 0 0 1 -0.51,-0.44 1.74,1.74 0 0 1 -0.3,-0.61 1.46,1.46 0 0 1 -0.05,-0.69 1.89,1.89 0 0 1 0.22,-0.67 1.8,1.8 0 0 1 0.45,-0.5 1.73,1.73 0 0 1 1.3,-0.36 1.77,1.77 0 0 1 1.52,2 1.67,1.67 0 0 1 -0.23,0.67 1.62,1.62 0 0 1 -0.44,0.5 1.68,1.68 0 0 1 -0.61,0.31 1.77,1.77 0 0 1 -0.69,0.02 z"
     id="path370" />
  <path
     class="cls-1"
     d="m 572,305.04025 a 1.74,1.74 0 0 1 2,-1.52 1.76,1.76 0 1 1 -2,1.52 z"
     id="path372" />
  <path
     class="cls-1"
     d="m 589.48,307.28025 a 1.76,1.76 0 1 1 1.53,2 1.76,1.76 0 0 1 -1.53,-2 z"
     id="path374" />
  <path
     class="cls-1"
     d="m 574.27,287.58025 a 1.76,1.76 0 0 1 3.49,0.45 1.76,1.76 0 1 1 -3.49,-0.45 z"
     id="path376" />
  <path
     class="cls-1"
     d="m 591.73,289.82025 a 1.76,1.76 0 1 1 1.52,2 1.75,1.75 0 0 1 -1.52,-2 z"
     id="path378" />
  <path
     class="cls-1"
     d="m 599.34,299.67025 a 1.76,1.76 0 0 1 0.95,-1.35 1.85,1.85 0 0 1 0.71,-0.21 1.45,1.45 0 0 1 0.36,0 1.76,1.76 0 0 1 -0.45,3.49 1.75,1.75 0 0 1 -1.57,-1.93 z"
     id="path380" />
  <path
     class="cls-1"
     d="m 585.64,281.94025 a 2,2 0 0 1 -0.35,-0.08 1.85,1.85 0 0 1 -0.59,-0.35 1.75,1.75 0 0 1 -0.58,-1.54 1.37,1.37 0 0 1 0.08,-0.35 1.66,1.66 0 0 1 0.34,-0.59 1.76,1.76 0 1 1 1.46,2.92 2.17,2.17 0 0 1 -0.36,-0.01 z"
     id="path382" />
  <path
     class="cls-1"
     d="m 577.39,332.35025 a 1.76,1.76 0 0 1 2,-1.52 1.76,1.76 0 1 1 -0.45,3.49 1.76,1.76 0 0 1 -1.55,-1.97 z"
     id="path384" />
  <path
     class="cls-1"
     d="m 569.78,322.50025 a 1.76,1.76 0 1 1 1.52,2 1.77,1.77 0 0 1 -1.52,-2 z"
     id="path386" />
  <path
     class="cls-1"
     d="m 587.24,324.74025 a 1.76,1.76 0 0 1 2,-1.52 1.76,1.76 0 0 1 -0.45,3.49 1.76,1.76 0 0 1 -1.55,-1.97 z"
     id="path388" />
  <path
     class="cls-1"
     d="m 581.16,316.86025 a 1.71,1.71 0 0 1 -1.17,-0.67 1.75,1.75 0 0 1 -0.36,-1.3 1.79,1.79 0 0 1 0.23,-0.66 1.73,1.73 0 0 1 1.74,-0.86 1.76,1.76 0 0 1 1.53,2 1.89,1.89 0 0 1 -0.09,0.34 1.78,1.78 0 0 1 -0.87,1 1.73,1.73 0 0 1 -1.01,0.15 z"
     id="path390" />
  <path
     class="cls-1"
     d="m 630.92,219.51025 a 1.76,1.76 0 0 1 -1,3.08 1.45,1.45 0 0 1 -0.36,0 1.37,1.37 0 0 1 -0.35,-0.08 1.66,1.66 0 0 1 -0.59,-0.34 1.77,1.77 0 0 1 -0.58,-1.55 1.47,1.47 0 0 1 0.08,-0.35 1.82,1.82 0 0 1 0.34,-0.59 1.75,1.75 0 0 1 1.54,-0.57 1.84,1.84 0 0 1 0.92,0.4 z"
     id="path392" />
  <path
     class="cls-1"
     d="m 613.18,217.11025 a 2.83,2.83 0 0 1 0.28,0.2 1.81,1.81 0 0 1 0.53,0.85 2,2 0 0 1 0.06,0.34 1.45,1.45 0 0 1 0,0.36 v 0 a 1.75,1.75 0 0 1 -0.67,1.17 1.79,1.79 0 0 1 -1.3,0.35 v 0 a 1.77,1.77 0 0 1 -1.35,-1 1.8,1.8 0 0 1 -0.18,-0.65 1.45,1.45 0 0 1 0,-0.36 v 0 a 1.75,1.75 0 0 1 2,-1.52 1.84,1.84 0 0 1 0.63,0.26 z"
     id="path394" />
  <path
     class="cls-1"
     d="m 631.77,205.11025 a 1.76,1.76 0 0 1 -1.53,-1.69 c 1.17,0.06 2.34,0.09 3.5,0.12 v 0.05 a 1.75,1.75 0 0 1 -1.97,1.52 z"
     id="path396" />
  <path
     class="cls-1"
     d="m 614.31,202.88025 a 1.87,1.87 0 0 1 -0.34,-0.08 1.75,1.75 0 0 1 -1.13,-1.19 c 0,-0.07 0,-0.14 0,-0.21 l 1.67,0.28 1.63,0.25 a 1.76,1.76 0 0 1 -1.83,0.95 z"
     id="path398" />
  <path
     class="cls-1"
     d="m 621.92,212.73025 a 1.76,1.76 0 1 1 2,-1.52 1.76,1.76 0 0 1 -2,1.52 z"
     id="path400" />
  <path
     class="cls-1"
     d="m 639.38,214.97025 a 1.76,1.76 0 1 1 2,-1.52 1.76,1.76 0 0 1 -2,1.52 z"
     id="path402" />
  <path
     class="cls-1"
     d="m 629.26,238.52025 a 1.76,1.76 0 1 1 -1.52,-2 1.76,1.76 0 0 1 1.52,2 z"
     id="path404" />
  <path
     class="cls-1"
     d="m 611.75,235.58025 a 1.82,1.82 0 0 1 0,0.7 1.77,1.77 0 0 1 -2.63,1.3 1.84,1.84 0 0 1 -0.51,-0.45 1.69,1.69 0 0 1 -0.3,-0.6 1.5,1.5 0 0 1 -0.05,-0.7 1.84,1.84 0 0 1 0.22,-0.66 1.76,1.76 0 0 1 3.22,0.41 z"
     id="path406" />
  <path
     class="cls-1"
     d="m 619.41,246.11025 a 1.76,1.76 0 0 1 -2,1.52 1.76,1.76 0 1 1 0.45,-3.49 1.76,1.76 0 0 1 1.55,1.97 z"
     id="path408" />
  <path
     class="cls-1"
     d="m 633.38,247.92025 a 1.76,1.76 0 1 1 1.52,2 1.76,1.76 0 0 1 -1.52,-2 z"
     id="path410" />
  <path
     class="cls-1"
     d="m 621.65,228.67025 a 1.76,1.76 0 1 1 -1.52,-2 1.76,1.76 0 0 1 1.52,2 z"
     id="path412" />
  <path
     class="cls-1"
     d="m 635.62,230.46025 a 1.76,1.76 0 1 1 1.52,2 1.76,1.76 0 0 1 -1.52,-2 z"
     id="path414" />
  <path
     class="cls-1"
     d="m 643.23,240.31025 a 1.71,1.71 0 0 1 0.67,-1.16 1.73,1.73 0 0 1 1.3,-0.36 1.76,1.76 0 1 1 -0.45,3.49 1.75,1.75 0 0 1 -1.52,-1.97 z"
     id="path416" />
  <path
     class="cls-1"
     d="m 621.28,272.99025 a 1.77,1.77 0 0 1 2,-1.52 1.76,1.76 0 1 1 -2,1.52 z"
     id="path418" />
  <path
     class="cls-1"
     d="m 611.43,280.60025 a 1.76,1.76 0 1 1 1.52,2 1.76,1.76 0 0 1 -1.52,-2 z"
     id="path420" />
  <path
     class="cls-1"
     d="m 628.89,282.84025 a 1.76,1.76 0 1 1 3.49,0.45 1.76,1.76 0 0 1 -3.49,-0.45 z"
     id="path422" />
  <path
     class="cls-1"
     d="m 613.67,263.11025 a 1.77,1.77 0 0 1 2,-1.52 1.76,1.76 0 1 1 -2,1.52 z"
     id="path424" />
  <path
     class="cls-1"
     d="m 631.13,265.38025 a 1.76,1.76 0 0 1 3.49,0.45 1.76,1.76 0 1 1 -3.49,-0.45 z"
     id="path426" />
  <path
     class="cls-1"
     d="m 638.74,275.23025 a 1.87,1.87 0 0 1 0.08,-0.34 1.76,1.76 0 0 1 1.89,-1.18 1.77,1.77 0 0 1 1.53,1.62 1.38,1.38 0 0 1 0,0.35 1.71,1.71 0 0 1 -0.67,1.17 1.73,1.73 0 0 1 -1.3,0.36 1.77,1.77 0 0 1 -1.53,-1.98 z"
     id="path428" />
  <path
     class="cls-1"
     d="m 623.88,256.83025 a 1.74,1.74 0 0 1 -0.36,-1.3 1.68,1.68 0 0 1 0.23,-0.66 1.76,1.76 0 1 1 1.3,2.63 1.71,1.71 0 0 1 -1.17,-0.67 z"
     id="path430" />
  <path
     class="cls-1"
     d="m 616.8,301.91025 a 1.76,1.76 0 1 1 1.52,2 1.76,1.76 0 0 1 -1.52,-2 z"
     id="path432" />
  <path
     class="cls-1"
     d="m 607,309.52025 a 1.76,1.76 0 1 1 1.52,2 1.76,1.76 0 0 1 -1.52,-2 z"
     id="path434" />
  <path
     class="cls-1"
     d="m 624.41,311.76025 a 1.76,1.76 0 1 1 1.52,2 1.76,1.76 0 0 1 -1.52,-2 z"
     id="path436" />
  <path
     class="cls-1"
     d="m 609.19,292.11025 a 1.76,1.76 0 1 1 1.52,2 1.76,1.76 0 0 1 -1.52,-2 z"
     id="path438" />
  <path
     class="cls-1"
     d="m 626.65,294.30025 a 1.76,1.76 0 1 1 1.52,2 1.76,1.76 0 0 1 -1.52,-2 z"
     id="path440" />
  <path
     class="cls-1"
     d="m 635.43,306.04025 a 1.74,1.74 0 0 1 -1.12,-1.19 1.76,1.76 0 0 1 1.92,-2.22 1.68,1.68 0 0 1 0.66,0.23 1.76,1.76 0 0 1 0.86,1.74 2,2 0 0 1 -0.08,0.35 2,2 0 0 1 -0.34,0.59 1.78,1.78 0 0 1 -1.55,0.59 2,2 0 0 1 -0.35,-0.09 z"
     id="path442" />
  <path
     class="cls-1"
     d="m 619,284.45025 v 0 a 1.77,1.77 0 0 1 0.42,-0.93 1.87,1.87 0 0 1 0.58,-0.41 1.73,1.73 0 0 1 1,-0.17 1.74,1.74 0 0 1 1.35,1 1.79,1.79 0 0 1 0.18,0.66 1.38,1.38 0 0 1 0,0.35 v 0 a 1.76,1.76 0 1 1 -3.49,-0.45 z"
     id="path444" />
  <path
     class="cls-1"
     d="m 603.1,284.18025 a 1.84,1.84 0 0 1 -0.66,-0.22 2.83,2.83 0 0 1 -0.28,-0.2 2.73,2.73 0 0 1 -0.23,-0.25 1.69,1.69 0 0 1 -0.3,-0.6 1.82,1.82 0 0 1 0,-0.7 1.75,1.75 0 0 1 2,-1.52 v 0 a 1.75,1.75 0 0 1 1.47,1.27 1.82,1.82 0 0 1 0.05,0.7 1.37,1.37 0 0 1 -0.08,0.35 1.75,1.75 0 0 1 -1.89,1.17 z"
     id="path446" />
  <path
     class="cls-1"
     d="m 604.7,326.98025 a 1.77,1.77 0 0 1 2,-1.52 1.76,1.76 0 1 1 -2,1.52 z"
     id="path448" />
  <path
     class="cls-1"
     d="m 622.16,329.22025 a 1.76,1.76 0 1 1 1.52,2 1.77,1.77 0 0 1 -1.52,-2 z"
     id="path450" />
  <path
     class="cls-1"
     d="m 614.55,319.37025 a 1.85,1.85 0 0 1 0.23,-0.66 1.76,1.76 0 0 1 3.27,1.11 3.59,3.59 0 0 1 -0.08,0.35 1.77,1.77 0 0 1 -3.42,-0.8 z"
     id="path452" />
  <path
     class="cls-1"
     d="m 598.62,319.11025 v 0 a 1.77,1.77 0 0 1 -0.94,-0.42 1.81,1.81 0 0 1 -0.6,-1.19 c 0,-0.12 0,-0.24 0,-0.36 a 1.76,1.76 0 0 1 2,-1.52 1.89,1.89 0 0 1 0.67,0.22 1.76,1.76 0 0 1 0.86,1.75 3.59,3.59 0 0 1 -0.08,0.35 1.81,1.81 0 0 1 -0.88,1 1.73,1.73 0 0 1 -1.03,0.17 z"
     id="path454" />
  <path
     class="cls-1"
     d="m 633.54,323.59025 a 1.78,1.78 0 0 1 -1.17,-0.67 1.75,1.75 0 0 1 -0.36,-1.3 v 0 a 1.77,1.77 0 0 1 2,-1.53 1.67,1.67 0 0 1 0.67,0.23 1.35,1.35 0 0 1 0.27,0.2 1.78,1.78 0 0 1 0.6,1.19 2.08,2.08 0 0 1 0,0.35 v 0 a 1.78,1.78 0 0 1 -0.67,1.17 1.75,1.75 0 0 1 -1.3,0.36 z"
     id="path456" />
  <path
     class="cls-1"
     d="m 665.17,207.64025 a 1.76,1.76 0 1 1 1.52,2 1.77,1.77 0 0 1 -1.52,-2 z"
     id="path458" />
  <path
     class="cls-1"
     d="m 650.25,207.19025 a 1.77,1.77 0 0 1 -1,0.17 v 0 a 1.7,1.7 0 0 1 -0.93,-0.42 1.78,1.78 0 0 1 -0.6,-1.19 2.17,2.17 0 0 1 0,-0.36 1.76,1.76 0 0 1 2,-1.52 1.62,1.62 0 0 1 0.66,0.23 1.71,1.71 0 0 1 0.81,1 1.77,1.77 0 0 1 0.05,0.69 1.37,1.37 0 0 1 -0.08,0.35 1.76,1.76 0 0 1 -0.91,1.05 z"
     id="path460" />
  <path
     class="cls-1"
     d="m 655.32,215.25025 a 1.76,1.76 0 1 1 1.52,2 1.77,1.77 0 0 1 -1.52,-2 z"
     id="path462" />
  <path
     class="cls-1"
     d="m 672.78,217.49025 a 1.76,1.76 0 1 1 1.52,2 1.77,1.77 0 0 1 -1.52,-2 z"
     id="path464" />
  <path
     class="cls-1"
     d="m 675,200.03025 a 1.76,1.76 0 1 1 1.52,2 1.77,1.77 0 0 1 -1.52,-2 z"
     id="path466" />
  <path
     class="cls-1"
     d="m 682.63,209.88025 a 1.62,1.62 0 0 1 0.23,-0.66 1.73,1.73 0 0 1 1.74,-0.86 1.78,1.78 0 0 1 0.66,0.22 1.75,1.75 0 0 1 0.87,1.39 1.45,1.45 0 0 1 0,0.36 1.76,1.76 0 1 1 -3.49,-0.45 z"
     id="path468" />
  <path
     class="cls-1"
     d="m 660.69,242.56025 a 1.76,1.76 0 1 1 1.52,2 1.76,1.76 0 0 1 -1.52,-2 z"
     id="path470" />
  <path
     class="cls-1"
     d="m 650.84,250.17025 a 1.76,1.76 0 1 1 1.52,2 1.76,1.76 0 0 1 -1.52,-2 z"
     id="path472" />
  <path
     class="cls-1"
     d="m 668.3,252.41025 a 1.76,1.76 0 0 1 3.49,0.45 1.76,1.76 0 0 1 -3.49,-0.45 z"
     id="path474" />
  <path
     class="cls-1"
     d="m 653.08,232.71025 a 1.76,1.76 0 1 1 1.52,2 1.76,1.76 0 0 1 -1.52,-2 z"
     id="path476" />
  <path
     class="cls-1"
     d="m 670.54,234.95025 a 1.76,1.76 0 0 1 3.49,0.45 1.76,1.76 0 1 1 -3.49,-0.45 z"
     id="path478" />
  <path
     class="cls-1"
     d="m 679.32,246.69025 a 1.76,1.76 0 0 1 -1.12,-1.19 1.82,1.82 0 0 1 -0.05,-0.7 1.75,1.75 0 0 1 2,-1.52 1.84,1.84 0 0 1 0.66,0.22 1.78,1.78 0 0 1 0.81,1.05 1.82,1.82 0 0 1 0,0.7 1.77,1.77 0 0 1 -2,1.52 2,2 0 0 1 -0.3,-0.08 z"
     id="path480" />
  <path
     class="cls-1"
     d="m 662.93,225.11025 v 0 a 1.8,1.8 0 0 1 0.42,-0.94 1.76,1.76 0 0 1 0.53,-0.41 1.78,1.78 0 0 1 1,-0.18 1.83,1.83 0 0 1 1.17,0.67 1.75,1.75 0 0 1 0.18,0.29 1.85,1.85 0 0 1 0.18,0.66 1.37,1.37 0 0 1 0,0.35 v 0 a 1.76,1.76 0 1 1 -3.49,-0.44 z"
     id="path482" />
  <path
     class="cls-1"
     d="m 647,224.82025 v 0 a 1.69,1.69 0 0 1 -0.94,-0.42 1.76,1.76 0 0 1 -0.58,-1.55 1.3,1.3 0 0 1 0.08,-0.34 1.73,1.73 0 0 1 0.87,-1 1.74,1.74 0 0 1 2,0.25 1.71,1.71 0 0 1 0.59,1.19 1.38,1.38 0 0 1 0,0.35 2,2 0 0 1 -0.08,0.35 1.75,1.75 0 0 1 -1.89,1.17 z"
     id="path484" />
  <path
     class="cls-1"
     d="m 656.2,277.48025 a 1.76,1.76 0 1 1 1.52,2 1.76,1.76 0 0 1 -1.52,-2 z"
     id="path486" />
  <path
     class="cls-1"
     d="m 646.35,279.11025 a 1.76,1.76 0 1 1 1.52,2 1.77,1.77 0 0 1 -1.52,-2 z"
     id="path488" />
  <path
     class="cls-1"
     d="m 663.81,281.33025 a 1.76,1.76 0 1 1 1.52,2 1.75,1.75 0 0 1 -1.52,-2 z"
     id="path490" />
  <path
     class="cls-1"
     d="m 648.59,267.63025 a 1.76,1.76 0 1 1 1.52,2 1.77,1.77 0 0 1 -1.52,-2 z"
     id="path492" />
  <path
     class="cls-1"
     d="m 666.05,269.87025 a 1.764405,1.764405 0 0 1 3.5,0.45 1.764405,1.764405 0 0 1 -3.5,-0.45 z"
     id="path494" />
  <path
     class="cls-1"
     d="m 659,261.56025 a 1.76,1.76 0 0 1 -0.41,-0.53 1.73,1.73 0 0 1 -0.18,-1 1.79,1.79 0 0 1 0.23,-0.66 1.75,1.75 0 0 1 1.74,-0.87 1.77,1.77 0 0 1 1.53,2 3.38,3.38 0 0 1 -0.08,0.34 1.76,1.76 0 0 1 -1.89,1.18 1.71,1.71 0 0 1 -0.94,-0.46 z"
     id="path496" />
  <path
     class="cls-1"
     d="m 642.51,259.74025 a 1.28,1.28 0 0 1 -0.35,-0.08 1.66,1.66 0 0 1 -0.59,-0.34 1.78,1.78 0 0 1 -0.54,-0.85 1.8,1.8 0 0 1 0,-0.7 1.77,1.77 0 0 1 2,-1.52 1.67,1.67 0 0 1 0.67,0.23 1.82,1.82 0 0 1 0.81,1 1.77,1.77 0 0 1 0.05,0.69 3.59,3.59 0 0 1 -0.08,0.35 1.85,1.85 0 0 1 -0.35,0.59 1.76,1.76 0 0 1 -0.53,0.41 1.73,1.73 0 0 1 -1.09,0.22 z"
     id="path498" />
  <path
     class="cls-1"
     d="m 677.43,264.23025 a 1.71,1.71 0 0 1 -1.17,-0.67 1.75,1.75 0 0 1 -0.18,-0.29 1.81,1.81 0 0 1 -0.19,-0.65 c 0,-0.12 0,-0.24 0,-0.36 v 0 a 1.76,1.76 0 0 1 2,-1.52 1.83,1.83 0 0 1 0.67,0.22 1.89,1.89 0 0 1 0.27,0.2 1.83,1.83 0 0 1 0.54,0.85 2,2 0 0 1 0.06,0.34 c 0,0.12 0,0.24 0,0.36 v 0 a 1.83,1.83 0 0 1 -0.67,1.17 1.79,1.79 0 0 1 -1.3,0.35 z"
     id="path500" />
  <path
     class="cls-1"
     d="m 649.9,322.92025 a 1.76,1.76 0 0 1 0.53,-0.41 1.73,1.73 0 0 1 1,-0.17 1.7,1.7 0 0 1 0.94,0.42 1.78,1.78 0 0 1 0.59,1.52 v 0 l -1.64,1.54 H 651 a 1.71,1.71 0 0 1 -0.94,-0.43 1.75,1.75 0 0 1 -0.59,-1.54 2,2 0 0 1 0.09,-0.35 1.66,1.66 0 0 1 0.34,-0.58 z"
     id="path502" />
  <path
     class="cls-1"
     d="m 651.72,306.40025 a 1.76,1.76 0 0 1 3.49,0.45 1.76,1.76 0 0 1 -3.49,-0.45 z"
     id="path504" />
  <path
     class="cls-1"
     d="m 641.87,314.01025 a 1.76,1.76 0 1 1 1.52,2 1.76,1.76 0 0 1 -1.52,-2 z"
     id="path506" />
  <path
     class="cls-1"
     d="m 661.3,314.73025 a 1.76,1.76 0 0 1 1.46,1.25 l -0.89,0.68 c -0.56,0.44 -1.11,0.9 -1.66,1.35 a 1.76,1.76 0 0 1 1.09,-3.28 z"
     id="path508" />
  <path
     class="cls-1"
     d="m 644.11,296.55025 a 1.76,1.76 0 1 1 1.52,2 1.76,1.76 0 0 1 -1.52,-2 z"
     id="path510" />
  <path
     class="cls-1"
     d="m 661.57,298.79025 a 1.76,1.76 0 1 1 1.52,2 1.76,1.76 0 0 1 -1.52,-2 z"
     id="path512" />
  <path
     class="cls-1"
     d="m 671.15,307.11025 a 1.84,1.84 0 0 1 0.66,0.22 1.78,1.78 0 0 1 0.81,1 1.6,1.6 0 0 1 0,0.54 l -1.92,1.27 -0.45,0.31 a 2.08,2.08 0 0 1 -0.54,-0.32 1.75,1.75 0 0 1 -0.59,-1.19 1.45,1.45 0 0 1 0,-0.36 1.75,1.75 0 0 1 2.03,-1.47 z"
     id="path514" />
  <path
     class="cls-1"
     d="m 655.48,290.91025 a 1.77,1.77 0 0 1 -0.94,-0.43 1.76,1.76 0 1 1 2.91,-1.09 1.3,1.3 0 0 1 -0.08,0.34 1.73,1.73 0 0 1 -0.87,1 1.78,1.78 0 0 1 -1.02,0.18 z"
     id="path516" />
  <path
     class="cls-1"
     d="m 638,288.67025 a 2,2 0 0 1 -0.35,-0.09 1.66,1.66 0 0 1 -0.59,-0.34 1.76,1.76 0 0 1 -0.58,-1.55 v 0 a 1.3,1.3 0 0 1 0.08,-0.34 1.69,1.69 0 0 1 0.59,-0.82 1.75,1.75 0 0 1 1.3,-0.36 v 0 a 1.77,1.77 0 0 1 0.94,0.43 1.75,1.75 0 0 1 0.61,1.51 v 0 a 1.77,1.77 0 0 1 -1.61,1.54 z"
     id="path518" />
  <path
     class="cls-1"
     d="m 671.42,291.18025 v 0 a 1.84,1.84 0 0 1 0.42,-0.94 1.68,1.68 0 0 1 0.54,-0.41 1.8,1.8 0 0 1 0.65,-0.18 1.45,1.45 0 0 1 0.36,0 1.73,1.73 0 0 1 1.17,0.67 1.69,1.69 0 0 1 0.3,0.6 1.82,1.82 0 0 1 0,0.7 1.75,1.75 0 0 1 -0.67,1.17 1.76,1.76 0 0 1 -2.82,-1.62 z"
     id="path520" />
  <path
     class="cls-1"
     d="m 641.59,329.94025 a 1.76,1.76 0 1 1 -2,1.53 1.77,1.77 0 0 1 2,-1.53 z"
     id="path522" />
  <path
     class="cls-1"
     d="m 712.19,187.05025 a 1.76,1.76 0 1 1 1.52,2 1.76,1.76 0 0 1 -1.52,-2 z"
     id="path524" />
  <path
     class="cls-1"
     d="m 722,179.44025 a 1.76,1.76 0 0 1 1,-1.35 1.85,1.85 0 0 1 0.66,-0.18 2.17,2.17 0 0 1 0.36,0 1.76,1.76 0 0 1 -0.45,3.49 1.75,1.75 0 0 1 -1.57,-1.96 z"
     id="path526" />
  <path
     class="cls-1"
     d="m 700.09,212.11025 a 1.76,1.76 0 1 1 1.52,2 1.76,1.76 0 0 1 -1.52,-2 z"
     id="path528" />
  <path
     class="cls-1"
     d="m 690.24,219.73025 a 1.76,1.76 0 1 1 1.52,2 1.76,1.76 0 0 1 -1.52,-2 z"
     id="path530" />
  <path
     class="cls-1"
     d="m 707.7,221.97025 a 1.76,1.76 0 1 1 3.49,0.45 1.76,1.76 0 1 1 -3.49,-0.45 z"
     id="path532" />
  <path
     class="cls-1"
     d="m 692.48,202.27025 a 1.76,1.76 0 0 1 2,-1.52 1.76,1.76 0 1 1 -0.45,3.49 1.76,1.76 0 0 1 -1.55,-1.97 z"
     id="path534" />
  <path
     class="cls-1"
     d="m 709.94,204.51025 a 1.77,1.77 0 0 1 2,-1.52 1.76,1.76 0 1 1 -2,1.52 z"
     id="path536" />
  <path
     class="cls-1"
     d="m 717.55,214.36025 a 1.87,1.87 0 0 1 0.08,-0.34 1.76,1.76 0 0 1 0.88,-1 1.76,1.76 0 0 1 2.49,1.09 1.51,1.51 0 0 1 0,0.7 1.76,1.76 0 0 1 -3.49,-0.45 z"
     id="path538" />
  <path
     class="cls-1"
     d="m 702.33,194.66025 a 1.68,1.68 0 0 1 0.23,-0.66 1.76,1.76 0 0 1 3.27,1.11 3.59,3.59 0 0 1 -0.08,0.35 1.77,1.77 0 0 1 -3.42,-0.8 z"
     id="path540" />
  <path
     class="cls-1"
     d="m 686.4,194.39025 a 1.8,1.8 0 0 1 -0.35,-0.08 2,2 0 0 1 -0.59,-0.34 2.39,2.39 0 0 1 -0.22,-0.23 l 1.31,-0.59 c 0.3,-0.13 0.61,-0.26 0.9,-0.4 l 0.9,-0.4 a 1.8,1.8 0 0 1 0,0.52 3.38,3.38 0 0 1 -0.08,0.34 1.79,1.79 0 0 1 -0.35,0.6 2.15,2.15 0 0 1 -0.53,0.41 1.73,1.73 0 0 1 -0.99,0.17 z"
     id="path542" />
  <path
     class="cls-1"
     d="m 721.32,198.87025 a 1.7,1.7 0 0 1 -0.94,-0.42 1.37,1.37 0 0 1 -0.23,-0.25 1.73,1.73 0 0 1 -0.37,-0.94 c 0,-0.12 0,-0.24 0,-0.36 v 0 a 1.77,1.77 0 0 1 2,-1.52 1.67,1.67 0 0 1 0.67,0.23 1.31,1.31 0 0 1 0.27,0.19 1.83,1.83 0 0 1 0.54,0.85 2,2 0 0 1 0.06,0.35 c 0,0.11 0,0.23 0,0.35 v 0 a 1.76,1.76 0 0 1 -2,1.52 z"
     id="path544" />
  <path
     class="cls-1"
     d="m 695.61,247.04025 a 1.76,1.76 0 1 1 1.52,2 1.76,1.76 0 0 1 -1.52,-2 z"
     id="path546" />
  <path
     class="cls-1"
     d="m 685.76,254.65025 a 1.76,1.76 0 1 1 3.49,0.45 1.77,1.77 0 0 1 -2,1.52 1.75,1.75 0 0 1 -1.49,-1.97 z"
     id="path548" />
  <path
     class="cls-1"
     d="m 703.22,256.89025 a 1.76,1.76 0 1 1 1.52,2 1.76,1.76 0 0 1 -1.52,-2 z"
     id="path550" />
  <path
     class="cls-1"
     d="m 688,237.19025 a 1.76,1.76 0 1 1 1.52,2 1.75,1.75 0 0 1 -1.52,-2 z"
     id="path552" />
  <path
     class="cls-1"
     d="m 705.46,239.43025 a 1.76,1.76 0 1 1 1.52,2 1.76,1.76 0 0 1 -1.52,-2 z"
     id="path554" />
  <path
     class="cls-1"
     d="m 714.59,251.25025 a 1.76,1.76 0 0 1 -0.94,-0.42 1.73,1.73 0 0 1 -0.59,-1.19 1.45,1.45 0 0 1 0,-0.36 1.76,1.76 0 0 1 2,-1.52 1.68,1.68 0 0 1 0.66,0.23 1.76,1.76 0 0 1 0.86,1.74 2,2 0 0 1 -0.08,0.35 1.77,1.77 0 0 1 -1.89,1.17 z"
     id="path556" />
  <path
     class="cls-1"
     d="m 699.37,231.55025 a 1.76,1.76 0 1 1 2,-1.52 1.37,1.37 0 0 1 -0.08,0.35 1.75,1.75 0 0 1 -1.89,1.17 z"
     id="path558" />
  <path
     class="cls-1"
     d="m 682.27,229.32025 a 2.17,2.17 0 0 1 -0.36,0 2,2 0 0 1 -0.35,-0.08 1.77,1.77 0 0 1 -0.31,-0.15 1.66,1.66 0 0 1 -0.51,-0.44 1.69,1.69 0 0 1 -0.3,-0.6 1.82,1.82 0 0 1 -0.05,-0.7 v 0 a 1.37,1.37 0 0 1 0.08,-0.35 2.92,2.92 0 0 1 0.14,-0.31 1.84,1.84 0 0 1 0.45,-0.51 1.71,1.71 0 0 1 1.3,-0.35 v 0 a 1.75,1.75 0 0 1 1.52,2 v 0 a 1.73,1.73 0 0 1 -0.67,1.17 1.88,1.88 0 0 1 -0.6,0.3 2,2 0 0 1 -0.34,0.02 z"
     id="path560" />
  <path
     class="cls-1"
     d="m 715.31,231.82025 v 0 a 1.77,1.77 0 0 1 0.42,-0.93 1.87,1.87 0 0 1 0.54,-0.42 1.8,1.8 0 0 1 0.65,-0.18 2.17,2.17 0 0 1 0.36,0 1.75,1.75 0 0 1 1.17,0.67 1.79,1.79 0 0 1 0.35,1.3 1.73,1.73 0 0 1 -0.67,1.17 1.69,1.69 0 0 1 -1.3,0.35 1.76,1.76 0 0 1 -1.52,-1.96 z"
     id="path562" />
  <path
     class="cls-1"
     d="m 690.85,291.90025 a 1.76,1.76 0 0 1 -0.09,3.5 1.45,1.45 0 0 1 -0.36,0 1.47,1.47 0 0 1 -0.35,-0.08 1.75,1.75 0 0 1 -1.17,-1.89 1.84,1.84 0 0 1 0.22,-0.66 1.78,1.78 0 0 1 1.75,-0.87 z"
     id="path564" />
  <path
     class="cls-1"
     d="m 691.12,281.96025 a 1.77,1.77 0 0 1 2,-1.52 1.76,1.76 0 1 1 -2,1.52 z"
     id="path566" />
  <path
     class="cls-1"
     d="m 675.18,281.69025 a 1.84,1.84 0 0 1 -0.66,-0.22 1.67,1.67 0 0 1 -0.5,-0.45 1.72,1.72 0 0 1 -0.31,-0.6 1.82,1.82 0 0 1 -0.05,-0.7 1.68,1.68 0 0 1 0.23,-0.66 1.76,1.76 0 0 1 3.26,1.11 1.73,1.73 0 0 1 -0.67,1.17 1.78,1.78 0 0 1 -0.6,0.3 1.82,1.82 0 0 1 -0.7,0.05 z"
     id="path568" />
  <path
     class="cls-1"
     d="m 681.27,283.57025 a 1.76,1.76 0 1 1 1.52,2 1.76,1.76 0 0 1 -1.52,-2 z"
     id="path570" />
  <path
     class="cls-1"
     d="m 700.7,284.29025 a 1.76,1.76 0 1 1 -2,1.52 1.77,1.77 0 0 1 2,-1.52 z"
     id="path572" />
  <path
     class="cls-1"
     d="m 683.51,272.11025 a 1.76,1.76 0 1 1 1.52,2 1.76,1.76 0 0 1 -1.52,-2 z"
     id="path574" />
  <path
     class="cls-1"
     d="m 701,274.35025 a 1.76,1.76 0 1 1 1.52,2 1.77,1.77 0 0 1 -1.52,-2 z"
     id="path576" />
  <path
     class="cls-1"
     d="m 710.55,276.68025 a 1.77,1.77 0 1 1 -1.3,0.36 1.76,1.76 0 0 1 1.3,-0.36 z"
     id="path578" />
  <path
     class="cls-1"
     d="m 694.89,266.47025 a 1.7,1.7 0 0 1 -0.94,-0.42 1.77,1.77 0 0 1 -0.59,-1.55 2.25,2.25 0 0 1 0.09,-0.35 1.66,1.66 0 0 1 0.34,-0.59 1.76,1.76 0 0 1 0.53,-0.41 1.73,1.73 0 0 1 1,-0.17 1.77,1.77 0 0 1 1.54,1.61 c 0,0.12 0,0.24 0,0.36 a 3.59,3.59 0 0 1 -0.08,0.35 1.81,1.81 0 0 1 -0.88,1 1.73,1.73 0 0 1 -1.01,0.17 z"
     id="path580" />
  <path
     class="cls-1"
     d="m 681,299.51025 a 1.76,1.76 0 1 1 -2,1.52 1.76,1.76 0 0 1 2,-1.52 z"
     id="path582" />
  <path
     class="cls-1"
     d="m 762.08,88.750248 a 1.78,1.78 0 0 1 -1.17,-0.68 c 0.67,-0.92 1.36,-1.81 2.06,-2.69 a 1.74,1.74 0 0 1 1.08,1.84 1.76,1.76 0 0 1 -1.97,1.53 z"
     id="path584" />
  <path
     class="cls-1"
     d="m 770.14,95.110248 v 0 a 1.77,1.77 0 0 1 0.94,0.43 1.73,1.73 0 0 1 0.59,1.19 1.37,1.37 0 0 1 0,0.35 1.28,1.28 0 0 1 -0.08,0.35 1.71,1.71 0 0 1 -0.88,1 1.63,1.63 0 0 1 -0.65,0.19 h -0.36 l -0.35,-0.08 a 1.85,1.85 0 0 1 -0.59,-0.35 1.75,1.75 0 0 1 -0.58,-1.54 1.37,1.37 0 0 1 0.08,-0.35 1.76,1.76 0 0 1 0.87,-1 1.78,1.78 0 0 1 1.01,-0.19 z"
     id="path586" />
  <path
     class="cls-1"
     d="m 749.72,129.75025 a 3.59,3.59 0 0 1 -0.08,0.35 1.77,1.77 0 0 1 -3.42,-0.8 1.68,1.68 0 0 1 0.23,-0.66 1.76,1.76 0 0 1 3.27,1.11 z"
     id="path588" />
  <path
     class="cls-1"
     d="m 750,113.81025 a 1.76,1.76 0 1 1 0.45,-3.49 1.76,1.76 0 1 1 -0.45,3.49 z"
     id="path590" />
  <path
     class="cls-1"
     d="m 759.57,122.11025 a 1.76,1.76 0 1 1 -1.52,-2 1.77,1.77 0 0 1 1.52,2 z"
     id="path592" />
  <path
     class="cls-1"
     d="m 761.81,104.68025 a 1.76,1.76 0 1 1 -1.52,-2 1.77,1.77 0 0 1 1.52,2 z"
     id="path594" />
  <path
     class="cls-1"
     d="m 747.47,147.21025 a 1.76,1.76 0 1 1 -1.52,-2 1.76,1.76 0 0 1 1.52,2 z"
     id="path596" />
  <path
     class="cls-1"
     d="m 737.62,154.82025 a 1.76,1.76 0 1 1 -3.49,-0.45 1.76,1.76 0 0 1 3.49,0.45 z"
     id="path598" />
  <path
     class="cls-1"
     d="m 755.08,157.11025 a 1.76,1.76 0 1 1 -1.52,-2 1.76,1.76 0 0 1 1.52,2 z"
     id="path600" />
  <path
     class="cls-1"
     d="m 738.11,138.89025 c 0.4,-1 0.79,-2 1.17,-3.07 a 1.72,1.72 0 0 1 0.58,1.54 1.75,1.75 0 0 1 -1.75,1.53 z"
     id="path602" />
  <path
     class="cls-1"
     d="m 757.33,139.60025 a 1.76,1.76 0 1 1 -1.53,-2 1.77,1.77 0 0 1 1.53,2 z"
     id="path604" />
  <path
     class="cls-1"
     d="m 763.41,147.48025 a 1.77,1.77 0 0 1 1.53,1.62 1.46,1.46 0 0 1 0,0.36 1.71,1.71 0 0 1 -0.67,1.16 1.73,1.73 0 0 1 -1.3,0.36 1.77,1.77 0 0 1 -1.52,-2 2,2 0 0 1 0.08,-0.35 1.74,1.74 0 0 1 0.88,-1 1.81,1.81 0 0 1 1,-0.15 z"
     id="path606" />
  <path
     class="cls-1"
     d="m 739.5,181.69025 a 1.76,1.76 0 1 1 1.52,2 1.76,1.76 0 0 1 -1.52,-2 z"
     id="path608" />
  <path
     class="cls-1"
     d="m 729.65,189.29025 a 1.76,1.76 0 1 1 1.52,2 1.76,1.76 0 0 1 -1.52,-2 z"
     id="path610" />
  <path
     class="cls-1"
     d="m 747.11,191.54025 a 1.76,1.76 0 1 1 1.52,2 1.76,1.76 0 0 1 -1.52,-2 z"
     id="path612" />
  <path
     class="cls-1"
     d="m 731.89,171.83025 a 1.76,1.76 0 1 1 1.52,2 1.76,1.76 0 0 1 -1.52,-2 z"
     id="path614" />
  <path
     class="cls-1"
     d="m 749.35,174.11025 a 1.76,1.76 0 1 1 1.52,2 1.76,1.76 0 0 1 -1.52,-2 z"
     id="path616" />
  <path
     class="cls-1"
     d="m 758.13,185.82025 a 1.76,1.76 0 0 1 0.8,-3.41 1.66,1.66 0 0 1 0.66,0.22 1.78,1.78 0 0 1 0.81,1 1.82,1.82 0 0 1 0.05,0.7 1.87,1.87 0 0 1 -0.08,0.34 2,2 0 0 1 -0.34,0.59 1.88,1.88 0 0 1 -0.25,0.24 1.79,1.79 0 0 1 -1.3,0.35 2,2 0 0 1 -0.35,-0.03 z"
     id="path618" />
  <path
     class="cls-1"
     d="m 743.26,166.20025 a 1.77,1.77 0 0 1 -0.94,-0.43 1.76,1.76 0 1 1 2.91,-1.1 1.37,1.37 0 0 1 -0.08,0.35 1.76,1.76 0 0 1 -0.87,1 1.86,1.86 0 0 1 -1.02,0.18 z"
     id="path620" />
  <path
     class="cls-1"
     d="m 726.16,163.96025 a 1.45,1.45 0 0 1 -0.36,0 1.37,1.37 0 0 1 -0.35,-0.08 1.73,1.73 0 0 1 -0.31,-0.14 2.83,2.83 0 0 1 -0.28,-0.2 v 0 c 0.33,-0.44 0.65,-0.89 1,-1.34 l 0.24,-0.32 c 0.28,-0.39 0.57,-0.77 0.85,-1.17 l 0.27,0.19 a 1.77,1.77 0 0 1 0.58,1.55 v 0 a 1.76,1.76 0 0 1 -1.64,1.51 z"
     id="path622" />
  <path
     class="cls-1"
     d="m 759.2,166.47025 v 0 a 1.7,1.7 0 0 1 0.67,-1.17 1.41,1.41 0 0 1 0.29,-0.18 1.73,1.73 0 0 1 1,-0.17 v 0 a 1.76,1.76 0 0 1 1.52,2 1.71,1.71 0 0 1 -0.68,1.16 1.75,1.75 0 0 1 -2.82,-1.61 z"
     id="path624" />
  <path
     class="cls-1"
     d="m 735,216.61025 a 1.76,1.76 0 1 1 1.52,2 1.77,1.77 0 0 1 -1.52,-2 z"
     id="path626" />
  <path
     class="cls-1"
     d="m 725.16,224.21025 a 1.76,1.76 0 1 1 1.52,2 1.76,1.76 0 0 1 -1.52,-2 z"
     id="path628" />
  <path
     class="cls-1"
     d="m 742.62,226.46025 a 1.76,1.76 0 1 1 1.52,2 1.77,1.77 0 0 1 -1.52,-2 z"
     id="path630" />
  <path
     class="cls-1"
     d="m 727.4,206.75025 a 1.76,1.76 0 1 1 1.52,2 1.77,1.77 0 0 1 -1.52,-2 z"
     id="path632" />
  <path
     class="cls-1"
     d="m 744.86,209.00025 a 1.76,1.76 0 1 1 1.53,2 1.77,1.77 0 0 1 -1.53,-2 z"
     id="path634" />
  <path
     class="cls-1"
     d="m 738.78,201.11025 a 1.71,1.71 0 0 1 -0.94,-0.43 1.75,1.75 0 0 1 -0.59,-1.54 1.79,1.79 0 0 1 0.09,-0.35 1.66,1.66 0 0 1 0.34,-0.59 1.76,1.76 0 0 1 0.53,-0.41 1.73,1.73 0 0 1 1,-0.18 1.71,1.71 0 0 1 0.94,0.43 1.75,1.75 0 0 1 0.59,1.54 3.59,3.59 0 0 1 -0.08,0.35 1.81,1.81 0 0 1 -0.88,1 1.73,1.73 0 0 1 -1,0.18 z"
     id="path636" />
  <path
     class="cls-1"
     d="m 730.53,251.53025 a 1.76,1.76 0 1 1 1.52,2 1.76,1.76 0 0 1 -1.52,-2 z"
     id="path638" />
  <path
     class="cls-1"
     d="m 720.68,259.11025 a 1.76,1.76 0 1 1 1.52,2 1.76,1.76 0 0 1 -1.52,-2 z"
     id="path640" />
  <path
     class="cls-1"
     d="m 738.14,261.38025 a 1.76,1.76 0 0 1 3.49,0.45 1.76,1.76 0 1 1 -3.49,-0.45 z"
     id="path642" />
  <path
     class="cls-1"
     d="m 722.92,241.67025 a 1.76,1.76 0 1 1 1.52,2 1.76,1.76 0 0 1 -1.52,-2 z"
     id="path644" />
  <path
     class="cls-1"
     d="m 740.38,243.92025 a 1.76,1.76 0 1 1 1.52,2 1.77,1.77 0 0 1 -1.52,-2 z"
     id="path646" />
  <path
     class="cls-1"
     d="m 748,253.77025 a 1.75,1.75 0 0 1 2,-1.52 1.84,1.84 0 0 1 0.66,0.22 1.77,1.77 0 0 1 0.87,1.39 1.45,1.45 0 0 1 0,0.36 1.75,1.75 0 0 1 -0.67,1.17 1.79,1.79 0 0 1 -1.3,0.35 1.76,1.76 0 0 1 -1.56,-1.97 z"
     id="path648" />
  <path
     class="cls-1"
     d="m 734.29,236.04025 -0.35,-0.08 a 1.77,1.77 0 0 1 -1.17,-1.89 1.89,1.89 0 0 1 0.22,-0.67 1.78,1.78 0 0 1 1.75,-0.86 1.77,1.77 0 0 1 -0.09,3.51 z"
     id="path650" />
  <path
     class="cls-1"
     d="m 728,278.92025 a 1.76,1.76 0 1 1 -2,1.53 1.76,1.76 0 0 1 2,-1.53 z"
     id="path652" />
  <path
     class="cls-1"
     d="m 718.16,286.53025 a 1.77,1.77 0 0 1 1.48,1.32 c -1.12,0.33 -2.24,0.67 -3.35,1 a 1.75,1.75 0 0 1 1.87,-2.35 z"
     id="path654" />
  <path
     class="cls-1"
     d="m 718.43,276.60025 a 1.76,1.76 0 1 1 1.53,2 1.77,1.77 0 0 1 -1.53,-2 z"
     id="path656" />
  <path
     class="cls-1"
     d="m 737.86,277.32025 a 1.76,1.76 0 1 1 -2,1.52 1.76,1.76 0 0 1 2,-1.52 z"
     id="path658" />
  <path
     class="cls-1"
     d="m 745.47,281.17025 a 1.68,1.68 0 0 1 0.63,0.21 l -0.67,0.13 -1.56,0.32 a 1.76,1.76 0 0 1 1.6,-0.66 z"
     id="path660" />
  <path
     class="cls-1"
     d="m 728.64,270.29025 a 1.71,1.71 0 0 1 -0.35,-1.3 1.76,1.76 0 0 1 2,-1.53 1.71,1.71 0 0 1 0.93,0.43 1.78,1.78 0 0 1 0.6,1.19 2,2 0 0 1 0,0.35 1.76,1.76 0 0 1 -3.14,0.86 z"
     id="path662" />
  <path
     class="cls-1"
     d="m 712.35,268.71025 v 0 a 1.66,1.66 0 0 1 -0.94,-0.42 1.73,1.73 0 0 1 -0.58,-1.55 1.93,1.93 0 0 1 0.22,-0.66 1.77,1.77 0 0 1 0.73,-0.68 1.73,1.73 0 0 1 1,-0.18 1.71,1.71 0 0 1 0.94,0.43 1.76,1.76 0 0 1 0.6,1.19 2.08,2.08 0 0 1 0,0.35 3.59,3.59 0 0 1 -0.08,0.35 1.77,1.77 0 0 1 -0.88,1 1.73,1.73 0 0 1 -1.01,0.17 z"
     id="path664" />
  <path
     class="cls-1"
     d="m 746.33,272.78025 a 1.79,1.79 0 0 1 -0.23,-0.25 1.69,1.69 0 0 1 -0.3,-0.6 1.5,1.5 0 0 1 0,-0.7 1.37,1.37 0 0 1 0.08,-0.35 1.23,1.23 0 0 1 0.14,-0.31 1.79,1.79 0 0 1 0.2,-0.28 1.84,1.84 0 0 1 0.25,-0.23 1.34,1.34 0 0 1 0.28,-0.18 1.75,1.75 0 0 1 1,-0.17 v 0 a 1.7,1.7 0 0 1 0.93,0.42 1.77,1.77 0 0 1 0.59,1.55 3.38,3.38 0 0 1 -0.08,0.34 1.77,1.77 0 0 1 -1.89,1.18 1.62,1.62 0 0 1 -0.66,-0.23 1.38,1.38 0 0 1 -0.31,-0.19 z"
     id="path666" />
  <path
     class="cls-1"
     d="m 801.49,58.310248 a 1.76,1.76 0 0 1 -1.41,-1.1 c 1.07,-0.48 2.14,-0.94 3.23,-1.38 a 1.82,1.82 0 0 1 0.15,1 1.77,1.77 0 0 1 -1.97,1.48 z"
     id="path668" />
  <path
     class="cls-1"
     d="m 788.77,98.020248 a 1.78,1.78 0 0 1 0.35,1.299998 1.3,1.3 0 0 1 -0.08,0.34 1.74,1.74 0 0 1 -1.89,1.180004 1.84,1.84 0 0 1 -0.94,-0.42 1.78,1.78 0 0 1 -0.58,-1.550002 v 0 a 1.78,1.78 0 0 1 0.22,-0.66 1.77,1.77 0 0 1 2.92,-0.19 z"
     id="path670" />
  <path
     class="cls-1"
     d="m 791.36,81.860248 a 1.76,1.76 0 1 1 -1.52,-2 1.76,1.76 0 0 1 1.52,2 z"
     id="path672" />
  <path
     class="cls-1"
     d="m 773,80.960248 a 1.78,1.78 0 0 1 -1,0.18 1.71,1.71 0 0 1 -0.93,-0.43 1.78,1.78 0 0 1 -0.6,-1.19 2.08,2.08 0 0 1 0,-0.35 1.77,1.77 0 0 1 2,-1.53 1.62,1.62 0 0 1 0.66,0.23 1.74,1.74 0 0 1 0.81,1.05 1.77,1.77 0 0 1 0,0.69 1.28,1.28 0 0 1 -0.08,0.35 1.76,1.76 0 0 1 -0.86,1 z"
     id="path674" />
  <path
     class="cls-1"
     d="m 781.51,89.470248 a 1.76,1.76 0 1 1 -1.52,-2 1.76,1.76 0 0 1 1.52,2 z"
     id="path676" />
  <path
     class="cls-1"
     d="m 799,91.710248 a 1.76,1.76 0 1 1 -1.52,-2 1.76,1.76 0 0 1 1.52,2 z"
     id="path678" />
  <path
     class="cls-1"
     d="m 781.78,73.530248 a 1.76,1.76 0 1 1 2,-1.52 1.77,1.77 0 0 1 -2,1.52 z"
     id="path680" />
  <path
     class="cls-1"
     d="m 801.21,74.250248 a 1.76,1.76 0 1 1 -1.52,-2 1.76,1.76 0 0 1 1.52,2 z"
     id="path682" />
  <path
     class="cls-1"
     d="m 791.64,65.920248 a 1.71,1.71 0 0 1 -1.17,-0.67 1.75,1.75 0 0 1 -0.36,-1.3 1.78,1.78 0 0 1 1,-1.35 1.73,1.73 0 0 1 1,-0.17 1.7,1.7 0 0 1 0.94,0.42 1.78,1.78 0 0 1 0.6,1.19 c 0,0.12 0,0.24 0,0.36 a 1.77,1.77 0 0 1 -2.01,1.52 z"
     id="path684" />
  <path
     class="cls-1"
     d="m 783.11,132.27025 a 1.7,1.7 0 0 1 0.94,0.42 1.77,1.77 0 0 1 0.59,1.55 3.38,3.38 0 0 1 -0.08,0.34 1.83,1.83 0 0 1 -0.88,1 1.73,1.73 0 0 1 -1,0.17 1.76,1.76 0 0 1 -1.53,-2 2,2 0 0 1 0.09,-0.35 1.66,1.66 0 0 1 0.34,-0.59 1.76,1.76 0 0 1 0.53,-0.41 1.73,1.73 0 0 1 1,-0.13 z"
     id="path686" />
  <path
     class="cls-1"
     d="m 766.32,130.25025 a 1.35,1.35 0 0 1 0.27,0.2 1.78,1.78 0 0 1 0.54,0.85 1.86,1.86 0 0 1 0.06,0.34 c 0,0.12 0,0.23 0,0.36 v 0 a 3.38,3.38 0 0 1 -0.08,0.34 1.85,1.85 0 0 1 -0.35,0.59 1.75,1.75 0 0 1 -1.54,0.59 l -0.35,-0.08 a 1.83,1.83 0 0 1 -0.82,-0.59 2,2 0 0 1 -0.31,-0.61 1.77,1.77 0 0 1 -0.05,-0.69 v 0 a 1.77,1.77 0 0 1 2,-1.53 1.84,1.84 0 0 1 0.63,0.23 z"
     id="path688" />
  <path
     class="cls-1"
     d="m 786.88,116.78025 a 1.77,1.77 0 0 1 -2,1.52 1.76,1.76 0 1 1 2,-1.52 z"
     id="path690" />
  <path
     class="cls-1"
     d="m 767.9,112.56025 a 1.76,1.76 0 1 1 -2,1.53 1.71,1.71 0 0 1 0.67,-1.17 1.73,1.73 0 0 1 1.3,-0.36 z"
     id="path692" />
  <path
     class="cls-1"
     d="m 777,124.39025 a 1.76,1.76 0 0 1 -3.49,-0.45 1.76,1.76 0 1 1 3.49,0.45 z"
     id="path694" />
  <path
     class="cls-1"
     d="m 794.49,126.63025 a 1.77,1.77 0 0 1 -2,1.52 1.76,1.76 0 0 1 0.45,-3.49 1.76,1.76 0 0 1 1.55,1.97 z"
     id="path696" />
  <path
     class="cls-1"
     d="m 779.27,106.93025 a 1.76,1.76 0 1 1 -3.49,-0.45 1.76,1.76 0 0 1 3.49,0.45 z"
     id="path698" />
  <path
     class="cls-1"
     d="m 796.73,109.17025 a 1.76,1.76 0 1 1 -1.52,-2 1.76,1.76 0 0 1 1.52,2 z"
     id="path700" />
  <path
     class="cls-1"
     d="m 782.39,151.70025 a 1.76,1.76 0 1 1 -1.52,-2 1.76,1.76 0 0 1 1.52,2 z"
     id="path702" />
  <path
     class="cls-1"
     d="m 769.05,158.86025 a 1.76,1.76 0 1 1 1.52,2 1.75,1.75 0 0 1 -1.52,-2 z"
     id="path704" />
  <path
     class="cls-1"
     d="m 786.51,161.11025 a 1.76,1.76 0 1 1 1.52,2 1.76,1.76 0 0 1 -1.52,-2 z"
     id="path706" />
  <path
     class="cls-1"
     d="m 774.78,141.85025 a 1.76,1.76 0 1 1 -1.52,-2 1.76,1.76 0 0 1 1.52,2 z"
     id="path708" />
  <path
     class="cls-1"
     d="m 792.25,144.11025 a 1.76,1.76 0 1 1 -1.53,-2 1.77,1.77 0 0 1 1.53,2 z"
     id="path710" />
  <path
     class="cls-1"
     d="m 774.42,186.17025 a 1.76,1.76 0 1 1 1.52,2 1.75,1.75 0 0 1 -1.52,-2 z"
     id="path712" />
  <path
     class="cls-1"
     d="m 764.57,193.78025 a 1.76,1.76 0 0 1 3.49,0.45 1.77,1.77 0 0 1 -2,1.52 1.75,1.75 0 0 1 -1.49,-1.97 z"
     id="path714" />
  <path
     class="cls-1"
     d="m 782,196.02025 a 1.76,1.76 0 1 1 1.52,2 1.76,1.76 0 0 1 -1.52,-2 z"
     id="path716" />
  <path
     class="cls-1"
     d="m 766.81,176.32025 a 1.76,1.76 0 1 1 1.52,2 1.76,1.76 0 0 1 -1.52,-2 z"
     id="path718" />
  <path
     class="cls-1"
     d="m 784.27,178.56025 a 1.76,1.76 0 1 1 1.52,2 1.76,1.76 0 0 1 -1.52,-2 z"
     id="path720" />
  <path
     class="cls-1"
     d="m 792.46,189.96025 a 1.73,1.73 0 0 1 -0.59,-1.19 1.45,1.45 0 0 1 0,-0.36 1.76,1.76 0 0 1 2,-1.52 1.84,1.84 0 0 1 0.66,0.22 1.77,1.77 0 0 1 0.81,1.05 1.82,1.82 0 0 1 0,0.7 1.77,1.77 0 0 1 -2.91,1.1 z"
     id="path722" />
  <path
     class="cls-1"
     d="m 778.18,170.68025 a 2,2 0 0 1 -0.35,-0.08 1.77,1.77 0 0 1 -1.17,-1.89 1.84,1.84 0 0 1 0.22,-0.66 1.76,1.76 0 1 1 1.66,2.64 1.45,1.45 0 0 1 -0.36,-0.01 z"
     id="path724" />
  <path
     class="cls-1"
     d="m 769.93,221.11025 a 1.76,1.76 0 1 1 1.52,2 1.76,1.76 0 0 1 -1.52,-2 z"
     id="path726" />
  <path
     class="cls-1"
     d="m 754,220.82025 a 1.68,1.68 0 0 1 -0.66,-0.23 1.62,1.62 0 0 1 -0.5,-0.44 1.72,1.72 0 0 1 -0.31,-0.6 1.82,1.82 0 0 1 0,-0.7 1.62,1.62 0 0 1 0.23,-0.66 1.66,1.66 0 0 1 0.44,-0.51 1.71,1.71 0 0 1 1.3,-0.35 1.75,1.75 0 0 1 1.52,2 1.66,1.66 0 0 1 -0.22,0.66 1.84,1.84 0 0 1 -0.45,0.51 1.78,1.78 0 0 1 -0.6,0.3 1.82,1.82 0 0 1 -0.75,0.02 z"
     id="path728" />
  <path
     class="cls-1"
     d="m 760.08,228.70025 a 1.76,1.76 0 0 1 2,-1.52 1.76,1.76 0 0 1 -0.45,3.49 1.76,1.76 0 0 1 -1.55,-1.97 z"
     id="path730" />
  <path
     class="cls-1"
     d="m 777.54,230.94025 a 1.77,1.77 0 0 1 2,-1.52 1.76,1.76 0 1 1 -2,1.52 z"
     id="path732" />
  <path
     class="cls-1"
     d="m 762.32,211.24025 a 1.76,1.76 0 1 1 1.53,2 1.76,1.76 0 0 1 -1.53,-2 z"
     id="path734" />
  <path
     class="cls-1"
     d="m 779.78,213.48025 a 1.76,1.76 0 1 1 1.53,2 1.77,1.77 0 0 1 -1.53,-2 z"
     id="path736" />
  <path
     class="cls-1"
     d="m 787.39,223.33025 a 1.77,1.77 0 0 1 1,-1.35 1.79,1.79 0 0 1 0.66,-0.18 1.38,1.38 0 0 1 0.35,0 1.76,1.76 0 1 1 -2,1.52 z"
     id="path738" />
  <path
     class="cls-1"
     d="m 772.53,204.93025 a 1.71,1.71 0 0 1 -0.35,-1.3 1.75,1.75 0 0 1 2,-1.52 1.7,1.7 0 0 1 0.94,0.42 1.81,1.81 0 0 1 0.6,1.19 2.17,2.17 0 0 1 0,0.36 1.77,1.77 0 0 1 -2,1.52 1.71,1.71 0 0 1 -1.19,-0.67 z"
     id="path740" />
  <path
     class="cls-1"
     d="m 756.24,203.36025 v 0 a 1.78,1.78 0 0 1 -1.53,-2 1.79,1.79 0 0 1 0.23,-0.66 1.73,1.73 0 0 1 1.74,-0.86 1.66,1.66 0 0 1 0.67,0.22 1.8,1.8 0 0 1 0.87,1.39 2.17,2.17 0 0 1 0,0.36 3.38,3.38 0 0 1 -0.08,0.34 1.86,1.86 0 0 1 -0.59,0.83 l -0.29,0.18 a 1.81,1.81 0 0 1 -1.02,0.2 z"
     id="path742" />
  <path
     class="cls-1"
     d="m 765.18,271.95025 a 1.76,1.76 0 0 1 1.52,2 3.59,3.59 0 0 1 -0.08,0.35 1.77,1.77 0 0 1 -2.83,0.75 1.76,1.76 0 0 1 1.39,-3.07 z"
     id="path744" />
  <path
     class="cls-1"
     d="m 765.45,256.01025 a 1.76,1.76 0 1 1 1.52,2 1.75,1.75 0 0 1 -1.52,-2 z"
     id="path746" />
  <path
     class="cls-1"
     d="m 755.6,263.62025 a 1.76,1.76 0 1 1 3.49,0.45 1.77,1.77 0 0 1 -2,1.52 1.75,1.75 0 0 1 -1.49,-1.97 z"
     id="path748" />
  <path
     class="cls-1"
     d="m 773.06,265.86025 a 1.76,1.76 0 1 1 1.52,2 1.76,1.76 0 0 1 -1.52,-2 z"
     id="path750" />
  <path
     class="cls-1"
     d="m 757.84,246.16025 a 1.76,1.76 0 1 1 1.52,2 1.76,1.76 0 0 1 -1.52,-2 z"
     id="path752" />
  <path
     class="cls-1"
     d="m 775.3,248.40025 a 1.76,1.76 0 1 1 1.52,2 1.76,1.76 0 0 1 -1.52,-2 z"
     id="path754" />
  <path
     class="cls-1"
     d="m 781.62,274.36025 a 1.85,1.85 0 0 1 0.66,-0.18 2.17,2.17 0 0 1 0.36,0 1.71,1.71 0 0 1 0.93,0.43 1.36,1.36 0 0 1 0.24,0.24 l 0.18,0.29 a 1.79,1.79 0 0 1 0.18,0.66 2.08,2.08 0 0 1 0,0.35 v 0 a 1.76,1.76 0 0 1 -3.49,-0.45 v 0 a 1.7,1.7 0 0 1 0.42,-0.93 2,2 0 0 1 0.52,-0.41 z"
     id="path756" />
  <path
     class="cls-1"
     d="m 782.91,258.25025 a 1.3,1.3 0 0 1 0.08,-0.34 1.76,1.76 0 0 1 3.24,-0.22 1.66,1.66 0 0 1 0.12,0.31 1.82,1.82 0 0 1 0,0.7 1.76,1.76 0 0 1 -3.49,-0.45 z"
     id="path758" />
  <path
     class="cls-1"
     d="m 767.69,238.55025 v 0 a 1.84,1.84 0 0 1 0.42,-0.94 1.68,1.68 0 0 1 0.54,-0.41 1.73,1.73 0 0 1 1,-0.17 1.75,1.75 0 0 1 1.17,0.67 1.79,1.79 0 0 1 0.35,1.3 1.37,1.37 0 0 1 -0.08,0.35 1.76,1.76 0 0 1 -3.41,-0.8 z"
     id="path760" />
  <path
     class="cls-1"
     d="m 751.75,238.28025 a 2,2 0 0 1 -0.35,-0.08 2,2 0 0 1 -0.59,-0.34 1.77,1.77 0 0 1 -0.58,-1.55 1.75,1.75 0 0 1 2,-1.52 1.84,1.84 0 0 1 0.66,0.22 1.74,1.74 0 0 1 0.81,1 1.82,1.82 0 0 1 0.05,0.7 1.3,1.3 0 0 1 -0.08,0.34 1.5,1.5 0 0 1 -0.34,0.59 2,2 0 0 1 -0.53,0.42 1.77,1.77 0 0 1 -1.05,0.22 z"
     id="path762" />
  <path
     class="cls-1"
     d="m 755.32,279.56025 a 1.76,1.76 0 1 1 -2,1.52 1.77,1.77 0 0 1 2,-1.52 z"
     id="path764" />
  <path
     class="cls-1"
     d="m 772.78,281.80025 a 1.74,1.74 0 0 1 1.37,1 l -3.32,0.46 a 1.75,1.75 0 0 1 1.95,-1.46 z"
     id="path766" />
  <path
     class="cls-1"
     d="m 828.53,68.880248 a 3.59,3.59 0 0 1 -0.08,0.35 1.81,1.81 0 0 1 -0.88,1 1.73,1.73 0 0 1 -1,0.17 1.7,1.7 0 0 1 -0.94,-0.42 1.76,1.76 0 1 1 2.91,-1.1 z"
     id="path768" />
  <path
     class="cls-1"
     d="m 828.8,52.940248 a 1.76,1.76 0 0 1 0.45,-3.49 1.76,1.76 0 1 1 -0.45,3.49 z"
     id="path770" />
  <path
     class="cls-1"
     d="m 819,60.550248 a 1.76,1.76 0 0 1 0.4,-3.44 1.76,1.76 0 0 1 -0.45,3.49 z"
     id="path772" />
  <path
     class="cls-1"
     d="m 836.41,62.790248 a 1.76,1.76 0 0 1 0.45,-3.49 1.76,1.76 0 1 1 -0.45,3.49 z"
     id="path774" />
  <path
     class="cls-1"
     d="m 824,103.80025 a 1.76,1.76 0 0 1 -1.61,1.53 1.45,1.45 0 0 1 -0.36,0 1.37,1.37 0 0 1 -0.35,-0.08 1.76,1.76 0 1 1 2.32,-1.45 z"
     id="path776" />
  <path
     class="cls-1"
     d="m 805.06,99.590246 a 1.76,1.76 0 0 1 1.52,2.000004 1.73,1.73 0 0 1 -0.67,1.17 1.69,1.69 0 0 1 -0.6,0.3 1.82,1.82 0 0 1 -0.7,0 1.73,1.73 0 0 1 -1.17,-0.67 1.69,1.69 0 0 1 -0.3,-0.6 1.82,1.82 0 0 1 0,-0.7 v 0 a 1.73,1.73 0 0 1 0.67,-1.170004 1.79,1.79 0 0 1 1.3,-0.35 z"
     id="path778" />
  <path
     class="cls-1"
     d="m 826.28,86.340248 a 1.76,1.76 0 0 1 -3.49,-0.45 1.77,1.77 0 0 1 2,-1.52 1.75,1.75 0 0 1 1.49,1.97 z"
     id="path780" />
  <path
     class="cls-1"
     d="m 808,82.350248 a 1.75,1.75 0 0 1 0.87,1.39 1.45,1.45 0 0 1 0,0.36 1.76,1.76 0 1 1 -1.52,-2 1.78,1.78 0 0 1 0.65,0.25 z"
     id="path782" />
  <path
     class="cls-1"
     d="m 816.43,93.950248 a 1.76,1.76 0 0 1 -3.49,-0.45 1.76,1.76 0 1 1 3.49,0.45 z"
     id="path784" />
  <path
     class="cls-1"
     d="m 833.89,96.190248 a 1.76,1.76 0 0 1 -3.49,-0.45 1.76,1.76 0 1 1 3.49,0.45 z"
     id="path786" />
  <path
     class="cls-1"
     d="m 818.67,76.490248 a 1.76,1.76 0 0 1 -3.49,-0.45 1.77,1.77 0 0 1 2,-1.52 1.75,1.75 0 0 1 1.49,1.97 z"
     id="path788" />
  <path
     class="cls-1"
     d="m 836.14,78.730248 a 1.76,1.76 0 1 1 -1.53,-2 1.76,1.76 0 0 1 1.53,2 z"
     id="path790" />
  <path
     class="cls-1"
     d="m 839.62,104.11025 a 2.17,2.17 0 0 1 0.36,0 1.76,1.76 0 0 1 1.52,2 1.37,1.37 0 0 1 -0.08,0.35 1.76,1.76 0 0 1 -0.87,1 1.74,1.74 0 0 1 -2,-0.25 1.76,1.76 0 0 1 0.38,-2.89 1.63,1.63 0 0 1 0.69,-0.21 z"
     id="path792" />
  <path
     class="cls-1"
     d="m 842.22,86.610248 a 1.76,1.76 0 0 1 1.47,1.28 1.6,1.6 0 0 1 0,0.69 1.76,1.76 0 1 1 -3.49,-0.44 3,3 0 0 1 0.08,-0.35 1.79,1.79 0 0 1 1.89,-1.18 z"
     id="path794" />
  <path
     class="cls-1"
     d="m 810.64,67.580248 a 1.75,1.75 0 0 1 -1.54,0.58 1.37,1.37 0 0 1 -0.35,-0.08 1.75,1.75 0 0 1 -1.18,-1.89 3.59,3.59 0 0 1 0.08,-0.35 1.85,1.85 0 0 1 0.35,-0.59 1.76,1.76 0 0 1 0.53,-0.41 1.73,1.73 0 0 1 1,-0.17 1.83,1.83 0 0 1 0.67,0.22 1.89,1.89 0 0 1 0.27,0.2 1.75,1.75 0 0 1 0.59,1.55 3.59,3.59 0 0 1 -0.08,0.35 1.85,1.85 0 0 1 -0.34,0.59 z"
     id="path796" />
  <path
     class="cls-1"
     d="m 819,137.18025 a 1.76,1.76 0 0 1 0.6,1.19 2.08,2.08 0 0 1 0,0.35 1.76,1.76 0 0 1 -2,1.52 1.71,1.71 0 0 1 -1.17,-0.67 1.68,1.68 0 0 1 -0.35,-1.3 1.76,1.76 0 0 1 2,-1.52 1.71,1.71 0 0 1 0.92,0.43 z"
     id="path798" />
  <path
     class="cls-1"
     d="m 801.24,134.73025 a 1.76,1.76 0 0 1 0.86,1.75 3.59,3.59 0 0 1 -0.08,0.35 1.89,1.89 0 0 1 -0.59,0.82 1.75,1.75 0 0 1 -0.29,0.18 1.73,1.73 0 0 1 -1,0.17 v 0 a 1.7,1.7 0 0 1 -0.94,-0.42 1.78,1.78 0 0 1 -0.59,-1.55 1.85,1.85 0 0 1 0.23,-0.66 1.77,1.77 0 0 1 1.74,-0.86 1.83,1.83 0 0 1 0.66,0.22 z"
     id="path800" />
  <path
     class="cls-1"
     d="m 821.8,121.26025 a 1.76,1.76 0 1 1 -1.52,-2 1.77,1.77 0 0 1 1.52,2 z"
     id="path802" />
  <path
     class="cls-1"
     d="m 803.48,117.27025 a 1.78,1.78 0 0 1 0.81,1 1.82,1.82 0 0 1 0.05,0.7 1.75,1.75 0 0 1 -0.67,1.17 1.79,1.79 0 0 1 -1.3,0.35 1.37,1.37 0 0 1 -0.35,-0.08 1.76,1.76 0 0 1 -1.12,-1.19 1.82,1.82 0 0 1 0,-0.7 1.76,1.76 0 0 1 2,-1.52 1.84,1.84 0 0 1 0.58,0.27 z"
     id="path804" />
  <path
     class="cls-1"
     d="m 812,128.87025 a 1.76,1.76 0 1 1 -1.52,-2 1.76,1.76 0 0 1 1.52,2 z"
     id="path806" />
  <path
     class="cls-1"
     d="m 829.41,131.11025 a 1.76,1.76 0 1 1 -1.52,-2 1.77,1.77 0 0 1 1.52,2 z"
     id="path808" />
  <path
     class="cls-1"
     d="m 814.19,111.41025 a 1.76,1.76 0 1 1 -1.52,-2 1.75,1.75 0 0 1 1.52,2 z"
     id="path810" />
  <path
     class="cls-1"
     d="m 831.65,113.65025 a 1.76,1.76 0 1 1 -1.52,-2 1.76,1.76 0 0 1 1.52,2 z"
     id="path812" />
  <path
     class="cls-1"
     d="m 835.5,138.99025 v 0 a 1.71,1.71 0 0 1 0.93,0.43 1.74,1.74 0 0 1 0.59,1.54 3,3 0 0 1 -0.08,0.35 1.76,1.76 0 0 1 -3.41,-0.79 1.37,1.37 0 0 1 0.08,-0.35 1.66,1.66 0 0 1 0.34,-0.59 1.78,1.78 0 0 1 1.55,-0.59 z"
     id="path814" />
  <path
     class="cls-1"
     d="m 813.82,155.73025 a 1.76,1.76 0 1 1 3.49,0.45 1.76,1.76 0 0 1 -3.49,-0.45 z"
     id="path816" />
  <path
     class="cls-1"
     d="m 797.88,155.46025 a 1.84,1.84 0 0 1 -0.66,-0.22 1.67,1.67 0 0 1 -0.5,-0.45 1.72,1.72 0 0 1 -0.31,-0.6 1.82,1.82 0 0 1 0,-0.7 1.68,1.68 0 0 1 0.23,-0.66 1.76,1.76 0 0 1 3.26,1.11 1.66,1.66 0 0 1 -0.22,0.66 1.84,1.84 0 0 1 -0.45,0.51 1.61,1.61 0 0 1 -0.6,0.3 1.82,1.82 0 0 1 -0.75,0.05 z"
     id="path818" />
  <path
     class="cls-1"
     d="m 804,163.34025 a 1.77,1.77 0 0 1 2,-1.52 1.76,1.76 0 1 1 -2,1.52 z"
     id="path820" />
  <path
     class="cls-1"
     d="m 821.43,165.59025 a 1.76,1.76 0 1 1 1.52,2 1.77,1.77 0 0 1 -1.52,-2 z"
     id="path822" />
  <path
     class="cls-1"
     d="m 809.71,146.33025 a 1.76,1.76 0 1 1 -1.53,-2 1.76,1.76 0 0 1 1.53,2 z"
     id="path824" />
  <path
     class="cls-1"
     d="m 823.67,148.11025 a 1.76,1.76 0 1 1 1.53,2 1.77,1.77 0 0 1 -1.53,-2 z"
     id="path826" />
  <path
     class="cls-1"
     d="m 831.28,157.98025 a 1.77,1.77 0 0 1 2,-1.53 v 0 a 1.76,1.76 0 1 1 -2,1.53 z"
     id="path828" />
  <path
     class="cls-1"
     d="m 809.34,190.65025 a 1.76,1.76 0 1 1 1.52,2 1.76,1.76 0 0 1 -1.52,-2 z"
     id="path830" />
  <path
     class="cls-1"
     d="m 799.49,198.26025 a 1.76,1.76 0 1 1 1.52,2 1.76,1.76 0 0 1 -1.52,-2 z"
     id="path832" />
  <path
     class="cls-1"
     d="m 817,200.51025 a 1.76,1.76 0 1 1 1.52,2 1.76,1.76 0 0 1 -1.52,-2 z"
     id="path834" />
  <path
     class="cls-1"
     d="m 801.73,180.80025 a 1.76,1.76 0 0 1 3.49,0.45 1.76,1.76 0 1 1 -3.49,-0.45 z"
     id="path836" />
  <path
     class="cls-1"
     d="m 819.19,183.05025 a 1.76,1.76 0 1 1 1.52,2 1.77,1.77 0 0 1 -1.52,-2 z"
     id="path838" />
  <path
     class="cls-1"
     d="m 826.8,192.90025 a 1.37,1.37 0 0 1 0.08,-0.35 1.76,1.76 0 0 1 0.87,-1 1.86,1.86 0 0 1 1,-0.18 1.77,1.77 0 0 1 1.53,1.62 1.46,1.46 0 0 1 0,0.36 1.71,1.71 0 0 1 -0.67,1.16 1.75,1.75 0 0 1 -2.82,-1.61 z"
     id="path840" />
  <path
     class="cls-1"
     d="m 811.58,173.19025 v 0 a 1.77,1.77 0 0 1 0.42,-0.93 1.68,1.68 0 0 1 0.54,-0.41 1.73,1.73 0 0 1 1,-0.18 1.76,1.76 0 0 1 1.52,2 1.76,1.76 0 0 1 -2,1.52 1.76,1.76 0 0 1 -1.48,-2 z"
     id="path842" />
  <path
     class="cls-1"
     d="m 795.64,172.92025 a 1.76,1.76 0 0 1 -0.56,-3.32 1.8,1.8 0 0 1 0.65,-0.18 1.45,1.45 0 0 1 0.36,0 1.84,1.84 0 0 1 0.66,0.22 1.77,1.77 0 0 1 0.81,1.05 1.82,1.82 0 0 1 0.05,0.7 1.37,1.37 0 0 1 -0.08,0.35 1.75,1.75 0 0 1 -1.89,1.17 z"
     id="path844" />
  <path
     class="cls-1"
     d="m 804.85,225.57025 a 1.76,1.76 0 1 1 1.52,2 1.77,1.77 0 0 1 -1.52,-2 z"
     id="path846" />
  <path
     class="cls-1"
     d="m 795,233.18025 a 1.76,1.76 0 1 1 3.49,0.45 1.76,1.76 0 0 1 -3.49,-0.45 z"
     id="path848" />
  <path
     class="cls-1"
     d="m 812.46,235.43025 a 1.76,1.76 0 1 1 1.52,2 1.77,1.77 0 0 1 -1.52,-2 z"
     id="path850" />
  <path
     class="cls-1"
     d="m 797.24,215.72025 a 1.76,1.76 0 1 1 1.53,2 1.77,1.77 0 0 1 -1.53,-2 z"
     id="path852" />
  <path
     class="cls-1"
     d="m 814.7,217.97025 a 1.76,1.76 0 1 1 1.53,2 1.77,1.77 0 0 1 -1.53,-2 z"
     id="path854" />
  <path
     class="cls-1"
     d="m 823.49,229.71025 a 1.76,1.76 0 0 1 0.79,-3.41 1.71,1.71 0 0 1 0.67,0.22 1.76,1.76 0 0 1 0.86,1.75 1.89,1.89 0 0 1 -0.09,0.34 1.66,1.66 0 0 1 -0.34,0.59 1.74,1.74 0 0 1 -1.55,0.59 1.87,1.87 0 0 1 -0.34,-0.08 z"
     id="path856" />
  <path
     class="cls-1"
     d="m 808.62,210.11025 a 1.77,1.77 0 0 1 -1.52,-2 1.76,1.76 0 0 1 3.49,0.45 3.59,3.59 0 0 1 -0.08,0.35 1.74,1.74 0 0 1 -0.88,1 1.81,1.81 0 0 1 -1.01,0.2 z"
     id="path858" />
  <path
     class="cls-1"
     d="m 791.16,207.84025 a 1.78,1.78 0 0 1 -0.66,-0.22 2,2 0 0 1 -0.28,-0.2 1.79,1.79 0 0 1 -0.23,-0.25 1.69,1.69 0 0 1 -0.3,-0.6 1.5,1.5 0 0 1 -0.05,-0.7 1.3,1.3 0 0 1 0.08,-0.34 1.62,1.62 0 0 1 0.34,-0.6 2.15,2.15 0 0 1 0.53,-0.41 1.75,1.75 0 0 1 1,-0.17 v 0 a 1.77,1.77 0 0 1 0.93,0.42 1.75,1.75 0 0 1 0.54,0.85 1.82,1.82 0 0 1 0,0.7 3.59,3.59 0 0 1 -0.08,0.35 1.76,1.76 0 0 1 -1.89,1.17 z"
     id="path860" />
  <path
     class="cls-1"
     d="m 824.56,210.36025 v 0 a 1.73,1.73 0 0 1 0.42,-0.94 1.37,1.37 0 0 1 0.25,-0.23 1.67,1.67 0 0 1 0.28,-0.18 1.83,1.83 0 0 1 1,-0.18 v 0 a 1.71,1.71 0 0 1 0.93,0.43 1.09,1.09 0 0 1 0.23,0.25 1.34,1.34 0 0 1 0.18,0.28 1.68,1.68 0 0 1 0.19,0.66 2.2,2.2 0 0 1 0,0.36 v 0 a 1.76,1.76 0 0 1 -3.49,-0.45 z"
     id="path862" />
  <path
     class="cls-1"
     d="m 798.55,277.02025 a 1.78,1.78 0 0 1 1.55,-0.59 1.71,1.71 0 0 1 0.93,0.43 1.74,1.74 0 0 1 -0.26,2.82 l -1.48,0.16 a 1.62,1.62 0 0 1 -0.58,-0.34 1.75,1.75 0 0 1 -0.58,-1.54 1.37,1.37 0 0 1 0.08,-0.35 1.66,1.66 0 0 1 0.34,-0.59 z"
     id="path864" />
  <path
     class="cls-1"
     d="m 800.37,260.50025 a 1.76,1.76 0 1 1 1.52,2 1.77,1.77 0 0 1 -1.52,-2 z"
     id="path866" />
  <path
     class="cls-1"
     d="m 792.49,266.58025 a 1.77,1.77 0 0 1 1.52,2 1.76,1.76 0 1 1 -1.52,-2 z"
     id="path868" />
  <path
     class="cls-1"
     d="m 810,268.82025 a 1.76,1.76 0 1 1 -2,1.53 1.77,1.77 0 0 1 2,-1.53 z"
     id="path870" />
  <path
     class="cls-1"
     d="m 792.76,250.64025 a 1.76,1.76 0 0 1 3.49,0.45 1.76,1.76 0 1 1 -3.49,-0.45 z"
     id="path872" />
  <path
     class="cls-1"
     d="m 810.22,252.89025 a 1.76,1.76 0 1 1 1.52,2 1.77,1.77 0 0 1 -1.52,-2 z"
     id="path874" />
  <path
     class="cls-1"
     d="m 818.5,261.57025 a 1.71,1.71 0 0 1 1.3,-0.35 1.76,1.76 0 0 1 1.52,2 1.73,1.73 0 0 1 -0.67,1.17 1.88,1.88 0 0 1 -0.6,0.3 1.82,1.82 0 0 1 -0.7,0 1.68,1.68 0 0 1 -0.66,-0.23 1.66,1.66 0 0 1 -0.51,-0.44 1.69,1.69 0 0 1 -0.3,-0.6 1.82,1.82 0 0 1 0,-0.7 1.78,1.78 0 0 1 0.22,-0.66 1.84,1.84 0 0 1 0.4,-0.49 z"
     id="path876" />
  <path
     class="cls-1"
     d="m 804.13,245.01025 a 1.77,1.77 0 0 1 -0.94,-0.43 1.75,1.75 0 0 1 -0.58,-1.54 1.76,1.76 0 1 1 3.49,0.44 1.37,1.37 0 0 1 -0.08,0.35 1.76,1.76 0 0 1 -0.87,1 1.78,1.78 0 0 1 -1.02,0.18 z"
     id="path878" />
  <path
     class="cls-1"
     d="m 786.67,242.76025 v 0 a 1.76,1.76 0 0 1 -0.94,-0.42 1.84,1.84 0 0 1 -0.23,-0.25 1.8,1.8 0 0 1 -0.36,-0.94 2.17,2.17 0 0 1 0,-0.36 v 0 a 1.68,1.68 0 0 1 0.23,-0.66 1.76,1.76 0 0 1 1.74,-0.86 1.62,1.62 0 0 1 0.66,0.23 1.72,1.72 0 0 1 0.81,1 1.82,1.82 0 0 1 0,0.7 v 0 a 1.75,1.75 0 0 1 -1.61,1.53 1.45,1.45 0 0 1 -0.3,0.03 z"
     id="path880" />
  <path
     class="cls-1"
     d="m 821.59,247.25025 a 1.77,1.77 0 0 1 -1.52,-2 1.62,1.62 0 0 1 0.23,-0.66 1.73,1.73 0 0 1 1.74,-0.86 1.61,1.61 0 0 1 0.66,0.22 1.75,1.75 0 0 1 0.87,1.39 1.45,1.45 0 0 1 0,0.36 1.3,1.3 0 0 1 -0.08,0.34 1.72,1.72 0 0 1 -0.59,0.83 1.78,1.78 0 0 1 -1.3,0.35 z"
     id="path882" />
  <path
     class="cls-1"
     d="m 838.4,121.76025 a 1.74,1.74 0 0 1 0.81,1 1.77,1.77 0 0 1 0,0.69 1.8,1.8 0 0 1 -0.08,0.35 1.79,1.79 0 0 1 -1.89,1.18 1.77,1.77 0 0 1 -0.94,-0.43 1.73,1.73 0 0 1 -0.59,-1.19 1.38,1.38 0 0 1 0,-0.35 1.76,1.76 0 0 1 2,-1.53 1.68,1.68 0 0 1 0.69,0.28 z"
     id="path884" />
  <path
     class="cls-1"
     d="m 838.89,167.83025 a 1.76,1.76 0 1 1 1.52,2 1.76,1.76 0 0 1 -1.52,-2 z"
     id="path886" />
  <path
     class="cls-1"
     d="m 841.13,150.37025 a 1.76,1.76 0 1 1 1.53,2 1.76,1.76 0 0 1 -1.53,-2 z"
     id="path888" />
  <path
     class="cls-1"
     d="m 834.41,202.75025 a 1.76,1.76 0 1 1 3.49,0.45 1.76,1.76 0 0 1 -3.49,-0.45 z"
     id="path890" />
  <path
     class="cls-1"
     d="m 836.65,185.29025 a 1.76,1.76 0 1 1 1.52,2 1.77,1.77 0 0 1 -1.52,-2 z"
     id="path892" />
  <path
     class="cls-1"
     d="m 830.56,177.41025 -0.35,-0.08 a 1.89,1.89 0 0 1 -0.82,-0.59 1.93,1.93 0 0 1 -0.3,-0.61 1.77,1.77 0 0 1 -0.05,-0.69 v 0 a 1.89,1.89 0 0 1 0.22,-0.67 1.75,1.75 0 0 1 2.41,-0.63 1.74,1.74 0 0 1 0.81,1.05 1.77,1.77 0 0 1 0,0.69 v 0 a 1.3,1.3 0 0 1 -0.08,0.34 1.66,1.66 0 0 1 -0.34,0.59 1.78,1.78 0 0 1 -1.19,0.6 2.17,2.17 0 0 1 -0.31,0 z"
     id="path894" />
  <path
     class="cls-1"
     d="m 839.77,230.11025 a 1.76,1.76 0 1 1 1.53,2 1.76,1.76 0 0 1 -1.53,-2 z"
     id="path896" />
  <path
     class="cls-1"
     d="m 829.92,237.67025 a 1.76,1.76 0 0 1 2,-1.52 1.76,1.76 0 1 1 -0.45,3.49 1.76,1.76 0 0 1 -1.55,-1.97 z"
     id="path898" />
  <path
     class="cls-1"
     d="m 832.16,220.21025 a 1.76,1.76 0 1 1 1.53,2 1.76,1.76 0 0 1 -1.53,-2 z"
     id="path900" />
  <path
     class="cls-1"
     d="m 837.26,263.46025 a 1.76,1.76 0 1 1 -2,1.52 1.76,1.76 0 0 1 2,-1.52 z"
     id="path902" />
  <path
     class="cls-1"
     d="m 827.41,271.11025 a 1.76,1.76 0 1 1 -2,1.52 1.76,1.76 0 0 1 2,-1.52 z"
     id="path904" />
  <path
     class="cls-1"
     d="m 827.68,255.11025 a 1.76,1.76 0 1 1 1.52,2 1.76,1.76 0 0 1 -1.52,-2 z"
     id="path906" />
  <path
     class="cls-1"
     d="m 837.88,248.82025 a 1.79,1.79 0 0 1 -0.35,-1.3 1.68,1.68 0 0 1 0.23,-0.66 1.75,1.75 0 1 1 0.12,2 z"
     id="path908" />
  <path
     class="cls-2"
     d="m -67.65,342.93025 c 3.29,0 24.08,-3.35 52.46,-34.1 28.38,-30.75 48.07,-38.46 87.48,-40.72 39.41,-2.26 66.05,-8.41 98.43,-41.36 37.66,-38.34 81.84,-63.77 140,-40.38 65.23,26.22 128.53,142 165.8,155 z"
     id="path910" />
  <path
     class="cls-3"
     d="m 274.92,204.02316 c 90.51,-0.11 108,70 192.33,60.55 84.33,-9.45 83.8,-59.86 162.55,-31.84 55.92,19.89 117.63,17.59 147.31,-41.77 29.68,-59.36 41.26,-106.859998 81.89,-105.659998 V 355.21316 l -771,-0.28 c 0,0 68,-150.77 186.92,-150.91 z"
     id="path912" />
</svg>
