<svg id="PRINT" xmlns="http://www.w3.org/2000/svg" viewBox="0 0 320.21 414.36"><defs><style>.cls-1{fill:#d3f2f1;}.cls-2{fill:#7861ad;}</style></defs><title>top-left</title><path class="cls-1" d="M-37,359.5c14.38-8.95,29-17.72,40.37-30.13,16.4-17.9,19.26-43.16,17.8-66.41-1.32-21.16-4-43.07,3.11-63,6.31-17.6,20.05-32,36.46-41,28.41-15.49,59-10.45,89.78-14.65,40.91-5.6,73.35-43.25,69.13-85.51-1.45-14.56-7-28.73-6.28-43.35,1.11-23.79,21.51-44.27,44.57-48.35l-344.88-.94-.24,445.29h10.66c-2,0,2.7-19,3.54-20.82,3-6.52,8-11.59,13.55-16A256.14,256.14,0,0,1-37,359.5Z"/><path class="cls-1" d="M-37,359.5c14.38-8.95,29-17.72,40.37-30.13,16.4-17.9,19.26-43.16,17.8-66.41-1.32-21.16-4-43.07,3.11-63,6.31-17.6,20.05-32,36.46-41,28.41-15.49,59-10.45,89.78-14.65,40.91-5.6,73.35-43.25,69.13-85.51-1.45-14.56-7-28.73-6.28-43.35,1.11-23.79,21.51-44.27,44.57-48.35l-344.88-.94-.24,445.29h10.66c-2,0,2.7-19,3.54-20.82,3-6.52,8-11.59,13.55-16A256.14,256.14,0,0,1-37,359.5Z"/><path class="cls-2" d="M199.57,95.46c2.2,1.35,3.47,3.26,2.85,4.27s-2.9.72-5.09-.63-3.47-3.27-2.85-4.27S197.38,94.11,199.57,95.46Z"/><path class="cls-2" d="M194.66,66.74c3.05,1.88,4.85,4.49,4,5.83s-4,.91-7-1-4.85-4.5-4-5.84S191.61,64.86,194.66,66.74Z"/><path class="cls-2" d="M223.51,87.88c3.05,1.88,4.85,4.5,4,5.84s-4,.9-7-1-4.84-4.49-4-5.83S220.46,86,223.51,87.88Z"/><path class="cls-2" d="M212.81,65.12c2.19,1.35,3.46,3.26,2.84,4.26s-2.89.73-5.09-.62-3.46-3.27-2.84-4.27S210.62,63.77,212.81,65.12Z"/><path class="cls-2" d="M247.2,83.82c2.2,1.35,3.47,3.26,2.85,4.27s-2.9.72-5.09-.63-3.47-3.26-2.85-4.27S245,82.47,247.2,83.82Z"/><path class="cls-2" d="M228.88,113.53c2.19,1.35,3.47,3.26,2.85,4.27s-2.9.72-5.09-.63-3.47-3.26-2.85-4.27S226.69,112.18,228.88,113.53Z"/><path class="cls-2" d="M258.39,109.4c3.05,1.88,4.85,4.49,4,5.83s-4,.91-7-1-4.85-4.49-4-5.84S255.35,107.52,258.39,109.4Z"/><path class="cls-2" d="M233.46,49.39c3,1.88,4.85,4.49,4,5.84s-4,.9-7-1-4.85-4.49-4-5.83S230.41,47.51,233.46,49.39Z"/><path class="cls-2" d="M279.37,87.75c3,1.88,4.84,4.49,4,5.83s-4,.91-7-1-4.85-4.5-4-5.84S276.32,85.87,279.37,87.75Z"/><path class="cls-2" d="M299.15,104.15c2.19,1.35,3.47,3.26,2.85,4.26s-2.9.73-5.09-.63-3.47-3.26-2.85-4.26S297,102.79,299.15,104.15Z"/><path class="cls-2" d="M270.24,55.34c2.2,1.36,3.47,3.27,2.85,4.27s-2.9.72-5.09-.63-3.47-3.26-2.85-4.27S268.05,54,270.24,55.34Z"/><path class="cls-2" d="M314.11,79.89c2.19,1.35,3.47,3.26,2.85,4.26s-2.9.73-5.09-.63-3.47-3.26-2.85-4.26S311.92,78.53,314.11,79.89Z"/></svg>