<?xml version="1.0" encoding="UTF-8" standalone="no"?>
<svg
   xmlns:dc="http://purl.org/dc/elements/1.1/"
   xmlns:cc="http://creativecommons.org/ns#"
   xmlns:rdf="http://www.w3.org/1999/02/22-rdf-syntax-ns#"
   xmlns:svg="http://www.w3.org/2000/svg"
   xmlns="http://www.w3.org/2000/svg"
   xmlns:sodipodi="http://sodipodi.sourceforge.net/DTD/sodipodi-0.dtd"
   xmlns:inkscape="http://www.inkscape.org/namespaces/inkscape"
   version="1.1"
   id="svg18749"
   xml:space="preserve"
   width="943.69122"
   height="277.86401"
   viewBox="0 0 943.69122 277.86402"
   sodipodi:docname="shop-shape-top-right-blue2.svg"
   inkscape:version="1.0.2-2 (e86c870879, 2021-01-15)"><metadata
     id="metadata18755"><rdf:RDF><cc:Work
         rdf:about=""><dc:format>image/svg+xml</dc:format><dc:type
           rdf:resource="http://purl.org/dc/dcmitype/StillImage" /><dc:title></dc:title></cc:Work></rdf:RDF></metadata><defs
     id="defs18753"><pattern
       patternTransform="matrix(1.96503,0,0,1.96503,7625.75,-6568.4)"
       patternUnits="userSpaceOnUse"
       x="0"
       y="0"
       width="25"
       height="25"
       id="pattern18769"><path
         d="M 12.5,12.5 0,12.5 0,25 l 12.5,0 0,-12.5 z"
         style="fill:#bebebe;fill-opacity:1;fill-rule:nonzero;stroke:none"
         id="path18761" /><path
         d="m 25,0 -12.5,0 0,12.5 12.5,0 L 25,0 Z"
         style="fill:#bebebe;fill-opacity:1;fill-rule:nonzero;stroke:none"
         id="path18763" /><path
         d="m 25,12.5 -12.5,0 0,12.5 12.5,0 0,-12.5 z"
         style="fill:#d5d5d5;fill-opacity:1;fill-rule:nonzero;stroke:none"
         id="path18765" /><path
         d="M 12.5,0 0,0 l 0,12.5 12.5,0 0,-12.5 z"
         style="fill:#d5d5d5;fill-opacity:1;fill-rule:nonzero;stroke:none"
         id="path18767" /></pattern><clipPath
       clipPathUnits="userSpaceOnUse"
       id="clipPath18779"><path
         d="m 0,0.518 h 612.289 v 858.38 H 0 Z"
         id="path18777" /></clipPath><clipPath
       clipPathUnits="userSpaceOnUse"
       id="clipPath20607"><path
         d="M 11.1067,876.926 H 627.728 V 576.912 H 11.1067 Z"
         id="path20605" /></clipPath><clipPath
       clipPathUnits="userSpaceOnUse"
       id="clipPath20649"><path
         d="m 0,0.518 h 612.289 v 858.38 H 0 Z"
         id="path20647" /></clipPath><clipPath
       clipPathUnits="userSpaceOnUse"
       id="clipPath20743"><path
         d="m 0,0.518 h 612.289 v 858.38 H 0 Z"
         id="path20741" /></clipPath><clipPath
       clipPathUnits="userSpaceOnUse"
       id="clipPath20821"><path
         d="m 0,0.518 h 612.289 v 858.38 H 0 Z"
         id="path20819" /></clipPath></defs><sodipodi:namedview
     pagecolor="#ffffff"
     bordercolor="#666666"
     borderopacity="1"
     objecttolerance="10"
     gridtolerance="10"
     guidetolerance="10"
     inkscape:pageopacity="0"
     inkscape:pageshadow="2"
     inkscape:window-width="1920"
     inkscape:window-height="1001"
     id="namedview18751"
     showgrid="false"
     inkscape:zoom="0.72476596"
     inkscape:cx="535.49857"
     inkscape:cy="327.75617"
     inkscape:window-x="-9"
     inkscape:window-y="-9"
     inkscape:window-maximized="1"
     inkscape:current-layer="g18757" /><g
     id="g18757"
     inkscape:groupmode="layer"
     inkscape:label="4770813"
     transform="matrix(1.3333333,0,0,-1.3333333,127.30591,1151.4704)"><path
       d="M 0,7.155 H 612.289 V 515.549 H 0 Z"
       style="fill:url(#pattern18769);fill-opacity:1;fill-rule:nonzero;stroke:none"
       id="path18771" /><g
       id="g18773"
       transform="matrix(1.1772942,0,0,0.73903695,-108.55529,228.84544)"><g
         id="g18775"
         clip-path="url(#clipPath18779)"><g
           id="g20601"><g
             id="g20603" /><g
             id="g20615"><g
               clip-path="url(#clipPath20607)"
               opacity="0.5"
               id="g20613"><g
                 transform="translate(627.7285,592.1486)"
                 id="g20611"><path
                   d="m 0,0 c 0,0 -47.448,-32.856 -86.722,-2.072 -39.272,30.784 -37.413,79.058 -97.133,66.487 -59.722,-12.572 -97.762,11.858 -131.161,85.514 -33.398,73.655 -96.063,23.38 -152.257,-8.031 -56.195,-31.411 -95.947,-21.29 -120.958,46.991 -25.012,68.28 -28.391,94.24 -28.391,94.24 l 615.859,1.649 z"
                   style="fill:#c6f2f1;fill-opacity:1;fill-rule:nonzero;stroke:none"
                   id="path20609" /></g></g></g></g></g></g><text
       transform="matrix(0.9749706,0,0,-1,409.7402,190.4775)"
       style="font-variant:normal;font-weight:normal;font-stretch:normal;font-size:42.9415px;font-family:'Intro Rust G Base 2 Line';-inkscape-font-specification:IntroRustG-Base2Line;writing-mode:lr-tb;fill:#6b6b6b;fill-opacity:1;fill-rule:nonzero;stroke:none"
       id="text20641"><tspan
         x="0 26.366081 53.934525"
         y="0"
         sodipodi:role="line"
         id="tspan20637">40%</tspan><tspan
         x="5.7541609 40.193245 63.596363"
         y="43.714447"
         sodipodi:role="line"
         id="tspan20639">OFF</tspan></text><g
       id="g20643" /><text
       transform="matrix(0.97496867,0,0,-1,54.2119,424.1826)"
       style="font-variant:normal;font-weight:500;font-stretch:normal;font-size:15.7203px;font-family:'Rubik Medium';-inkscape-font-specification:Rubik-Medium;writing-mode:lr-tb;fill:#6b6b6b;fill-opacity:1;fill-rule:nonzero;stroke:none"
       id="text20813"><tspan
         x="0 10.642643 21.552532 30.686026 39.426514 43.010742 52.663006 62.425312 72.690666 82.956024 92.71833 96.302559 106.6308 116.3931 126.72134 136.48364"
         y="0"
         sodipodi:role="line"
         id="tspan20811">CALL +5445 8585 </tspan></text><g
       id="g20815"><g
         id="g20817"
         clip-path="url(#clipPath20821)"><g
           id="g20823"
           transform="translate(184.9434,418.6407)"><path
             d="m 0,0 h -183.9 c -5.944,0 -10.808,4.864 -10.808,10.808 0,5.944 4.864,10.808 10.808,10.808 H 0 c 5.944,0 10.808,-4.864 10.808,-10.808 C 10.808,4.864 5.944,0 0,0 Z"
             style="fill:none;stroke:#6b6b6b;stroke-width:1.417;stroke-linecap:butt;stroke-linejoin:miter;stroke-miterlimit:10;stroke-dasharray:none;stroke-opacity:1"
             id="path20825" /></g></g></g><text
       transform="matrix(1,0,0,-1,54.2129,456.1802)"
       style="font-variant:normal;font-weight:normal;font-stretch:normal;font-size:13.7552px;font-family:Rubik;-inkscape-font-specification:Rubik-Regular;writing-mode:lr-tb;fill:#6b6b6b;fill-opacity:1;fill-rule:nonzero;stroke:none"
       id="text20829"><tspan
         x="0 11.00416 22.00832 32.462273 35.103271 42.40728 50.275257 58.528378 63.700333 74.511917 82.201073 90.371666 97.359306 100.66055 105.99757 113.68673 116.98798 124.55334 132.42131"
         y="0"
         sodipodi:role="line"
         id="tspan20827">www.yourwebsite.com</tspan></text></g></svg>
